<svg width="116" height="116" viewBox="0 0 116 116" fill="none" xmlns="http://www.w3.org/2000/svg">
<path d="M20.4154 21.0142L19.701 21.7717C20.2644 21.9703 20.8572 22.0727 21.4546 22.0746C22.3148 22.0831 23.1652 21.892 23.939 21.5165C24.7129 21.141 25.3891 20.5913 25.9145 19.9105C26.4749 19.1598 26.8358 18.2794 26.9635 17.3515C27.0912 16.4236 26.9814 15.4785 26.6445 14.6045C26.3075 13.7305 25.7545 12.9562 25.0369 12.3538C24.3193 11.7515 23.4607 11.3409 22.5413 11.1603C21.6219 10.9798 20.6717 11.0351 19.7795 11.3213C18.8873 11.6075 18.0822 12.1151 17.4395 12.7967C16.7969 13.4783 16.3376 14.3117 16.1045 15.2189C15.8715 16.1261 15.8724 17.0776 16.1071 17.9843L16.6483 17.4L20.4154 21.0142ZM19.7876 15.3008C19.9847 15.0446 20.2368 14.8358 20.5253 14.6897C20.8138 14.5436 21.1313 14.464 21.4546 14.4567C21.9001 14.4535 22.3342 14.5982 22.6887 14.8679C23.0493 15.1125 23.3277 15.4602 23.4875 15.8654C23.6472 16.2707 23.6809 16.7148 23.5841 17.1395C23.4873 17.5643 23.2646 17.9499 22.945 18.2461C22.6254 18.5422 22.2238 18.735 21.7928 18.7993C21.3618 18.8636 20.9214 18.7964 20.5292 18.6065C20.137 18.4165 19.8113 18.1127 19.5947 17.7347C19.3781 17.3568 19.2806 16.9222 19.315 16.488C19.3494 16.0537 19.5141 15.6399 19.7876 15.3008Z" fill="white"/>
<path d="M42.3469 2.1208H42.5201C42.3469 1.9693 42.1737 1.77453 41.9789 1.62303C40.7956 0.754891 39.3171 0.389294 37.8654 0.605872C37.1462 0.708547 36.4544 0.952666 35.8301 1.32413C35.2058 1.69559 34.6614 2.18703 34.2282 2.77005C33.6172 3.58407 33.2434 4.5511 33.1479 5.56426C33.0524 6.57741 33.239 7.59723 33.6871 8.51099C34.1352 9.42475 34.8273 10.1969 35.6869 10.742C36.5466 11.2871 37.5403 11.584 38.5582 11.5999H39.4025C40.1186 11.4968 40.8071 11.2524 41.4278 10.8809C42.0485 10.5093 42.5891 10.0181 43.0181 9.43572C43.4901 8.79264 43.8153 8.05389 43.9707 7.27154H43.6459L42.3469 2.1208ZM40.3551 7.27154C40.0215 7.70897 39.5339 8.00302 38.9912 8.09393C38.5967 8.11637 38.2036 8.03048 37.8545 7.84557C37.5054 7.66066 37.2136 7.38377 37.0106 7.04491C36.8077 6.70605 36.7014 6.31813 36.7032 5.92319C36.705 5.52825 36.8149 5.14134 37.021 4.80438C37.3546 4.36695 37.8423 4.0729 38.385 3.98199H38.6881C39.1319 3.98936 39.5627 4.13291 39.9221 4.39318C40.3394 4.73325 40.6149 5.21653 40.695 5.74873C40.7751 6.28092 40.6539 6.82384 40.3551 7.27154Z" fill="white"/>
<path d="M17.9256 104.119C18.7458 104.725 19.7181 105.093 20.7347 105.181C21.7513 105.269 22.7723 105.074 23.6845 104.616C23.4247 104.443 23.1433 104.27 22.9051 104.075L26.0876 99.8768L26.6938 100.31C26.7698 99.8221 26.7698 99.3256 26.6938 98.838C26.5881 98.118 26.3409 97.4259 25.9665 96.8018C25.5921 96.1776 25.0979 95.6336 24.5123 95.2011C23.9267 94.7687 23.2614 94.4563 22.5545 94.2819C21.8477 94.1075 21.1133 94.0746 20.3937 94.185C18.944 94.4094 17.6416 95.197 16.7699 96.3764C15.8981 97.5558 15.5276 99.0317 15.739 100.483C15.8466 101.203 16.0952 101.894 16.4704 102.518C16.8456 103.142 17.3401 103.686 17.9256 104.119ZM19.5494 98.4268C19.8829 97.9894 20.3706 97.6953 20.9133 97.6044H21.1731C21.6169 97.6118 22.0477 97.7554 22.4072 98.0156C22.8302 98.3565 23.1096 98.8439 23.1898 99.3812C23.27 99.9184 23.1452 100.466 22.8402 100.916C22.4992 101.339 22.0115 101.618 21.4741 101.698C20.9367 101.778 20.3887 101.653 19.9391 101.348C19.5015 101.015 19.2073 100.528 19.1164 99.985C19.0538 99.4292 19.209 98.8708 19.5494 98.4268Z" fill="white"/>
<path d="M49.7944 37.8299L48.4521 38.4359C49.3109 38.9648 50.3011 39.2423 51.3099 39.2366C52.4526 39.2434 53.5696 38.8969 54.5077 38.2446C55.4459 37.5922 56.1594 36.666 56.5505 35.5926C56.9416 34.5192 56.9912 33.3512 56.6926 32.2485C56.3939 31.1458 55.7615 30.1624 54.8821 29.4329C53.7554 28.4856 52.3013 28.0192 50.8336 28.1344C49.4326 28.2501 48.1291 28.8977 47.1909 29.9442C46.2528 30.9907 45.7511 32.3566 45.7891 33.7613C46.4603 33.4366 47.1314 33.1337 47.8242 32.8523L49.7944 37.8299ZM49.7944 32.3762C49.965 32.1627 50.1783 31.9869 50.4205 31.8603C50.6628 31.7336 50.9288 31.6587 51.2016 31.6404H51.3748C51.8557 31.648 52.3204 31.8156 52.6955 32.1165C53.0437 32.3803 53.304 32.7433 53.442 33.1578C53.58 33.5722 53.5893 34.0187 53.4687 34.4386C53.3481 34.8584 53.1033 35.2319 52.7663 35.5101C52.4294 35.7882 52.0161 35.9579 51.5809 35.9969C51.1457 36.0358 50.7088 35.9422 50.3278 35.7284C49.9468 35.5145 49.6394 35.1904 49.4461 34.7987C49.2529 34.4069 49.1827 33.9659 49.2448 33.5335C49.307 33.1011 49.4985 32.6977 49.7944 32.3762Z" fill="white"/>
<path d="M43.7975 96.5223C43.9769 95.9098 43.9262 95.2528 43.6551 94.675C43.384 94.0971 42.9112 93.6381 42.3254 93.3843C36.3612 90.7598 31.1506 86.6822 27.1704 81.5246L25.0054 83.0828L21.8878 78.7544L24.2044 77.0664C19.5648 69.0084 17.9755 59.5523 19.7261 50.4211C21.4767 41.2899 26.4506 33.0913 33.7417 27.3188C41.0328 21.5464 50.1558 18.5843 59.4486 18.9723C68.7413 19.3604 77.5854 23.0726 84.3695 29.4328L85.3438 30.3418C86.6309 30.283 87.9208 30.3409 89.1975 30.5149C90.7877 30.7698 92.3333 31.2508 93.7873 31.9433C92.0355 29.5834 90.0479 27.408 87.8552 25.4507C81.5533 19.6434 73.6943 15.7986 65.2402 14.387C56.7861 12.9755 48.1038 14.0584 40.2559 17.5032C32.408 20.948 25.735 26.6052 21.0538 33.7824C16.3726 40.9596 13.8862 49.3455 13.899 57.9134C13.9254 60.5141 14.1862 63.1072 14.6784 65.6612L16.8434 64.947L18.4888 69.9679L15.8691 70.8119C17.5994 76.4939 20.461 81.7676 24.2819 86.316C28.1028 90.8645 32.8043 94.5938 38.1036 97.2798L35.6788 105.655C37.3026 106.413 38.9263 107.084 40.5934 107.668L43.7975 96.5223Z" fill="white"/>
<path d="M104.027 59.9911C102.031 74.4235 94.423 87.4873 82.8538 96.3493C77.961 99.6388 66.638 104.27 59.4936 99.0329C57.0774 97.2791 55.1558 94.9307 53.9154 92.2157C52.675 89.5006 52.1578 86.5111 52.414 83.5373C52.6857 80.4969 53.5977 77.5482 55.0902 74.8851C56.5827 72.222 58.622 69.9046 61.074 68.0851C71.4227 59.9478 70.7515 54.0612 70.7732 51.659C70.7732 46.9411 73.8908 31.8568 87.3354 32.5926C86.556 31.7053 85.8848 31.0344 85.3652 30.5366C81.9902 30.6834 78.7634 31.9644 76.2073 34.1724C70.1237 39.2799 68.803 48.4344 68.803 51.5291V52.0053C68.803 54.3859 68.803 59.3418 59.8616 66.3971C57.1974 68.3917 54.985 70.9266 53.3694 73.8357C51.7539 76.7449 50.7717 79.9625 50.4872 83.2776C50.1785 86.5997 50.7432 89.9447 52.1254 92.9814C53.5077 96.0181 55.6595 98.6413 58.3678 100.591C61.0464 102.463 64.2587 103.42 67.5257 103.318C73.3869 103.096 79.073 101.261 83.958 98.0157C95.9923 88.7971 103.916 75.2168 106.019 60.2075C107.838 44.1493 100.78 35.3411 93.7871 32.0732C94.795 33.405 95.7274 34.7922 96.5799 36.2284C101.429 40.2538 105.413 47.6769 104.027 59.9911Z" fill="white"/>
<path d="M85.3438 30.4285C85.8633 30.9262 86.5345 31.5971 87.3139 32.4844C87.8335 32.4844 88.3531 32.4844 88.916 32.5926C91.7477 33.0786 94.3955 34.3198 96.5801 36.1852C95.7276 34.749 94.7952 33.3618 93.7872 32.03C92.3333 31.3375 90.7877 30.8565 89.1974 30.6016C87.9207 30.4276 86.6309 30.3697 85.3438 30.4285Z" fill="white"/>
<path d="M70.7517 51.5507C70.7517 53.9529 71.4012 59.8395 61.0525 67.9768C58.6005 69.7962 56.5613 72.1136 55.0688 74.7768C53.5762 77.4399 52.6642 80.3885 52.3925 83.429C52.117 86.4204 52.6248 89.4319 53.866 92.1677C55.1073 94.9034 57.0393 97.2693 59.4721 99.0327C66.6166 104.27 77.9395 99.6387 82.8324 96.3492C94.4015 87.4872 102.009 74.4234 104.006 59.991C105.392 47.6768 101.408 40.1887 96.5584 36.185C98.0514 38.689 99.257 41.3534 100.152 44.1275C102.174 49.0644 102.825 54.4554 102.036 59.7313C100.129 73.5826 92.8604 86.1327 81.7932 94.6827C76.8137 98.0372 66.6382 101.76 60.7494 97.4096C58.6016 95.8741 56.8923 93.8043 55.7911 91.4052C54.6898 89.0061 54.2347 86.361 54.4709 83.732V83.5372C54.7105 80.7845 55.5333 78.1143 56.8845 75.7039C58.2358 73.2934 60.0846 71.198 62.3082 69.5566C72.8517 61.2678 72.8084 54.7537 72.7868 51.9619V51.5507C72.7868 49.1484 73.9342 41.3141 78.8271 37.1156C80.9267 35.3172 83.6189 34.361 86.383 34.432C87.1072 34.4349 87.8304 34.4855 88.548 34.5835L89.0459 34.6917C88.4181 33.8693 87.7902 33.1335 87.2273 32.5276C73.8693 31.7484 70.7734 46.7462 70.7517 51.5507Z" fill="white"/>
<path d="M100.174 44.1277C99.2787 41.3535 98.0731 38.6891 96.5802 36.1851C94.3956 34.3197 91.7477 33.0785 88.9161 32.5926C88.3532 32.5926 87.8336 32.5926 87.314 32.4844C87.8769 33.1336 88.5047 33.8694 89.1326 34.6486C91.5953 35.2351 93.8822 36.4014 95.8027 38.0502C97.7233 39.699 99.222 41.7827 100.174 44.1277Z" fill="white"/>
<path d="M6.32137 68.3881C4.65253 60.1181 4.99688 51.5683 7.3254 43.4592C9.65392 35.3502 13.8984 27.9194 19.701 21.7933C19.1503 21.6173 18.6314 21.3543 18.1639 21.0142C17.1384 20.2538 16.4109 19.1591 16.1071 17.9194C9.27729 25.037 4.38127 33.7818 1.88416 43.3233C-0.612946 52.8648 -0.628205 62.886 1.83983 72.4351C1.92624 72.7846 2.08381 73.1125 2.3027 73.3984C2.52158 73.6843 2.79709 73.922 3.112 74.0966C3.42691 74.2713 3.77447 74.3791 4.13297 74.4135C4.49147 74.4479 4.8532 74.408 5.19557 74.2963L15.8473 70.8336C15.3452 69.1368 14.9547 67.409 14.6782 65.6612L6.32137 68.3881Z" fill="white"/>
<path d="M18.1639 20.9926C18.6314 21.3327 19.1503 21.5957 19.7011 21.7717L20.4155 21.0142L16.6484 17.3135L16.1072 17.8978C16.411 19.1375 17.1385 20.2322 18.1639 20.9926Z" fill="white"/>
<path d="M16.8432 64.947L14.6782 65.6612C14.9769 67.4032 15.3891 69.1237 15.9123 70.8119L18.5319 69.9679L16.8432 64.947Z" fill="white"/>
<path d="M25.6764 103.015C25.1576 103.724 24.474 104.296 23.6846 104.681C33.5988 112.046 45.6261 116.016 57.9781 116C65.5976 116 73.1425 114.5 80.1821 111.585C87.2216 108.67 93.6179 104.398 99.0057 99.0122C104.394 93.6264 108.667 87.2325 111.583 80.1956C114.499 73.1587 116 65.6166 116 58C116 50.3833 114.499 42.8412 111.583 35.8043C108.667 28.7675 104.394 22.3736 99.0057 16.9878C93.6179 11.602 87.2216 7.32976 80.1821 4.41499C73.1425 1.50021 65.5976 -1.13497e-07 57.9781 0C52.7522 0.0338204 47.5541 0.761581 42.52 2.16418C43.1895 2.80645 43.6855 3.60762 43.9618 4.49308C44.2381 5.37854 44.2858 6.3195 44.1005 7.22836C52.0676 5.0313 60.4402 4.73912 68.5412 6.37545C76.6422 8.01177 84.2444 11.5307 90.733 16.6476C97.2217 21.7646 102.415 28.3361 105.892 35.8307C109.37 43.3254 111.035 51.5329 110.752 59.7897C110.469 68.0465 108.246 76.1208 104.264 83.36C100.281 90.5991 94.6501 96.7999 87.8263 101.461C81.0025 106.122 73.1772 109.113 64.9831 110.191C56.7891 111.269 48.4562 110.405 40.6581 107.668L39.987 110.027L34.9209 108.577L35.7436 105.655C32.5837 104.166 29.5749 102.376 26.7589 100.31C26.6545 101.294 26.2798 102.23 25.6764 103.015Z" fill="white"/>
<path d="M42.5201 2.07764H42.3469L43.7758 7.16346H44.1006C44.2898 6.25132 44.2441 5.30607 43.9676 4.41645C43.6911 3.52684 43.1931 2.72205 42.5201 2.07764Z" fill="white"/>
<path d="M22.9053 104.075C23.1434 104.27 23.4249 104.443 23.6847 104.617C24.4741 104.231 25.1577 103.659 25.6765 102.95C26.2458 102.177 26.5972 101.265 26.694 100.31L26.0878 99.877L22.9053 104.075Z" fill="white"/>
<path d="M39.922 110.027L40.6581 107.668C38.9911 107.084 37.3673 106.413 35.7436 105.655L34.9209 108.577L39.922 110.027Z" fill="white"/>
<path d="M38.7095 73.2357C39.2451 72.8407 39.6133 72.2594 39.7416 71.6065C39.8698 70.9535 39.7487 70.2762 39.4023 69.7081C37.7706 67.1041 36.7071 64.1851 36.2813 61.1421C35.8554 58.0991 36.0768 55.0005 36.9309 52.0489C37.7851 49.0972 39.2528 46.359 41.2381 44.0132C43.2234 41.6674 45.6815 39.7668 48.4519 38.4357C48.1972 38.295 47.9577 38.1282 47.7375 37.938C47.1417 37.4328 46.6599 36.807 46.324 36.1019C45.9881 35.3968 45.8058 34.6284 45.789 33.8477C42.5907 35.4444 39.7397 37.6574 37.3999 40.3593C35.06 43.0612 33.2776 46.1988 32.1549 49.5917C31.0322 52.9846 30.5915 56.5658 30.8581 60.1295C31.1247 63.6932 32.0933 67.1691 33.7083 70.3573L24.3123 77.1961C25.1929 78.6999 26.1691 80.1457 27.235 81.5245L38.7095 73.2357Z" fill="white"/>
<path d="M47.7376 37.938C47.9578 38.1282 48.1972 38.295 48.452 38.4357L49.7943 37.8298L47.8242 32.9387C47.1314 33.2201 46.4602 33.523 45.7891 33.8477C45.8058 34.6285 45.9882 35.3968 46.3241 36.1019C46.66 36.807 47.1417 37.4328 47.7376 37.938Z" fill="white"/>
<path d="M25.1136 83.1478L27.2786 81.5896C26.2127 80.2108 25.2365 78.765 24.3558 77.2612L22.0393 78.9493L25.1136 83.1478Z" fill="white"/>
<path d="M88.7641 33.2201C95.5622 34.194 105.868 41.7686 103.768 60.4022C101.802 74.7381 94.2552 87.7189 82.7671 96.5223C77.9175 99.7902 66.6595 104.4 59.58 99.1843C57.1648 97.4383 55.2473 95.0924 54.017 92.3785C52.7868 89.6646 52.2864 86.6768 52.5654 83.7104C52.837 80.685 53.7498 77.752 55.2429 75.1064C56.736 72.4608 58.7754 70.1632 61.2254 68.3664C71.5091 60.3156 70.838 54.4507 70.8596 52.0701C70.773 47.1791 74.0422 31.1209 88.7641 33.2201Z" fill="white"/>
</svg>
