<svg width="1440" height="3963" viewBox="0 0 1440 3963" fill="none" xmlns="http://www.w3.org/2000/svg">
<g clip-path="url(#clip0)">
<rect width="1440" height="3963" fill="#102037"/>
<path d="M803 1468L607.504 1035.74L560 1117.98L461.338 929.011L369.373 1097.11L234.782 835.622L165.353 995.718L114.195 947.689L-169 1468L178.155 1446.63L178.143 1446.65L189.105 1445.96L417.489 1431.44L803 1468Z" fill="#1B365D"/>
<path d="M667.725 1152.95L614.622 1034.9C612.226 1029.58 604.746 1029.35 602.037 1034.53L547.187 1139.28C546.26 1141.05 546.134 1143.13 546.84 1145L555.338 1167.49C557.219 1172.46 563.744 1173.61 567.204 1169.57L589.515 1143.5C592.686 1139.79 598.579 1140.39 600.95 1144.65L614.812 1169.56C617.212 1173.88 623.203 1174.42 626.337 1170.6L637.839 1156.61C640.068 1153.89 643.963 1153.25 646.945 1155.11L657.643 1161.76C663.513 1165.42 670.561 1159.25 667.725 1152.95Z" fill="#EEEEEE"/>
<path d="M480.865 1044.44L509.751 1012.17C511.716 1009.97 512.095 1006.78 510.699 1004.18L466.272 921.606C463.556 916.558 456.256 916.736 453.789 921.91L403.934 1026.5C401.886 1030.79 407.471 1034.62 410.738 1031.16C412.82 1028.95 416.484 1029.63 417.636 1032.44L426.289 1053.5C428.483 1058.84 435.837 1059.38 438.784 1054.41L450.33 1034.96C452.793 1030.81 458.619 1030.33 461.717 1034.04L470.281 1044.27C473.018 1047.54 478.02 1047.62 480.865 1044.44Z" fill="#EEEEEE"/>
<path d="M271.116 1058.39L306.677 985.213C307.141 984.259 307.381 983.213 307.381 982.153V969.438C307.381 968.331 307.119 967.241 306.616 966.255L239.029 833.847C236.372 828.641 228.882 828.792 226.437 834.101L168.183 960.562C166.423 964.383 161.715 965.799 158.139 963.584L111.219 934.514C107.674 932.318 103.008 933.688 101.214 937.451L34.92 1076.47C33.9202 1078.57 34.0256 1081.02 35.2014 1083.02L50.5971 1109.26C52.9365 1113.24 58.428 1113.91 61.651 1110.59L97.5505 1073.7C100.954 1070.2 106.802 1071.17 108.893 1075.58L132.502 1125.39C134.757 1130.15 141.26 1130.8 144.423 1126.59L215.236 1032.37C217.65 1029.16 222.268 1028.64 225.342 1031.22L260.31 1060.69C263.798 1063.63 269.122 1062.5 271.116 1058.39Z" fill="#EEEEEE"/>
<path d="M667.725 1152.95L614.622 1034.9C612.226 1029.58 604.746 1029.35 602.037 1034.53L547.187 1139.28C546.26 1141.05 546.134 1143.13 546.84 1145L555.338 1167.49C557.219 1172.46 563.744 1173.61 567.204 1169.57L589.515 1143.5C592.686 1139.79 598.579 1140.39 600.95 1144.65L614.812 1169.56C617.212 1173.88 623.203 1174.42 626.337 1170.6L637.839 1156.61C640.068 1153.89 643.963 1153.25 646.945 1155.11L657.643 1161.76C663.513 1165.42 670.561 1159.25 667.725 1152.95Z" stroke="black"/>
<path d="M480.865 1044.44L509.751 1012.17C511.716 1009.97 512.095 1006.78 510.699 1004.18L466.272 921.606C463.556 916.558 456.256 916.736 453.789 921.91L403.934 1026.5C401.886 1030.79 407.471 1034.62 410.738 1031.16C412.82 1028.95 416.484 1029.63 417.636 1032.44L426.289 1053.5C428.483 1058.84 435.837 1059.38 438.784 1054.41L450.33 1034.96C452.793 1030.81 458.619 1030.33 461.717 1034.04L470.281 1044.27C473.018 1047.54 478.02 1047.62 480.865 1044.44Z" stroke="black"/>
<path d="M271.116 1058.39L306.677 985.213C307.141 984.259 307.381 983.213 307.381 982.153V969.438C307.381 968.331 307.119 967.241 306.616 966.255L239.029 833.847C236.372 828.641 228.882 828.792 226.437 834.101L168.183 960.562C166.423 964.383 161.715 965.799 158.139 963.584L111.219 934.514C107.674 932.318 103.008 933.688 101.214 937.451L34.92 1076.47C33.9202 1078.57 34.0256 1081.02 35.2014 1083.02L50.5971 1109.26C52.9365 1113.24 58.428 1113.91 61.651 1110.59L97.5505 1073.7C100.954 1070.2 106.802 1071.17 108.893 1075.58L132.502 1125.39C134.757 1130.15 141.26 1130.8 144.423 1126.59L215.236 1032.37C217.65 1029.16 222.268 1028.64 225.342 1031.22L260.31 1060.69C263.798 1063.63 269.122 1062.5 271.116 1058.39Z" stroke="black"/>
<path d="M886.593 1143.65C526.86 1120.22 131.642 1294.23 -21 1384.16V3963H1455V648C1415.42 822.979 1246.33 1167.08 886.593 1143.65Z" fill="url(#paint0_linear)"/>
<path fill-rule="evenodd" clip-rule="evenodd" d="M266.397 2128.47C145.77 2027.59 0.185169 1948.76 -95.5471 1908.07L-7.98546 1692.41C103.199 1739.67 269.162 1829.2 410.698 1947.57C546.899 2061.48 688.227 2225.27 694.636 2424.51C701.253 2630.24 617.186 2754.27 553.972 2847.54C547.741 2856.73 541.712 2865.63 535.992 2874.27C503.983 2922.65 482.042 2961.39 470.427 3006.38C459.237 3049.73 455.624 3107.4 475.619 3193.2C507.323 3329.25 571.483 3412.85 662.516 3467.08C758.718 3524.39 894.909 3554.7 1077.98 3559.03C1275.34 3563.69 1427.14 3588.47 1537.14 3633.7C1648.11 3679.33 1732.8 3753.54 1758.08 3863.17L1536.2 3917.06C1534.26 3908.63 1524.47 3880.17 1452.03 3850.39C1378.63 3820.21 1258.1 3796.84 1072.51 3792.45C872.648 3787.73 691.904 3754.81 547.746 3668.93C398.42 3579.97 298.796 3440.43 253.861 3247.61C226.555 3130.43 227.753 3033.17 250.019 2946.91C271.86 2862.29 312.02 2796.74 347.292 2743.43C353.411 2734.18 359.398 2725.24 365.227 2716.53C426.865 2624.5 470.842 2558.84 466.776 2432.42C463.808 2340.17 392.359 2233.82 266.397 2128.47Z" fill="#392512" fill-opacity="0.64"/>
<path d="M15.8633 1806.35C22.0671 1804.93 30.2712 1809.2 33.5979 1811.52C29.1242 1815.09 26.516 1825.42 25.7711 1830.13C20.8884 1829.08 10.6688 1825.96 8.85286 1821.87C6.58294 1816.75 8.10854 1808.13 15.8633 1806.35Z" fill="#7C5939"/>
<path d="M33.5376 1834.77C40.6423 1831.54 44.4228 1821.65 45.4249 1817.1C64.5697 1821.9 71.917 1832.03 73.9948 1840.37C75.4343 1846.15 72.25 1852.5 66.4568 1853.8C54.0307 1856.6 39.9852 1843.3 33.5376 1834.77Z" fill="#7C5939"/>
<path d="M10.9886 1891.21C13.8554 1896.89 22.3 1900.34 26.164 1901.35C26.0267 1895.55 32.177 1886.71 35.2692 1883.01C31.3724 1879.98 22.5164 1874.23 18.2676 1875.56C12.9566 1877.21 7.40511 1884.1 10.9886 1891.21Z" fill="#7C5939"/>
<path d="M43.7153 1885.88C45.789 1893.45 40.7037 1902.91 37.9018 1906.69C53.8193 1918.23 66.215 1917.03 73.8303 1913.02C78.9932 1910.3 81.7176 1903.81 79.0729 1898.52C73.3472 1887.08 54.2924 1885.15 43.7153 1885.88Z" fill="#7C5939"/>
<path d="M242.694 1993.05C240.997 1999.29 244.823 2007.71 246.949 2011.13C250.69 2006.69 260.999 2004.32 265.686 2003.68C264.881 1998.71 262.284 1988.29 258.333 1986.35C253.394 1983.92 244.815 1985.25 242.694 1993.05Z" fill="#7C5939"/>
<path d="M269.898 2011.66C266.377 2018.77 256.43 2022.35 251.896 2023.25C255.696 2042.58 265.212 2050.31 273.301 2052.69C279.037 2054.38 285.611 2051.23 287.143 2045.36C290.399 2032.87 277.988 2018.38 269.898 2011.66Z" fill="#7C5939"/>
<path d="M171.084 1866.38C177.428 1865.88 184.839 1871.32 187.751 1874.1C182.77 1876.98 178.556 1886.82 177.071 1891.38C172.423 1889.63 162.842 1885.03 161.702 1880.72C160.278 1875.32 163.154 1867 171.084 1866.38Z" fill="#7C5939"/>
<path d="M183.991 1897.12C191.511 1894.97 196.814 1885.72 198.526 1881.36C216.708 1888.96 222.317 1900.12 223.005 1908.7C223.477 1914.58 219.376 1920.34 213.474 1920.8C200.756 1921.79 188.998 1906.53 183.991 1897.12Z" fill="#7C5939"/>
<path d="M139.759 1924.3C139.634 1930.78 145.386 1937.95 148.277 1940.73C150.821 1935.48 160.227 1930.54 164.612 1928.73C162.624 1924.12 157.574 1914.69 153.275 1913.82C147.901 1912.73 139.915 1916.2 139.759 1924.3Z" fill="#7C5939"/>
<path d="M170.631 1935.38C168.95 1943.17 160.187 1949.17 156.015 1951.2C164.416 1968.99 175.542 1974.03 183.962 1974.26C189.897 1974.42 195.463 1969.72 195.529 1963.65C195.669 1950.72 180.109 1939.84 170.631 1935.38Z" fill="#7C5939"/>
<path d="M315.943 1983.73C322.184 1985 327.894 1992.28 329.969 1995.75C324.414 1997.16 317.771 2005.48 315.144 2009.46C311.128 2006.49 303.106 1999.43 303.142 1994.95C303.188 1989.36 308.142 1982.15 315.943 1983.73Z" fill="#7C5939"/>
<path d="M320.303 2016.89C328.111 2016.89 335.647 2009.44 338.44 2005.72C353.896 2017.99 356.409 2030.24 354.857 2038.69C353.782 2044.55 348.25 2049.01 342.431 2047.81C329.953 2045.22 322.652 2027.32 320.303 2016.89Z" fill="#7C5939"/>
<path d="M943.383 3632.65C949.968 3628.32 961.206 3629.72 966.002 3630.96C962.302 3637.05 963.531 3650.14 964.608 3655.93C958.533 3656.83 945.439 3657.63 941.658 3653.67C936.932 3648.72 935.151 3638.07 943.383 3632.65Z" fill="#7C5939"/>
<path d="M975.492 3657.95C982.376 3651.14 982.676 3638.02 981.965 3632.32C1007.68 3629.42 1020.37 3639.36 1025.63 3648.7C1028.55 3653.88 1027.67 3660.72 1023.06 3664.53C1010.09 3675.22 986.934 3665.37 975.492 3657.95Z" fill="#7C5939"/>
<path d="M972.638 3733.15C978.29 3738.5 989.465 3738.84 994.346 3738.34C991.805 3731.68 995.277 3718.77 997.332 3713.14C991.578 3711.31 978.981 3708.48 974.615 3711.85C969.158 3716.07 965.572 3726.45 972.638 3733.15Z" fill="#7C5939"/>
<path d="M1008.27 3712.81C1013.78 3720.69 1011.79 3733.86 1010.11 3739.46C1034.8 3746.39 1048.89 3738.24 1055.58 3729.65C1059.2 3725 1059.52 3718.2 1055.76 3713.69C1045.04 3700.86 1020.72 3707.15 1008.27 3712.81Z" fill="#7C5939"/>
<path d="M1282.3 3750.99C1282.91 3758.96 1290.79 3767.06 1294.65 3770.11C1297.15 3763.35 1308.09 3756.13 1313.25 3753.36C1310.27 3747.95 1302.99 3736.99 1297.62 3736.45C1290.91 3735.77 1281.55 3741.02 1282.3 3750.99Z" fill="#7C5939"/>
<path d="M1321.39 3760.79C1320.25 3770.56 1310.22 3779.01 1305.35 3782.02C1318.57 3804.27 1333.9 3808.24 1344.34 3806.66C1350.23 3805.77 1355.1 3800.7 1355.25 3794.59C1355.67 3777.57 1334.06 3765.28 1321.39 3760.79Z" fill="#7C5939"/>
<path d="M1147.46 3635.1C1154.59 3631.77 1165.38 3634.87 1169.89 3636.83C1165.32 3642.33 1164.5 3655.57 1164.66 3661.5C1158.56 3661.47 1145.6 3660.29 1142.51 3655.78C1138.64 3650.13 1138.55 3639.25 1147.46 3635.1Z" fill="#7C5939"/>
<path d="M1175.01 3665.15C1182.82 3659.4 1185.15 3646.39 1185.33 3640.59C1211.08 3641.6 1221.96 3653.49 1225.64 3663.61C1227.66 3669.16 1225.76 3675.76 1220.67 3678.86C1206.3 3687.61 1185.09 3674.28 1175.01 3665.15Z" fill="#7C5939"/>
<path d="M1135.07 3715.81C1137.59 3723.38 1147.19 3729.2 1151.67 3731.17C1152.45 3723.98 1161.29 3714.19 1165.61 3710.19C1161.42 3705.71 1151.71 3696.96 1146.38 3697.81C1139.72 3698.87 1131.92 3706.35 1135.07 3715.81Z" fill="#7C5939"/>
<path d="M1175.31 3715.3C1176.56 3725.05 1168.9 3735.8 1164.92 3739.96C1183.14 3758.16 1198.96 3758.06 1208.69 3753.83C1214.15 3751.46 1217.62 3745.34 1216.29 3739.4C1212.59 3722.79 1188.67 3716.41 1175.31 3715.3Z" fill="#7C5939"/>
<path d="M1363.13 3708.49C1370.86 3707.26 1380.45 3713.23 1384.28 3716.36C1378.44 3720.4 1374.18 3732.92 1372.78 3738.67C1366.92 3736.96 1354.75 3732.24 1352.95 3727.04C1350.7 3720.54 1353.46 3710.03 1363.13 3708.49Z" fill="#7C5939"/>
<path d="M1381.8 3745.05C1390.82 3741.67 1396.47 3729.78 1398.17 3724.25C1422.63 3732.31 1430.03 3746.71 1430.96 3757.47C1431.47 3763.43 1427.88 3769.32 1422.14 3770.89C1406.02 3775.3 1389.11 3756.62 1381.8 3745.05Z" fill="#7C5939"/>
<path d="M627.175 1232.56C634.936 1232.06 642.574 1215.69 645.423 1207.56C657.318 1181.01 678.107 1201.97 679.031 1207.56C679.77 1212.04 688.963 1231.58 693.468 1240.79C689.218 1252.72 685.537 1244.31 684.228 1238.62C683.12 1251.53 675.605 1245.45 671.986 1240.79C665.98 1256.19 658.55 1245.76 655.586 1238.62C649.396 1252.28 644.999 1243.17 643.575 1236.91C628.33 1251.57 626.289 1240.12 627.175 1232.56Z" fill="#0C4124"/>
<path d="M630.242 1212.65C636.44 1213.52 643.617 1199.65 646.431 1192.61C662.62 1160 681.006 1188.58 680.543 1196.81C680.173 1203.39 689.486 1213.63 694.188 1217.93C690.025 1226 687.289 1217.77 686.441 1212.65C684.775 1225.32 680.273 1217.93 678.231 1212.65C674.9 1228.67 669.905 1219.32 667.823 1212.65C665.511 1228.67 658.842 1219.32 655.797 1212.65C651.265 1228.67 647.664 1219.32 646.431 1212.65C635.515 1226.81 631.09 1218.55 630.242 1212.65Z" fill="#24562B"/>
<path d="M661.536 1166.95C656.818 1181.36 644.052 1189.61 637.808 1191.94C639.103 1199.76 650.062 1191.84 653.839 1189.61C653.654 1198.68 663.733 1196.29 663.733 1189.61C669.63 1197.85 671.569 1195.36 674.718 1189.61C677.84 1197.84 685.548 1197.32 689.865 1191.94C679.505 1191.94 672.058 1175.28 669.63 1166.95C668.898 1160.95 666.254 1152.55 661.536 1166.95Z" fill="#386A3F"/>
<path d="M693.414 1189.16C711.788 1187.98 729.871 1149.21 736.616 1129.97C764.779 1067.11 813.997 1116.74 816.185 1129.97C817.934 1140.56 839.7 1186.83 850.363 1208.64C840.301 1236.87 831.588 1216.97 828.489 1203.49C825.864 1234.08 808.073 1219.67 799.505 1208.64C785.287 1245.1 767.696 1220.4 760.678 1203.49C746.022 1235.84 735.613 1214.28 732.241 1199.45C696.148 1234.15 691.318 1207.05 693.414 1189.16Z" fill="#0C4124"/>
<path d="M700.676 1142.01C715.35 1144.07 732.342 1111.25 739.004 1094.58C777.331 1017.37 820.86 1085.02 819.765 1104.5C818.889 1120.09 840.936 1144.34 852.069 1154.51C842.214 1173.63 835.735 1154.14 833.727 1142.01C829.785 1172.01 819.126 1154.51 814.289 1142.01C806.405 1179.95 794.578 1157.82 789.65 1142.01C784.175 1179.95 768.388 1157.82 761.179 1142.01C750.447 1179.95 741.924 1157.82 739.004 1142.01C713.16 1175.54 702.684 1155.98 700.676 1142.01Z" fill="#24562B"/>
<path d="M774.765 1033.83C763.595 1067.93 733.37 1087.48 718.587 1092.99C721.653 1111.51 747.6 1092.75 756.542 1087.48C756.104 1108.94 779.966 1103.28 779.966 1087.48C793.927 1106.98 798.517 1101.08 805.972 1087.48C813.364 1106.95 831.614 1105.73 841.834 1092.99C817.306 1092.99 799.676 1053.55 793.927 1033.83C792.193 1019.62 785.934 999.728 774.765 1033.83Z" fill="#386A3F"/>
<path d="M161.977 1550.74L170.988 1564.19L169.598 1582.5M152.083 1553.32L154.307 1571.63L150.971 1581.64M160.456 1538.37L181.83 1518.98M161.977 1543.24L174.88 1536.15L186 1524.99" stroke="#AAEAC8" stroke-width="4" stroke-linecap="round" stroke-linejoin="round"/>
<path d="M153.659 1503.98C148.056 1503.64 138.288 1507.72 136.105 1522.15C134.15 1535.32 140.459 1547.8 145.331 1552.8C148.516 1556.06 156.519 1561.32 163.228 1558.53C165.51 1557.59 167.52 1556.12 169.06 1554.26C170.599 1552.4 171.614 1550.22 172.004 1547.93C172.422 1545.61 172.314 1543.25 171.688 1541.01C171.063 1538.78 169.933 1536.71 168.374 1534.96C161.876 1527.21 163.622 1522.89 164.099 1521.08C165.074 1517.4 165.796 1504.75 153.659 1503.98Z" fill="#AAEAC8"/>
<path d="M155.368 1524.2C156.166 1526.76 154.798 1529.5 152.313 1530.32C149.828 1531.14 147.166 1529.73 146.368 1527.17M155.368 1524.2C154.571 1521.64 151.909 1520.24 149.424 1521.06C146.939 1521.88 145.571 1524.62 146.368 1527.17M155.368 1524.2L159.604 1522.8M146.368 1527.17L136.519 1527.42L135.45 1528.68M168.604 1519.83C169.401 1522.39 168.033 1525.13 165.548 1525.95C163.063 1526.77 160.401 1525.36 159.604 1522.8M168.604 1519.83C167.806 1517.27 165.144 1515.86 162.659 1516.68C160.174 1517.51 158.806 1520.24 159.604 1522.8M168.604 1519.83L164.653 1519.33" stroke="black"/>
<path d="M246.172 1301.45L560.956 785.974L783.502 966.668L387.05 1415.83C387.05 1415.83 345.349 1443.1 287.671 1396.27C229.992 1349.43 246.172 1301.45 246.172 1301.45Z" fill="black"/>
<path d="M210.416 1420.11L271.656 1281.79L394.669 1381.67L288.287 1483.34C288.287 1483.34 274.175 1486.78 242.294 1460.9C210.412 1435.01 210.416 1420.11 210.416 1420.11Z" fill="black"/>
<path d="M187.932 1504.5L246.587 1409.24L286.4 1441.56L213.135 1524.96C213.135 1524.96 205.489 1530.08 195.171 1521.7C184.852 1513.32 187.932 1504.5 187.932 1504.5Z" fill="black"/>
<path d="M645.517 909.435C674.143 932.677 702.75 950.661 726.004 960.871C737.581 965.953 748.231 969.289 757.105 970.189C765.587 971.05 774.746 969.868 780.194 962.783C785.643 955.699 784.645 946.271 781.869 937.99C778.965 929.328 773.345 919.453 765.856 909.056C750.813 888.17 727.171 863.73 698.545 840.488C669.919 817.246 641.312 799.262 618.058 789.052C606.481 783.969 595.831 780.634 586.957 779.734C578.475 778.873 569.317 780.055 563.868 787.139C558.419 794.224 559.417 803.652 562.193 811.932C565.097 820.595 570.717 830.47 578.206 840.867C593.249 861.752 616.892 886.192 645.517 909.435Z" fill="#234065" stroke="black" stroke-width="15"/>
<path d="M436.5 435.626C600.9 574.128 595.333 733.38 568 794C568 794 550.5 812.5 644 896.5C737.5 980.5 773.5 958.5 773.5 958.5C946.167 875.447 1326.3 667.01 1431.5 511.658C1563 317.468 1427.5 279.452 1407 59.575C1390.6 -116.327 1493.17 -137.698 1546.5 -126.396L1690.5 -882.094L872.5 -916C867 -797.842 836.3 -547.963 757.5 -493.713C659 -425.901 54.5 -476.76 66.5 -126.396C78.5 223.969 231 262.499 436.5 435.626Z" fill="url(#paint1_radial)"/>
<path d="M723.435 678.401C723.435 797.587 663.102 873.962 632.935 897.251C1183.44 697.409 958.435 640.899 1216.94 231.456C1423.74 -96.0992 1258.94 -461.91 1192.44 -590C1205.27 -519.448 1202.84 -340.635 1090.44 -189.804C949.935 -1.26447 686.935 -148.191 562.435 91.7208C437.935 331.633 723.435 529.419 723.435 678.401Z" fill="url(#paint2_linear)"/>
<path d="M810.288 1330.07L992.051 928.073L1036.22 1004.56L1127.95 828.814L1213.45 985.146L1338.59 741.963L1403.14 890.851L1450.7 846.184L1714.01 1330.07L1391.24 1310.2L1391.25 1310.22L1381.06 1309.57L1168.72 1296.07L810.288 1330.07Z" fill="#17331B"/>
<path d="M936.72 1035.6L985.018 928.216C987.413 922.889 994.895 922.666 997.603 927.841L1048.03 1024.17C1048.96 1025.94 1049.08 1028.02 1048.38 1029.89L1040.85 1049.82C1038.97 1054.8 1032.44 1055.94 1028.98 1051.9L1009.24 1028.82C1006.07 1025.12 1000.17 1025.71 997.8 1029.97L985.608 1051.89C983.208 1056.21 977.215 1056.75 974.081 1052.93L964.121 1040.81C961.891 1038.09 957.995 1037.45 955.013 1039.31L946.803 1044.42C940.934 1048.07 933.885 1041.91 936.72 1035.6Z" fill="#EEEEEE"/>
<path d="M1109.41 935.741L1083.17 906.403C1081.2 904.207 1080.82 901.015 1082.22 898.42L1122.9 822.782C1125.62 817.733 1132.92 817.911 1135.38 823.087L1181.32 919.476C1183.23 923.472 1178.03 927.029 1174.99 923.811C1173.06 921.76 1169.65 922.392 1168.58 925.001L1160.91 943.675C1158.72 949.017 1151.36 949.554 1148.41 944.587L1138.54 927.94C1136.08 923.788 1130.25 923.317 1127.15 927.02L1120 935.566C1117.26 938.838 1112.26 938.921 1109.41 935.741Z" fill="#EEEEEE"/>
<path d="M1304.53 948.569L1271.79 881.182C1271.33 880.229 1271.09 879.183 1271.09 878.123V866.528C1271.09 865.422 1271.35 864.331 1271.85 863.346L1334.18 741.216C1336.84 736.009 1344.33 736.16 1346.77 741.469L1400.28 857.651C1402.04 861.472 1406.75 862.889 1410.32 860.673L1453 834.221C1456.55 832.025 1461.22 833.395 1463.01 837.159L1524.3 965.714C1525.3 967.811 1525.19 970.266 1524.02 972.269L1510.16 995.883C1507.82 999.87 1502.33 1000.54 1499.11 997.222L1466.67 963.883C1463.27 960.384 1457.42 961.355 1455.33 965.766L1434.03 1010.71C1431.78 1015.47 1425.27 1016.12 1422.11 1011.91L1357.08 925.355C1354.66 922.142 1350.04 921.617 1346.97 924.208L1315.34 950.863C1311.85 953.804 1306.53 952.674 1304.53 948.569Z" fill="#EEEEEE"/>
<path d="M936.72 1035.6L985.018 928.216C987.413 922.889 994.895 922.666 997.603 927.841L1048.03 1024.17C1048.96 1025.94 1049.08 1028.02 1048.38 1029.89L1040.85 1049.82C1038.97 1054.8 1032.44 1055.94 1028.98 1051.9L1009.24 1028.82C1006.07 1025.12 1000.17 1025.71 997.8 1029.97L985.608 1051.89C983.208 1056.21 977.215 1056.75 974.081 1052.93L964.121 1040.81C961.891 1038.09 957.995 1037.45 955.013 1039.31L946.803 1044.42C940.934 1048.07 933.885 1041.91 936.72 1035.6Z" stroke="black"/>
<path d="M1109.41 935.741L1083.17 906.403C1081.2 904.207 1080.82 901.015 1082.22 898.42L1122.9 822.782C1125.62 817.733 1132.92 817.911 1135.38 823.087L1181.32 919.476C1183.23 923.472 1178.03 927.029 1174.99 923.811C1173.06 921.76 1169.65 922.392 1168.58 925.001L1160.91 943.675C1158.72 949.017 1151.36 949.554 1148.41 944.587L1138.54 927.94C1136.08 923.788 1130.25 923.317 1127.15 927.02L1120 935.566C1117.26 938.838 1112.26 938.921 1109.41 935.741Z" stroke="black"/>
<path d="M1304.53 948.569L1271.79 881.182C1271.33 880.229 1271.09 879.183 1271.09 878.123V866.528C1271.09 865.422 1271.35 864.331 1271.85 863.346L1334.18 741.216C1336.84 736.009 1344.33 736.16 1346.77 741.469L1400.28 857.651C1402.04 861.472 1406.75 862.889 1410.32 860.673L1453 834.221C1456.55 832.025 1461.22 833.395 1463.01 837.159L1524.3 965.714C1525.3 967.811 1525.19 970.266 1524.02 972.269L1510.16 995.883C1507.82 999.87 1502.33 1000.54 1499.11 997.222L1466.67 963.883C1463.27 960.384 1457.42 961.355 1455.33 965.766L1434.03 1010.71C1431.78 1015.47 1425.27 1016.12 1422.11 1011.91L1357.08 925.355C1354.66 922.142 1350.04 921.617 1346.97 924.208L1315.34 950.863C1311.85 953.804 1306.53 952.674 1304.53 948.569Z" stroke="black"/>
<path d="M952.325 1137.48C952.325 1137.48 1030.97 1267 1057.86 1265.29" stroke="#B21C14" stroke-width="6" stroke-miterlimit="10"/>
<path d="M802.944 1289.43L900.933 1303.67L903.061 1243.06L804.472 1245.66L802.944 1289.43Z" fill="#953621"/>
<path d="M795.074 1238.87C795.074 1238.87 788.459 1248.52 803.645 1249.11C818.831 1249.7 886.106 1255.98 886.106 1255.98C886.106 1255.98 896.649 1249.88 888.377 1248.94C880.261 1247.84 795.074 1238.87 795.074 1238.87Z" fill="#C45233"/>
<path d="M903.05 1243.69L900.969 1301.63L1017.8 1291.33L1019.61 1240.48L966.61 1163.42L903.05 1243.69Z" fill="#E56138"/>
<path d="M870.002 1131.55L795.075 1238.87L888.382 1248.78L964.749 1138.02L870.002 1131.55Z" fill="#E56138"/>
<path d="M1027.63 1247.09L964.749 1138.02L886.961 1250.96C886.961 1250.96 882.278 1264.26 894.992 1256.93C907.706 1249.61 954.349 1197.69 959.681 1182.35C965.013 1167.01 969.37 1181.27 972.658 1186.37C975.947 1191.47 1000.55 1233.36 1019.37 1245.36C1019.37 1245.36 1030.67 1257.86 1027.63 1247.09Z" fill="#F5D340"/>
<path d="M962.632 1198C962.632 1198 955.345 1255.21 902.967 1301.51L1013.96 1291.58C1013.81 1291.57 965.609 1229.88 962.632 1198Z" fill="#953621"/>
<path d="M952.326 1137.48C952.326 1137.48 845.338 1314.31 800.411 1320.41" stroke="#B21C14" stroke-width="6" stroke-miterlimit="10"/>
<path d="M879.977 1131.68C879.977 1131.68 772.929 1308.55 728 1314.67" stroke="#B21C14" stroke-width="6" stroke-miterlimit="10"/>
<path d="M1318.41 1168.43C1327.74 1167.83 1336.92 1148.15 1340.35 1138.38C1354.65 1106.46 1379.64 1131.66 1380.75 1138.38C1381.64 1143.75 1392.69 1167.25 1398.1 1178.32C1393 1192.66 1388.57 1182.55 1387 1175.71C1385.66 1191.24 1376.63 1183.92 1372.28 1178.32C1365.06 1196.84 1356.13 1184.29 1352.57 1175.71C1345.12 1192.13 1339.84 1181.18 1338.13 1173.66C1319.8 1191.28 1317.35 1177.51 1318.41 1168.43Z" fill="#0C4124"/>
<path d="M1322.1 1144.49C1329.55 1145.53 1338.18 1128.87 1341.56 1120.41C1361.02 1081.2 1383.12 1115.55 1382.57 1125.45C1382.12 1133.36 1393.32 1145.67 1398.97 1150.84C1393.97 1160.54 1390.68 1150.65 1389.66 1144.49C1387.66 1159.72 1382.24 1150.84 1379.79 1144.49C1375.78 1163.75 1369.78 1152.52 1367.28 1144.49C1364.5 1163.75 1356.48 1152.52 1352.82 1144.49C1347.37 1163.75 1343.04 1152.52 1341.56 1144.49C1328.44 1161.51 1323.12 1151.58 1322.1 1144.49Z" fill="#24562B"/>
<path d="M1359.72 1089.56C1354.05 1106.88 1338.7 1116.8 1331.19 1119.6C1332.75 1129 1345.93 1119.48 1350.47 1116.8C1350.24 1127.7 1362.36 1124.82 1362.36 1116.8C1369.45 1126.7 1371.78 1123.71 1375.56 1116.8C1379.32 1126.69 1388.58 1126.07 1393.77 1119.6C1381.32 1119.6 1372.37 1099.57 1369.45 1089.56C1368.57 1082.35 1365.39 1072.25 1359.72 1089.56Z" fill="#386A3F"/>
<path d="M1291.14 1176.02C1297.45 1175.61 1303.67 1162.3 1305.98 1155.69C1315.66 1134.09 1332.57 1151.14 1333.32 1155.69C1333.92 1159.32 1341.4 1175.22 1345.06 1182.71C1341.6 1192.41 1338.61 1185.57 1337.54 1180.94C1336.64 1191.45 1330.53 1186.5 1327.59 1182.71C1322.7 1195.24 1316.66 1186.75 1314.25 1180.94C1309.21 1192.06 1305.64 1184.65 1304.48 1179.55C1292.08 1191.47 1290.42 1182.16 1291.14 1176.02Z" fill="#0C4124"/>
<path d="M1293.64 1159.82C1298.68 1160.53 1304.51 1149.25 1306.8 1143.53C1319.97 1117 1333.04 1134.69 1332.67 1141.38C1332.37 1146.74 1339.34 1149.97 1345.86 1159.82C1342.47 1166.39 1340.03 1163.99 1339.34 1159.82C1337.99 1170.13 1334.33 1164.12 1332.67 1159.82C1329.96 1172.86 1325.89 1165.25 1324.2 1159.82C1322.32 1172.86 1316.9 1165.25 1314.42 1159.82C1310.73 1172.86 1307.81 1165.25 1306.8 1159.82C1297.93 1171.34 1294.33 1164.62 1293.64 1159.82Z" fill="#24562B"/>
<path d="M1319.09 1122.66C1315.25 1134.37 1304.87 1141.09 1299.79 1142.98C1300.84 1149.34 1309.76 1142.9 1312.83 1141.09C1312.68 1148.46 1320.88 1146.52 1320.88 1141.09C1325.67 1147.79 1327.25 1145.76 1329.81 1141.09C1332.35 1147.78 1338.62 1147.36 1342.13 1142.98C1333.7 1142.98 1327.65 1129.43 1325.67 1122.66C1325.08 1117.78 1322.93 1110.94 1319.09 1122.66Z" fill="#386A3F"/>
<path d="M1365.22 1178.6C1371.53 1178.2 1377.74 1164.88 1380.06 1158.27C1389.73 1136.68 1406.64 1153.73 1407.39 1158.27C1407.99 1161.91 1415.47 1177.8 1419.13 1185.3C1415.68 1194.99 1412.68 1188.16 1411.62 1183.53C1410.72 1194.03 1404.6 1189.08 1401.66 1185.3C1396.78 1197.82 1390.73 1189.34 1388.32 1183.53C1383.29 1194.64 1379.71 1187.23 1378.55 1182.14C1366.15 1194.06 1364.5 1184.75 1365.22 1178.6Z" fill="#0C4124"/>
<path d="M1367.71 1162.41C1372.75 1163.11 1378.59 1151.84 1380.88 1146.11C1394.04 1119.59 1406.29 1138.55 1405.92 1145.24C1405.62 1150.6 1413.42 1156.4 1420.1 1163.7C1416.71 1170.27 1414.11 1166.57 1413.42 1162.41C1412.06 1172.71 1408.4 1166.7 1406.74 1162.41C1404.03 1175.44 1399.97 1167.84 1398.28 1162.41C1396.39 1175.44 1390.97 1167.84 1388.49 1162.41C1384.81 1175.44 1381.88 1167.84 1380.88 1162.41C1372 1173.92 1368.4 1167.21 1367.71 1162.41Z" fill="#24562B"/>
<path d="M1393.16 1125.24C1389.32 1136.96 1378.94 1143.67 1373.86 1145.57C1374.92 1151.93 1383.83 1145.48 1386.9 1143.67C1386.75 1151.04 1394.95 1149.1 1394.95 1143.67C1399.74 1150.37 1401.32 1148.34 1403.88 1143.67C1406.42 1150.36 1412.69 1149.94 1416.2 1145.57C1407.78 1145.57 1401.72 1132.02 1399.74 1125.24C1399.15 1120.36 1397 1113.53 1393.16 1125.24Z" fill="#386A3F"/>
<path d="M581.612 3823.41C608.771 3821.68 635.498 3764.37 645.467 3735.94C687.094 3643.03 759.841 3716.38 763.074 3735.94C765.661 3751.59 797.831 3819.97 813.593 3852.21C798.72 3893.94 785.841 3864.53 781.261 3844.6C777.381 3889.81 751.085 3868.51 738.421 3852.21C717.406 3906.11 691.405 3869.6 681.032 3844.6C659.37 3892.42 643.985 3860.54 639.001 3838.63C585.653 3889.92 578.513 3849.86 581.612 3823.41Z" fill="#0C4124"/>
<path d="M592.346 3753.72C614.035 3756.77 639.15 3708.26 648.996 3683.62C705.646 3569.5 769.984 3669.49 768.366 3698.29C767.071 3721.34 799.658 3757.17 816.114 3772.2C801.547 3800.46 791.97 3771.66 789.003 3753.72C783.176 3798.07 767.422 3772.2 760.273 3753.72C748.619 3809.81 731.139 3777.09 723.855 3753.72C715.762 3809.81 692.428 3777.09 681.772 3753.72C665.91 3809.81 653.312 3777.09 648.996 3753.72C610.797 3803.29 595.313 3774.38 592.346 3753.72Z" fill="#24562B"/>
<path d="M701.853 3593.83C685.344 3644.23 640.67 3673.13 618.82 3681.28C623.352 3708.65 661.702 3680.91 674.919 3673.13C674.272 3704.84 709.541 3696.48 709.541 3673.13C730.177 3701.95 736.961 3693.22 747.98 3673.13C758.905 3701.92 785.88 3700.1 800.986 3681.28C764.732 3681.28 738.674 3622.98 730.177 3593.83C727.614 3572.83 718.362 3543.43 701.853 3593.83Z" fill="#386A3F"/>
<path d="M718.04 3834.84C736.414 3833.67 754.497 3794.9 761.242 3775.66C789.405 3712.8 838.623 3762.43 840.81 3775.66C842.56 3786.25 864.326 3832.51 874.989 3854.32C864.927 3882.56 856.214 3862.66 853.115 3849.18C850.49 3879.76 832.699 3865.35 824.131 3854.32C809.913 3890.79 792.322 3866.09 785.304 3849.18C770.648 3881.53 760.239 3859.96 756.867 3845.13C720.774 3879.84 715.944 3852.73 718.04 3834.84Z" fill="#0C4124"/>
<path d="M725.303 3787.69C739.977 3789.75 756.968 3756.93 763.63 3740.26C801.957 3663.05 834.657 3712.98 833.562 3732.47C832.686 3748.06 864.842 3774.1 877.355 3790.41C867.499 3809.53 860.361 3799.82 858.353 3787.69C854.411 3817.69 843.752 3800.19 838.916 3787.69C831.031 3825.63 819.205 3803.5 814.277 3787.69C808.802 3825.63 793.014 3803.5 785.805 3787.69C775.074 3825.63 766.55 3803.5 763.63 3787.69C737.786 3821.22 727.31 3801.66 725.303 3787.69Z" fill="#24562B"/>
<path d="M799.391 3679.51C788.221 3713.61 757.996 3733.16 743.213 3738.68C746.279 3757.2 772.226 3738.43 781.168 3733.16C780.73 3754.62 804.592 3748.97 804.592 3733.16C818.553 3752.66 823.143 3746.76 830.598 3733.16C837.99 3752.64 856.24 3751.41 866.46 3738.68C841.932 3738.68 824.302 3699.23 818.553 3679.51C816.819 3665.31 810.56 3645.41 799.391 3679.51Z" fill="#386A3F"/>
<path fill-rule="evenodd" clip-rule="evenodd" d="M378.985 3610.55C378.987 3610.55 378.987 3610.54 375.771 3608.25C372.555 3605.97 372.554 3605.97 372.553 3605.97L372.457 3606.11C372.391 3606.21 372.293 3606.35 372.162 3606.55C371.9 3606.93 371.511 3607.51 371 3608.26C369.979 3609.76 368.474 3611.97 366.54 3614.77C362.673 3620.39 357.095 3628.4 350.258 3638.02C336.579 3657.24 317.873 3682.83 297.744 3708.29C277.596 3733.78 256.102 3759.04 236.84 3777.67C227.202 3787 218.228 3794.56 210.342 3799.66C202.309 3804.85 196.025 3807.08 191.585 3806.74L191 3814.76C198.057 3815.31 206.161 3811.87 214.503 3806.48C222.994 3800.99 232.385 3793.03 242.197 3783.54C261.836 3764.54 283.587 3738.96 303.811 3713.37C324.052 3687.77 342.843 3662.07 356.569 3642.77C363.433 3633.12 369.034 3625.07 372.921 3619.43C374.864 3616.61 376.379 3614.39 377.409 3612.88C377.924 3612.12 378.317 3611.54 378.583 3611.14C378.715 3610.95 378.816 3610.8 378.884 3610.7L378.985 3610.55Z" fill="#1B365D"/>
<path d="M626.999 3857.13L458.813 3877.15L456.974 3779.58L625.685 3786.67L626.999 3857.13Z" fill="#102037"/>
<path d="M641.979 3776.03C641.979 3776.03 653.016 3791.74 627 3792.25C600.983 3792.76 485.619 3800.87 485.619 3800.87C485.619 3800.87 467.749 3790.73 481.94 3789.46C495.867 3787.94 641.979 3776.03 641.979 3776.03Z" fill="#1B365D"/>
<path d="M456.974 3780.59L458.813 3873.85L259.093 3853.83L257.516 3771.97L350.544 3649.56L456.974 3780.59Z" fill="#6499C6"/>
<path d="M516.889 3601.16L641.977 3776.03L481.938 3789.21L354.485 3608.76L516.889 3601.16Z" fill="#6499C6"/>
<path d="M243.589 3782.36L354.487 3608.76L484.305 3792.76C484.305 3792.76 491.926 3814.3 470.377 3802.13C448.828 3789.97 370.517 3705.07 361.845 3680.23C353.173 3655.39 345.289 3678.2 339.507 3686.31C333.726 3694.42 290.366 3761.08 257.78 3779.83C257.78 3779.83 238.071 3799.6 243.589 3782.36Z" fill="#B4EBEB"/>
<path d="M356.324 3705.32C356.324 3705.32 367.099 3797.57 455.396 3873.6L265.662 3854.34C265.924 3854.34 350.28 3756.51 356.324 3705.32Z" fill="#102037"/>
<path fill-rule="evenodd" clip-rule="evenodd" d="M379.073 3606.1C379.072 3606.09 379.071 3606.09 375.772 3608.25C372.473 3610.42 372.474 3610.42 372.475 3610.42L372.605 3610.63C372.692 3610.77 372.821 3610.98 372.992 3611.25C373.333 3611.8 373.839 3612.61 374.502 3613.67C375.828 3615.79 377.782 3618.89 380.294 3622.84C385.318 3630.74 392.58 3642.04 401.532 3655.63C419.434 3682.81 444.113 3719.18 471.203 3755.91C498.279 3792.62 527.831 3829.78 555.477 3858.5C569.297 3872.85 582.717 3885.18 595.177 3894.29C607.56 3903.36 619.349 3909.51 629.869 3911.04L630.962 3903.07C622.299 3901.81 611.743 3896.54 599.709 3887.73C587.751 3878.98 574.683 3867.01 561.033 3852.83C533.74 3824.48 504.426 3787.64 477.433 3751.04C450.454 3714.46 425.86 3678.22 408.006 3651.12C399.081 3637.57 391.844 3626.3 386.839 3618.43C384.337 3614.5 382.393 3611.41 381.075 3609.31C380.417 3608.26 379.915 3607.45 379.578 3606.91C379.409 3606.64 379.282 3606.43 379.197 3606.3L379.073 3606.1Z" fill="#1B365D"/>
<path fill-rule="evenodd" clip-rule="evenodd" d="M503.111 3599C503.109 3599 503.109 3599 499.81 3601.16C496.511 3603.32 496.511 3603.32 496.513 3603.32L496.643 3603.53C496.73 3603.67 496.859 3603.88 497.029 3604.16C497.37 3604.7 497.877 3605.51 498.54 3606.57C499.866 3608.69 501.819 3611.79 504.332 3615.74C509.356 3623.65 516.617 3634.95 525.57 3648.54C543.472 3675.71 568.151 3712.08 595.241 3748.81C622.317 3785.52 651.869 3822.68 679.515 3851.4C693.335 3865.76 706.755 3878.08 719.214 3887.2C731.597 3896.26 743.387 3902.42 753.906 3903.94L755 3895.97C746.336 3894.71 735.78 3889.44 723.746 3880.64C711.789 3871.89 698.72 3859.91 685.071 3845.73C657.777 3817.38 628.464 3780.54 601.471 3743.94C574.492 3707.37 549.898 3671.12 532.044 3644.02C523.119 3630.47 515.881 3619.21 510.877 3611.34C508.374 3607.4 506.431 3604.31 505.113 3602.21C504.454 3601.16 503.952 3600.35 503.616 3599.81C503.447 3599.54 503.32 3599.34 503.235 3599.2L503.111 3599Z" fill="#1B365D"/>
<path d="M221.631 3795.68C193.306 3832.05 203.375 3855.41 211.951 3862.55L237.147 3873.58V3783.31C223.461 3792.35 227.466 3812.34 231.179 3821.2C224.071 3818.86 221.852 3803.21 221.631 3795.68Z" fill="#F89F84"/>
<path d="M248.418 3776C243.326 3776.21 237.367 3782.2 235.024 3785.17V3873.32L239.533 3877.71C244.882 3875.53 255.871 3871.14 257.038 3870.93C258.496 3870.66 269.901 3852.45 272.023 3832.5C273.72 3816.55 261.768 3801.48 255.579 3795.94C258.337 3802 254.43 3808.66 252.131 3811.23C252.131 3807.11 248.418 3804.32 246.031 3795.94C244.121 3789.24 246.827 3779.86 248.418 3776Z" fill="#E56138"/>
<path d="M223.136 3863.06C214.701 3849.27 228.077 3831.37 235.819 3824.15V3868.86L223.136 3863.06Z" fill="#FFED8E"/>
<path d="M238.061 3869.37L233.256 3867.08C234.016 3853.97 235.386 3830.01 235.582 3825.43C235.565 3825.2 235.564 3825 235.581 3824.82C235.615 3824.47 235.613 3824.72 235.582 3825.43C235.814 3828.54 239.012 3836.23 240.696 3839.93C250.615 3850.18 249.789 3859.96 248.135 3863.57L238.061 3869.37Z" fill="#F5D340"/>
<path d="M262.549 3904.45L193.08 3876.92C185.698 3873.99 187.191 3871.55 190.792 3860.46C193.673 3851.59 199.996 3852.68 202.797 3854.33L274.711 3883.92C281.742 3889.6 280.387 3892.68 275.893 3900.8C272.298 3907.3 265.499 3905.94 262.549 3904.45Z" fill="#7C5939"/>
<path d="M262.549 3904.45L193.08 3876.92C185.698 3873.99 187.191 3871.55 190.792 3860.46C193.673 3851.59 199.996 3852.68 202.797 3854.33L274.711 3883.92C281.742 3889.6 280.387 3892.68 275.893 3900.8C272.298 3907.3 265.499 3905.94 262.549 3904.45Z" fill="#7C5939"/>
<path d="M262.549 3904.45L193.08 3876.92C185.698 3873.99 187.191 3871.55 190.792 3860.46C193.673 3851.59 199.996 3852.68 202.797 3854.33L274.711 3883.92C281.742 3889.6 280.387 3892.68 275.893 3900.8C272.298 3907.3 265.499 3905.94 262.549 3904.45Z" fill="#392512"/>
<path d="M262.549 3904.45L193.08 3876.92C185.698 3873.99 187.191 3871.55 190.792 3860.46C193.673 3851.59 199.996 3852.68 202.797 3854.33L274.711 3883.92C281.742 3889.6 280.387 3892.68 275.893 3900.8C272.298 3907.3 265.499 3905.94 262.549 3904.45Z" stroke="#7C5939"/>
<path d="M274.417 3878.69L204.531 3905.15C197.105 3907.96 196.574 3905.15 191.8 3894.51C187.981 3886 193.392 3882.55 196.574 3881.88L269.643 3855.29C278.66 3854.76 279.721 3857.95 281.843 3866.99C283.54 3874.23 277.599 3877.81 274.417 3878.69Z" fill="#7C5939"/>
<path d="M274.417 3878.69L204.531 3905.15C197.105 3907.96 196.574 3905.15 191.8 3894.51C187.981 3886 193.392 3882.55 196.574 3881.88L269.643 3855.29C278.66 3854.76 279.721 3857.95 281.843 3866.99C283.54 3874.23 277.599 3877.81 274.417 3878.69Z" fill="#7C5939"/>
<path d="M274.417 3878.69L204.531 3905.15C197.105 3907.96 196.574 3905.15 191.8 3894.51C187.981 3886 193.392 3882.55 196.574 3881.88L269.643 3855.29C278.66 3854.76 279.721 3857.95 281.843 3866.99C283.54 3874.23 277.599 3877.81 274.417 3878.69Z" fill="#7C5939"/>
<path d="M274.417 3878.69L204.531 3905.15C197.105 3907.96 196.574 3905.15 191.8 3894.51C187.981 3886 193.392 3882.55 196.574 3881.88L269.643 3855.29C278.66 3854.76 279.721 3857.95 281.843 3866.99C283.54 3874.23 277.599 3877.81 274.417 3878.69Z" stroke="#7C5939"/>
<g filter="url(#filter0_d)">
<circle cx="1192.5" cy="235.934" r="125.5" fill="#EEEEEE" fill-opacity="0.5"/>
</g>
<path d="M1139.15 180.065L1138.06 181.221C1138.92 181.524 1139.83 181.68 1140.74 181.683C1142.05 181.696 1143.35 181.404 1144.53 180.831C1145.71 180.258 1146.74 179.419 1147.54 178.381V178.381C1148.4 177.235 1148.95 175.892 1149.14 174.476C1149.34 173.06 1149.17 171.618 1148.66 170.284C1148.14 168.951 1147.3 167.769 1146.2 166.85C1145.11 165.931 1143.8 165.305 1142.39 165.029C1140.99 164.754 1139.54 164.838 1138.18 165.275C1136.82 165.711 1135.59 166.486 1134.61 167.526C1133.63 168.566 1132.93 169.838 1132.57 171.222C1132.22 172.606 1132.22 174.058 1132.58 175.442L1133.4 174.55L1139.15 180.065ZM1138.19 171.347C1138.49 170.956 1138.88 170.637 1139.32 170.414C1139.76 170.192 1140.24 170.07 1140.74 170.059C1141.42 170.054 1142.08 170.275 1142.62 170.686C1143.17 171.06 1143.59 171.59 1143.84 172.208C1144.08 172.827 1144.13 173.504 1143.99 174.153C1143.84 174.801 1143.5 175.389 1143.01 175.841C1142.52 176.293 1141.91 176.587 1141.25 176.685C1140.6 176.783 1139.92 176.681 1139.32 176.391C1138.73 176.101 1138.23 175.637 1137.9 175.061C1137.57 174.484 1137.42 173.821 1137.47 173.158C1137.52 172.496 1137.78 171.864 1138.19 171.347Z" fill="white"/>
<path d="M1172.62 151.236H1172.88C1172.62 151.005 1172.35 150.708 1172.05 150.477C1170.25 149.152 1167.99 148.594 1165.78 148.925C1164.68 149.081 1163.62 149.454 1162.67 150.021C1161.72 150.587 1160.89 151.337 1160.23 152.227C1159.3 153.469 1158.72 154.945 1158.58 156.49C1158.43 158.036 1158.72 159.592 1159.4 160.987C1160.09 162.381 1161.14 163.559 1162.45 164.391C1163.77 165.223 1165.28 165.676 1166.83 165.7H1168.12C1169.22 165.543 1170.27 165.17 1171.21 164.603C1172.16 164.036 1172.99 163.286 1173.64 162.398V162.398C1174.36 161.417 1174.86 160.289 1175.09 159.096H1174.6L1172.62 151.236ZM1169.58 159.096C1169.07 159.763 1168.32 160.212 1167.5 160.35C1166.89 160.385 1166.29 160.254 1165.76 159.971C1165.23 159.689 1164.78 159.267 1164.47 158.75C1164.16 158.233 1164 157.641 1164 157.038C1164.01 156.436 1164.17 155.845 1164.49 155.331C1165 154.664 1165.74 154.215 1166.57 154.076H1167.03C1167.71 154.087 1168.37 154.306 1168.92 154.704C1169.55 155.222 1169.97 155.96 1170.1 156.772C1170.22 157.584 1170.03 158.412 1169.58 159.096V159.096Z" fill="white"/>
<path d="M1135.35 306.871C1136.6 307.797 1138.09 308.358 1139.64 308.492C1141.19 308.626 1142.75 308.328 1144.14 307.63C1143.74 307.366 1143.31 307.102 1142.95 306.805L1147.81 300.398L1148.73 301.059C1148.85 300.315 1148.85 299.557 1148.73 298.813C1148.57 297.714 1148.19 296.659 1147.62 295.706C1147.05 294.754 1146.3 293.924 1145.4 293.264C1144.51 292.604 1143.49 292.127 1142.41 291.861C1141.34 291.595 1140.22 291.545 1139.12 291.713C1136.91 292.056 1134.92 293.257 1133.59 295.057C1132.26 296.857 1131.69 299.109 1132.02 301.323C1132.18 302.421 1132.56 303.477 1133.13 304.429C1133.7 305.381 1134.46 306.21 1135.35 306.871ZM1137.83 298.186C1138.34 297.518 1139.08 297.07 1139.91 296.931H1140.31C1140.98 296.942 1141.64 297.161 1142.19 297.558C1142.84 298.078 1143.26 298.822 1143.38 299.642C1143.51 300.462 1143.32 301.297 1142.85 301.983C1142.33 302.629 1141.59 303.055 1140.77 303.177C1139.95 303.299 1139.11 303.109 1138.42 302.644C1137.76 302.135 1137.31 301.391 1137.17 300.563C1137.07 299.715 1137.31 298.863 1137.83 298.186Z" fill="white"/>
<path d="M1183.98 205.723L1181.93 206.648C1183.24 207.455 1184.75 207.878 1186.29 207.87C1188.04 207.88 1189.74 207.351 1191.17 206.356C1192.6 205.36 1193.69 203.947 1194.29 202.309C1194.88 200.671 1194.96 198.889 1194.5 197.207C1194.05 195.524 1193.08 194.024 1191.74 192.91C1190.02 191.465 1187.8 190.753 1185.56 190.929C1183.43 191.106 1181.44 192.094 1180.01 193.691C1178.58 195.287 1177.81 197.372 1177.87 199.515C1178.89 199.02 1179.92 198.557 1180.97 198.128L1183.98 205.723ZM1183.98 197.401C1184.24 197.076 1184.57 196.808 1184.93 196.614C1185.3 196.421 1185.71 196.307 1186.13 196.279H1186.39C1187.12 196.29 1187.83 196.546 1188.41 197.005C1188.94 197.408 1189.33 197.962 1189.55 198.594C1189.76 199.226 1189.77 199.908 1189.59 200.548C1189.4 201.189 1189.03 201.759 1188.51 202.183C1188 202.608 1187.37 202.867 1186.71 202.926C1186.04 202.986 1185.37 202.843 1184.79 202.516C1184.21 202.19 1183.74 201.696 1183.45 201.098C1183.15 200.5 1183.05 199.827 1183.14 199.167C1183.24 198.508 1183.53 197.892 1183.98 197.401V197.401Z" fill="white"/>
<path d="M1174.83 295.28C1175.1 294.345 1175.03 293.343 1174.61 292.461C1174.2 291.579 1173.48 290.879 1172.58 290.492C1163.48 286.487 1155.53 280.265 1149.46 272.395L1146.15 274.773L1141.4 268.168L1144.93 265.593C1137.85 253.297 1135.43 238.869 1138.1 224.936C1140.77 211.003 1148.36 198.493 1159.48 189.685C1170.61 180.877 1184.53 176.357 1198.71 176.949C1212.89 177.541 1226.38 183.206 1236.74 192.91L1238.22 194.297C1240.19 194.208 1242.15 194.296 1244.1 194.562C1246.53 194.95 1248.89 195.684 1251.11 196.741C1248.43 193.14 1245.4 189.821 1242.05 186.834C1232.44 177.973 1220.45 172.106 1207.55 169.953C1194.65 167.799 1181.4 169.451 1169.42 174.707C1157.45 179.964 1147.27 188.596 1140.12 199.547C1132.98 210.499 1129.19 223.294 1129.21 236.368C1129.25 240.336 1129.65 244.293 1130.4 248.19L1133.7 247.1L1136.21 254.761L1132.21 256.049C1134.85 264.719 1139.22 272.766 1145.05 279.706C1150.88 286.647 1158.05 292.337 1166.14 296.436L1162.44 309.215C1164.92 310.371 1167.4 311.395 1169.94 312.286L1174.83 295.28Z" fill="white"/>
<path d="M1266.73 239.538C1263.69 261.56 1252.08 281.493 1234.42 295.016C1226.96 300.035 1209.68 307.102 1198.78 299.11C1195.09 296.434 1192.16 292.851 1190.27 288.708C1188.37 284.566 1187.59 280.004 1187.98 275.466C1188.39 270.827 1189.78 266.328 1192.06 262.264C1194.34 258.201 1197.45 254.665 1201.19 251.888C1216.98 239.472 1215.96 230.49 1215.99 226.824C1215.99 219.626 1220.75 196.609 1241.26 197.732C1240.07 196.378 1239.05 195.354 1238.26 194.595C1233.11 194.818 1228.18 196.773 1224.28 200.142C1215 207.936 1212.98 221.904 1212.98 226.626V227.353C1212.98 230.985 1212.98 238.547 1199.34 249.313C1195.28 252.356 1191.9 256.224 1189.43 260.663C1186.97 265.102 1185.47 270.012 1185.04 275.07C1184.57 280.139 1185.43 285.243 1187.54 289.877C1189.65 294.51 1192.93 298.513 1197.06 301.488C1201.15 304.345 1206.05 305.804 1211.03 305.649C1219.98 305.31 1228.65 302.51 1236.11 297.558C1254.47 283.492 1266.56 262.77 1269.77 239.868C1272.55 215.366 1261.78 201.926 1251.11 196.939C1252.64 198.971 1254.07 201.088 1255.37 203.279C1262.77 209.422 1268.85 220.748 1266.73 239.538Z" fill="white"/>
<path d="M1238.22 194.429C1239.02 195.189 1240.04 196.213 1241.23 197.567C1242.02 197.567 1242.81 197.567 1243.67 197.732C1247.99 198.473 1252.03 200.367 1255.37 203.213C1254.07 201.022 1252.64 198.905 1251.11 196.873C1248.89 195.817 1246.53 195.083 1244.1 194.694C1242.15 194.428 1240.19 194.34 1238.22 194.429V194.429Z" fill="white"/>
<path d="M1215.96 226.659C1215.96 230.325 1216.95 239.307 1201.16 251.723C1197.42 254.5 1194.3 258.036 1192.03 262.099C1189.75 266.163 1188.36 270.662 1187.94 275.301C1187.52 279.866 1188.3 284.461 1190.19 288.635C1192.09 292.81 1195.03 296.42 1198.75 299.11C1209.65 307.102 1226.92 300.035 1234.39 295.016C1252.04 281.493 1263.65 261.56 1266.7 239.538C1268.81 220.748 1262.73 209.323 1255.33 203.213C1257.61 207.034 1259.45 211.1 1260.82 215.333C1263.9 222.866 1264.9 231.091 1263.69 239.142C1260.78 260.277 1249.69 279.427 1232.81 292.473C1225.21 297.591 1209.68 303.271 1200.7 296.634C1197.42 294.291 1194.81 291.133 1193.13 287.472C1191.45 283.811 1190.75 279.775 1191.12 275.764V275.466C1191.48 271.266 1192.74 267.192 1194.8 263.514C1196.86 259.836 1199.68 256.638 1203.07 254.134C1219.16 241.486 1219.1 231.547 1219.06 227.287V226.659C1219.06 222.994 1220.81 211.04 1228.28 204.633C1231.48 201.889 1235.59 200.43 1239.81 200.539C1240.91 200.543 1242.02 200.62 1243.11 200.77L1243.87 200.935C1242.91 199.68 1241.96 198.557 1241.1 197.633C1220.71 196.444 1215.99 219.328 1215.96 226.659Z" fill="white"/>
<path d="M1260.85 215.333C1259.49 211.1 1257.65 207.034 1255.37 203.213C1252.03 200.367 1247.99 198.473 1243.67 197.732C1242.81 197.732 1242.02 197.732 1241.23 197.567C1242.09 198.557 1243.05 199.68 1244 200.869C1247.76 201.764 1251.25 203.543 1254.18 206.059C1257.11 208.575 1259.4 211.755 1260.85 215.333V215.333Z" fill="white"/>
<path d="M1117.65 252.351C1115.1 239.732 1115.62 226.686 1119.18 214.313C1122.73 201.939 1129.21 190.601 1138.06 181.254C1137.22 180.985 1136.43 180.584 1135.72 180.065C1134.15 178.904 1133.04 177.234 1132.58 175.343C1122.16 186.203 1114.69 199.546 1110.87 214.105C1107.06 228.664 1107.04 243.955 1110.81 258.526C1110.94 259.059 1111.18 259.56 1111.51 259.996C1111.85 260.432 1112.27 260.795 1112.75 261.061C1113.23 261.328 1113.76 261.492 1114.31 261.545C1114.85 261.597 1115.41 261.536 1115.93 261.366L1132.18 256.082C1131.41 253.493 1130.82 250.857 1130.4 248.19L1117.65 252.351Z" fill="white"/>
<path d="M1135.72 180.032C1136.43 180.551 1137.22 180.952 1138.06 181.221L1139.15 180.065L1133.4 174.418L1132.58 175.31C1133.04 177.201 1134.15 178.871 1135.72 180.032V180.032Z" fill="white"/>
<path d="M1133.7 247.1L1130.4 248.19C1130.85 250.848 1131.48 253.473 1132.28 256.049L1136.28 254.761L1133.7 247.1Z" fill="white"/>
<path d="M1147.18 305.187C1146.39 306.268 1145.34 307.141 1144.14 307.729C1159.27 318.967 1177.62 325.024 1196.47 325C1208.09 325 1219.61 322.711 1230.35 318.263C1241.09 313.816 1250.85 307.297 1259.07 299.079C1267.29 290.861 1273.81 281.105 1278.26 270.367C1282.71 259.63 1285 248.122 1285 236.5C1285 224.878 1282.71 213.37 1278.26 202.632C1273.81 191.895 1267.29 182.139 1259.07 173.921C1250.85 165.703 1241.09 159.184 1230.35 154.737C1219.61 150.289 1208.09 148 1196.47 148C1188.49 148.052 1180.56 149.162 1172.88 151.302C1173.9 152.282 1174.66 153.505 1175.08 154.856C1175.5 156.207 1175.57 157.643 1175.29 159.029C1187.45 155.677 1200.22 155.231 1212.58 157.728C1224.95 160.225 1236.55 165.594 1246.45 173.402C1256.35 181.21 1264.27 191.237 1269.58 202.673C1274.88 214.109 1277.42 226.632 1276.99 239.231C1276.56 251.83 1273.17 264.15 1267.09 275.196C1261.02 286.242 1252.42 295.703 1242.01 302.815C1231.6 309.928 1219.66 314.491 1207.16 316.136C1194.65 317.781 1181.94 316.463 1170.04 312.286L1169.01 315.886L1161.28 313.673L1162.54 309.215C1157.72 306.943 1153.13 304.212 1148.83 301.059C1148.67 302.561 1148.1 303.989 1147.18 305.187V305.187Z" fill="white"/>
<path d="M1172.88 151.17H1172.62L1174.8 158.93H1175.29C1175.58 157.539 1175.51 156.096 1175.09 154.739C1174.67 153.381 1173.91 152.153 1172.88 151.17V151.17Z" fill="white"/>
<path d="M1142.95 306.805C1143.31 307.102 1143.74 307.366 1144.14 307.63C1145.34 307.042 1146.39 306.169 1147.18 305.087V305.087C1148.05 303.908 1148.58 302.516 1148.73 301.059L1147.81 300.398L1142.95 306.805Z" fill="white"/>
<path d="M1168.92 315.886L1170.04 312.286C1167.49 311.395 1165.02 310.371 1162.54 309.215L1161.28 313.673L1168.92 315.886Z" fill="white"/>
<path d="M1167.07 259.748C1167.88 259.145 1168.44 258.258 1168.64 257.262C1168.84 256.265 1168.65 255.232 1168.12 254.365C1165.63 250.392 1164.01 245.938 1163.36 241.295C1162.71 236.651 1163.05 231.923 1164.35 227.42C1165.65 222.916 1167.89 218.738 1170.92 215.158C1173.95 211.579 1177.7 208.679 1181.93 206.648C1181.54 206.433 1181.18 206.178 1180.84 205.888C1179.93 205.117 1179.2 204.163 1178.68 203.087C1178.17 202.011 1177.89 200.838 1177.87 199.647C1172.99 202.083 1168.64 205.46 1165.07 209.583C1161.5 213.706 1158.78 218.493 1157.06 223.67C1155.35 228.847 1154.68 234.312 1155.09 239.749C1155.49 245.187 1156.97 250.491 1159.43 255.356L1145.1 265.791C1146.44 268.085 1147.93 270.291 1149.56 272.395L1167.07 259.748Z" fill="white"/>
<path d="M1180.84 205.888C1181.18 206.178 1181.54 206.433 1181.93 206.648L1183.98 205.723L1180.97 198.26C1179.92 198.689 1178.89 199.152 1177.87 199.647C1177.89 200.838 1178.17 202.011 1178.68 203.087C1179.2 204.163 1179.93 205.117 1180.84 205.888V205.888Z" fill="white"/>
<path d="M1146.32 274.872L1149.62 272.494C1148 270.39 1146.51 268.184 1145.16 265.89L1141.63 268.466L1146.32 274.872Z" fill="white"/>
<path d="M1243.44 198.689C1253.81 200.175 1269.54 211.733 1266.33 240.165C1263.34 262.04 1251.82 281.847 1234.29 295.28C1226.89 300.266 1209.71 307.3 1198.91 299.342C1195.23 296.677 1192.3 293.098 1190.42 288.957C1188.55 284.816 1187.78 280.257 1188.21 275.731C1188.62 271.114 1190.01 266.639 1192.29 262.602C1194.57 258.565 1197.68 255.059 1201.42 252.318C1217.11 240.033 1216.09 231.084 1216.12 227.452C1215.99 219.989 1220.98 195.486 1243.44 198.689Z" fill="white"/>
</g>
<defs>
<filter id="filter0_d" x="1017" y="60.4343" width="351" height="351" filterUnits="userSpaceOnUse" color-interpolation-filters="sRGB">
<feFlood flood-opacity="0" result="BackgroundImageFix"/>
<feColorMatrix in="SourceAlpha" type="matrix" values="0 0 0 0 0 0 0 0 0 0 0 0 0 0 0 0 0 0 127 0"/>
<feOffset/>
<feGaussianBlur stdDeviation="25"/>
<feColorMatrix type="matrix" values="0 0 0 0 0.933333 0 0 0 0 0.933333 0 0 0 0 0.933333 0 0 0 0.75 0"/>
<feBlend mode="normal" in2="BackgroundImageFix" result="effect1_dropShadow"/>
<feBlend mode="normal" in="SourceGraphic" in2="effect1_dropShadow" result="shape"/>
</filter>
<linearGradient id="paint0_linear" x1="717" y1="648" x2="717" y2="3963" gradientUnits="userSpaceOnUse">
<stop offset="0.169063" stop-color="#17331B"/>
<stop offset="1" stop-color="#1E8A50"/>
</linearGradient>
<radialGradient id="paint1_radial" cx="0" cy="0" r="1" gradientUnits="userSpaceOnUse" gradientTransform="translate(1394.5 -485.493) rotate(119.734) scale(1260.16 3728.72)">
<stop stop-color="#E4FAFF" stop-opacity="0.62"/>
<stop offset="0.877582" stop-color="#1B365D" stop-opacity="0.94"/>
</radialGradient>
<linearGradient id="paint2_linear" x1="1230.94" y1="-499.07" x2="680.319" y2="856.741" gradientUnits="userSpaceOnUse">
<stop offset="0.229167" stop-color="#234065" stop-opacity="0.87"/>
<stop offset="1" stop-color="#A1D6E4" stop-opacity="0.1"/>
</linearGradient>
<clipPath id="clip0">
<rect width="1440" height="3963" fill="white"/>
</clipPath>
</defs>
</svg>
