<svg width="351" height="359" viewBox="0 0 351 359" fill="none" xmlns="http://www.w3.org/2000/svg">
<g filter="url(#filter0_d)">
<ellipse cx="175.5" cy="179.381" rx="125.5" ry="128.946" fill="#EEEEEE" fill-opacity="0.5"/>
</g>
<path d="M120.326 122.423L119.23 123.611C120.095 123.922 121.004 124.083 121.921 124.086C123.241 124.099 124.546 123.799 125.733 123.211C126.921 122.622 127.958 121.76 128.765 120.693V120.693C129.625 119.516 130.179 118.136 130.374 116.681C130.57 115.226 130.402 113.744 129.885 112.374C129.368 111.004 128.519 109.79 127.418 108.846C126.317 107.901 124.999 107.258 123.589 106.975C122.178 106.691 120.72 106.778 119.351 107.227C117.982 107.676 116.746 108.471 115.76 109.54C114.774 110.609 114.069 111.915 113.712 113.337C113.354 114.76 113.355 116.251 113.715 117.673L114.546 116.757L120.326 122.423ZM119.363 113.466C119.666 113.064 120.052 112.737 120.495 112.508C120.938 112.279 121.425 112.154 121.921 112.143C122.605 112.138 123.271 112.364 123.815 112.787C124.368 113.171 124.795 113.716 125.04 114.351C125.286 114.986 125.337 115.683 125.189 116.348C125.04 117.014 124.698 117.619 124.208 118.083C123.718 118.548 123.101 118.85 122.44 118.951C121.779 119.052 121.103 118.946 120.501 118.648C119.899 118.351 119.4 117.874 119.067 117.282C118.735 116.689 118.585 116.008 118.638 115.327C118.691 114.646 118.943 113.997 119.363 113.466Z" fill="white"/>
<path d="M153.98 92.8029H154.246C153.98 92.5653 153.714 92.26 153.415 92.0225C151.599 90.6614 149.331 90.0883 147.103 90.4278C145.999 90.5888 144.938 90.9715 143.98 91.5539C143.022 92.1362 142.186 92.9067 141.522 93.8207C140.584 95.0969 140.011 96.613 139.864 98.2014C139.717 99.7898 140.004 101.389 140.691 102.821C141.379 104.254 142.441 105.464 143.76 106.319C145.079 107.173 146.604 107.639 148.166 107.664H149.462C150.56 107.502 151.617 107.119 152.569 106.537C153.522 105.954 154.351 105.184 155.01 104.271V104.271C155.734 103.263 156.233 102.105 156.471 100.878H155.973L153.98 92.8029ZM150.923 100.878C150.412 101.564 149.663 102.025 148.83 102.167C148.225 102.203 147.622 102.068 147.086 101.778C146.551 101.488 146.103 101.054 145.791 100.523C145.48 99.9915 145.317 99.3833 145.32 98.7641C145.322 98.1449 145.491 97.5384 145.807 97.0101C146.319 96.3243 147.068 95.8633 147.9 95.7208H148.365C149.046 95.7323 149.707 95.9574 150.259 96.3654C150.899 96.8986 151.322 97.6562 151.445 98.4906C151.568 99.3249 151.382 100.176 150.923 100.878V100.878Z" fill="white"/>
<path d="M116.506 252.711C117.764 253.663 119.257 254.239 120.816 254.377C122.376 254.515 123.943 254.208 125.343 253.492C124.944 253.22 124.512 252.949 124.147 252.643L129.03 246.061L129.961 246.74C130.077 245.975 130.077 245.197 129.961 244.433C129.798 243.304 129.419 242.219 128.845 241.24C128.27 240.262 127.512 239.409 126.613 238.731C125.715 238.053 124.694 237.563 123.609 237.29C122.524 237.016 121.397 236.965 120.293 237.138C118.069 237.49 116.07 238.724 114.733 240.573C113.395 242.422 112.826 244.736 113.151 247.011C113.316 248.14 113.697 249.224 114.273 250.202C114.849 251.18 115.607 252.033 116.506 252.711ZM118.998 243.788C119.509 243.102 120.258 242.641 121.091 242.499H121.489C122.17 242.51 122.831 242.735 123.383 243.143C124.032 243.678 124.461 244.442 124.584 245.284C124.707 246.126 124.515 246.985 124.047 247.69C123.524 248.353 122.776 248.791 121.951 248.916C121.126 249.042 120.286 248.846 119.596 248.368C118.924 247.846 118.473 247.081 118.333 246.231C118.237 245.359 118.475 244.484 118.998 243.788Z" fill="white"/>
<path d="M165.408 148.786L163.348 149.736C164.666 150.565 166.185 151 167.733 150.991C169.487 151.002 171.201 150.459 172.64 149.436C174.08 148.413 175.175 146.961 175.775 145.278C176.375 143.596 176.451 141.764 175.993 140.036C175.535 138.307 174.564 136.765 173.215 135.622C171.486 134.136 169.255 133.405 167.002 133.586C164.853 133.767 162.853 134.782 161.413 136.423C159.973 138.064 159.204 140.205 159.262 142.407C160.292 141.898 161.322 141.423 162.385 140.982L165.408 148.786ZM165.408 140.236C165.67 139.901 165.997 139.626 166.369 139.427C166.74 139.228 167.149 139.111 167.567 139.082H167.833C168.571 139.094 169.284 139.357 169.86 139.829C170.394 140.242 170.793 140.811 171.005 141.461C171.217 142.111 171.231 142.811 171.046 143.469C170.861 144.127 170.485 144.713 169.968 145.149C169.451 145.585 168.817 145.851 168.149 145.912C167.481 145.973 166.811 145.827 166.226 145.491C165.642 145.156 165.17 144.648 164.874 144.034C164.577 143.42 164.469 142.728 164.565 142.05C164.66 141.372 164.954 140.74 165.408 140.236V140.236Z" fill="white"/>
<path d="M156.206 240.802C156.481 239.842 156.404 238.812 155.988 237.906C155.572 237 154.846 236.28 153.947 235.882C144.795 231.768 136.8 225.375 130.692 217.289L127.37 219.732L122.586 212.946L126.141 210.3C119.021 197.667 116.583 182.842 119.269 168.526C121.955 154.211 129.588 141.357 140.776 132.307C151.964 123.257 165.963 118.614 180.222 119.222C194.482 119.83 208.053 125.65 218.463 135.622L219.958 137.047C221.933 136.954 223.912 137.045 225.871 137.318C228.312 137.718 230.683 138.472 232.914 139.557C230.226 135.858 227.176 132.447 223.812 129.379C214.142 120.274 202.082 114.246 189.109 112.033C176.137 109.82 162.814 111.518 150.771 116.919C138.729 122.319 128.489 131.189 121.306 142.441C114.123 153.693 110.308 166.84 110.327 180.272C110.368 184.35 110.768 188.415 111.523 192.419L114.845 191.299L117.37 199.171L113.35 200.494C116.005 209.402 120.396 217.67 126.26 224.801C132.123 231.932 139.337 237.779 147.469 241.99L143.748 255.12C146.24 256.308 148.731 257.36 151.289 258.276L156.206 240.802Z" fill="white"/>
<path d="M248.628 183.53C245.564 206.156 233.89 226.637 216.137 240.531C208.629 245.688 191.254 252.949 180.291 244.738C176.584 241.988 173.635 238.307 171.732 234.05C169.828 229.794 169.035 225.107 169.428 220.445C169.845 215.678 171.244 211.055 173.535 206.88C175.825 202.705 178.954 199.072 182.717 196.219C198.596 183.462 197.567 174.233 197.6 170.467C197.6 163.07 202.384 139.422 223.014 140.575C221.818 139.184 220.788 138.132 219.991 137.352C214.812 137.582 209.861 139.59 205.938 143.052C196.603 151.059 194.577 165.411 194.577 170.263V171.01C194.577 174.742 194.577 182.512 180.856 193.573C176.768 196.7 173.373 200.674 170.894 205.235C168.415 209.796 166.908 214.84 166.471 220.037C165.998 225.246 166.864 230.49 168.985 235.251C171.106 240.012 174.408 244.124 178.564 247.181C182.674 250.116 187.604 251.616 192.617 251.456C201.61 251.108 210.336 248.231 217.832 243.143C236.298 228.691 248.458 207.4 251.684 183.869C254.475 158.693 243.645 144.884 232.914 139.761C234.461 141.849 235.892 144.024 237.2 146.275C244.641 152.586 250.754 164.224 248.628 183.53Z" fill="white"/>
<path d="M219.958 137.182C220.755 137.963 221.785 139.014 222.981 140.406C223.778 140.406 224.576 140.406 225.44 140.575C229.785 141.337 233.848 143.283 237.2 146.207C235.892 143.956 234.461 141.781 232.914 139.693C230.683 138.607 228.312 137.853 225.871 137.454C223.912 137.181 221.933 137.09 219.958 137.182V137.182Z" fill="white"/>
<path d="M197.566 170.297C197.566 174.063 198.563 183.292 182.683 196.049C178.921 198.902 175.792 202.535 173.501 206.71C171.211 210.885 169.812 215.508 169.395 220.275C168.972 224.965 169.751 229.686 171.656 233.975C173.56 238.264 176.525 241.973 180.258 244.738C191.221 252.949 208.596 245.688 216.104 240.531C233.857 226.637 245.531 206.156 248.595 183.53C250.721 164.224 244.608 152.484 237.166 146.207C239.457 150.133 241.307 154.31 242.681 158.659C245.783 166.399 246.782 174.851 245.571 183.122C242.645 204.838 231.492 224.514 214.509 237.918C206.868 243.177 191.254 249.013 182.218 242.193C178.922 239.786 176.3 236.541 174.61 232.78C172.92 229.019 172.221 224.872 172.584 220.75V220.445C172.952 216.129 174.214 211.943 176.288 208.164C178.361 204.385 181.198 201.1 184.61 198.526C200.789 185.531 200.723 175.319 200.689 170.942V170.297C200.689 166.531 202.45 154.249 209.958 147.666C213.18 144.847 217.311 143.348 221.552 143.459C222.664 143.464 223.773 143.543 224.875 143.697L225.639 143.866C224.675 142.577 223.712 141.423 222.848 140.473C202.35 139.252 197.6 162.765 197.566 170.297Z" fill="white"/>
<path d="M242.715 158.659C241.341 154.31 239.491 150.133 237.2 146.207C233.848 143.283 229.784 141.337 225.439 140.575C224.576 140.575 223.778 140.575 222.981 140.406C223.845 141.423 224.808 142.577 225.772 143.798C229.551 144.718 233.06 146.547 236.007 149.131C238.954 151.716 241.254 154.983 242.715 158.659V158.659Z" fill="white"/>
<path d="M98.6995 196.694C96.1387 183.729 96.6671 170.325 100.24 157.612C103.813 144.898 110.326 133.249 119.23 123.645C118.385 123.369 117.589 122.956 116.872 122.423C115.298 121.231 114.182 119.515 113.716 117.571C103.235 128.73 95.7225 142.44 91.8907 157.398C88.059 172.357 88.0355 188.068 91.8227 203.039C91.9553 203.587 92.1971 204.101 92.533 204.549C92.8688 204.997 93.2916 205.37 93.7748 205.644C94.2581 205.918 94.7914 206.087 95.3415 206.141C95.8916 206.194 96.4467 206.132 96.972 205.957L113.317 200.528C112.547 197.868 111.947 195.159 111.523 192.419L98.6995 196.694Z" fill="white"/>
<path d="M116.872 122.389C117.589 122.922 118.386 123.335 119.231 123.611L120.327 122.423L114.546 116.621L113.716 117.537C114.182 119.481 115.298 121.197 116.872 122.389V122.389Z" fill="white"/>
<path d="M114.845 191.299L111.523 192.419C111.981 195.15 112.614 197.847 113.417 200.494L117.436 199.171L114.845 191.299Z" fill="white"/>
<path d="M128.4 250.981C127.604 252.092 126.555 252.989 125.343 253.593C140.556 265.14 159.012 271.363 177.966 271.338C189.658 271.338 201.236 268.986 212.038 264.417C222.84 259.847 232.655 253.149 240.922 244.706C249.19 236.262 255.748 226.238 260.222 215.206C264.697 204.173 267 192.349 267 180.408C267 168.467 264.697 156.643 260.222 145.611C255.748 134.578 249.19 124.554 240.922 116.111C232.655 107.667 222.84 100.969 212.038 96.3994C201.236 91.8298 189.658 89.4778 177.966 89.4778C169.947 89.5308 161.971 90.6718 154.246 92.8707C155.273 93.8776 156.034 95.1337 156.458 96.5219C156.882 97.9101 156.956 99.3853 156.671 100.81C168.897 97.3657 181.744 96.9076 194.175 99.473C206.606 102.038 218.271 107.555 228.228 115.577C238.185 123.6 246.153 133.902 251.49 145.652C256.826 157.402 259.381 170.269 258.946 183.214C258.512 196.159 255.102 208.817 248.99 220.167C242.879 231.516 234.239 241.237 223.768 248.545C213.297 255.852 201.289 260.541 188.715 262.231C176.142 263.922 163.355 262.567 151.389 258.276L150.359 261.974L142.585 259.701L143.848 255.12C138.999 252.786 134.382 249.98 130.061 246.74C129.901 248.283 129.326 249.751 128.4 250.981V250.981Z" fill="white"/>
<path d="M154.246 92.735H153.98L156.173 100.708H156.671C156.961 99.2783 156.891 97.7964 156.467 96.4017C156.043 95.007 155.278 93.7453 154.246 92.735V92.735Z" fill="white"/>
<path d="M124.147 252.643C124.513 252.949 124.945 253.22 125.343 253.492C126.555 252.887 127.604 251.99 128.4 250.879V250.879C129.273 249.667 129.813 248.237 129.961 246.74L129.031 246.061L124.147 252.643Z" fill="white"/>
<path d="M150.259 261.974L151.389 258.276C148.831 257.36 146.339 256.308 143.847 255.12L142.585 259.701L150.259 261.974Z" fill="white"/>
<path d="M148.398 204.294C149.22 203.675 149.785 202.764 149.982 201.74C150.179 200.716 149.993 199.655 149.462 198.764C146.958 194.681 145.326 190.105 144.672 185.334C144.019 180.564 144.359 175.706 145.669 171.078C146.98 166.451 149.232 162.158 152.279 158.48C155.325 154.803 159.097 151.823 163.348 149.736C162.957 149.515 162.59 149.254 162.252 148.956C161.338 148.164 160.598 147.183 160.083 146.077C159.567 144.972 159.288 143.767 159.262 142.543C154.354 145.046 149.979 148.516 146.389 152.752C142.798 156.988 140.063 161.907 138.341 167.226C136.618 172.545 135.942 178.16 136.351 183.747C136.76 189.334 138.246 194.783 140.724 199.782L126.306 210.503C127.657 212.861 129.155 215.128 130.791 217.289L148.398 204.294Z" fill="white"/>
<path d="M162.252 148.956C162.59 149.254 162.958 149.515 163.348 149.736L165.408 148.786L162.385 141.118C161.322 141.559 160.292 142.034 159.262 142.543C159.288 143.767 159.568 144.972 160.083 146.077C160.599 147.183 161.338 148.164 162.252 148.956V148.956Z" fill="white"/>
<path d="M127.536 219.834L130.858 217.391C129.222 215.229 127.724 212.963 126.373 210.605L122.818 213.252L127.536 219.834Z" fill="white"/>
<path d="M225.207 141.559C235.638 143.086 251.452 154.961 248.229 184.174C245.213 206.65 233.632 227 216.004 240.802C208.563 245.925 191.287 253.152 180.424 244.975C176.718 242.238 173.776 238.56 171.888 234.306C170 230.051 169.232 225.367 169.66 220.716C170.077 215.973 171.478 211.375 173.769 207.227C176.06 203.079 179.189 199.477 182.949 196.66C198.729 184.039 197.699 174.844 197.732 171.112C197.6 163.444 202.616 138.268 225.207 141.559Z" fill="white"/>
<defs>
<filter id="filter0_d" x="-0.000488281" y="0.434326" width="351" height="357.893" filterUnits="userSpaceOnUse" color-interpolation-filters="sRGB">
<feFlood flood-opacity="0" result="BackgroundImageFix"/>
<feColorMatrix in="SourceAlpha" type="matrix" values="0 0 0 0 0 0 0 0 0 0 0 0 0 0 0 0 0 0 127 0"/>
<feOffset/>
<feGaussianBlur stdDeviation="25"/>
<feColorMatrix type="matrix" values="0 0 0 0 0.933333 0 0 0 0 0.933333 0 0 0 0 0.933333 0 0 0 0.75 0"/>
<feBlend mode="normal" in2="BackgroundImageFix" result="effect1_dropShadow"/>
<feBlend mode="normal" in="SourceGraphic" in2="effect1_dropShadow" result="shape"/>
</filter>
</defs>
</svg>
