<svg width="1440" height="3675" viewBox="0 0 1440 3675" fill="none" xmlns="http://www.w3.org/2000/svg">
<path d="M886.593 550.156C526.86 524.188 131.642 717.045 -21 816.72V3675H1455V0.796875C1415.42 194.736 1246.33 576.123 886.593 550.156Z" fill="url(#paint0_linear)"/>
<path fill-rule="evenodd" clip-rule="evenodd" d="M266.397 1481.47C145.77 1380.59 0.185169 1301.76 -95.5471 1261.07L-7.98546 1045.41C103.199 1092.67 269.162 1182.2 410.698 1300.57C546.899 1414.48 688.227 1578.26 694.636 1777.51C701.253 1983.24 617.186 2107.27 553.972 2200.54C547.741 2209.73 541.712 2218.63 535.992 2227.27C503.983 2275.65 482.042 2314.39 470.427 2359.38C459.237 2402.73 455.624 2460.4 475.619 2546.2C507.323 2682.25 571.483 2765.85 662.516 2820.08C758.718 2877.39 894.909 2907.7 1077.98 2912.03C1275.34 2916.69 1427.14 2941.47 1537.14 2986.7C1648.11 3032.33 1732.8 3106.54 1758.08 3216.17L1536.2 3270.06C1534.26 3261.62 1524.47 3233.17 1452.03 3203.39C1378.63 3173.21 1258.1 3149.84 1072.51 3145.45C872.648 3140.73 691.904 3107.81 547.746 3021.93C398.42 2932.97 298.796 2793.43 253.861 2600.61C226.555 2483.43 227.753 2386.17 250.019 2299.91C271.86 2215.29 312.02 2149.74 347.292 2096.43C353.411 2087.18 359.398 2078.24 365.227 2069.53C426.865 1977.5 470.842 1911.83 466.776 1785.42C463.808 1693.17 392.359 1586.81 266.397 1481.47Z" fill="#392512" fill-opacity="0.64"/>
<path d="M15.8633 1159.35C22.0671 1157.93 30.2712 1162.2 33.5979 1164.52C29.1242 1168.09 26.516 1178.42 25.7711 1183.13C20.8884 1182.08 10.6688 1178.96 8.85286 1174.87C6.58294 1169.75 8.10854 1161.13 15.8633 1159.35Z" fill="#7C5939"/>
<path d="M33.5376 1187.77C40.6423 1184.54 44.4228 1174.65 45.4249 1170.1C64.5697 1174.9 71.917 1185.03 73.9948 1193.37C75.4343 1199.15 72.25 1205.5 66.4568 1206.8C54.0307 1209.6 39.9852 1196.3 33.5376 1187.77Z" fill="#7C5939"/>
<path d="M10.9886 1244.21C13.8554 1249.89 22.3 1253.34 26.164 1254.35C26.0267 1248.55 32.177 1239.71 35.2692 1236.01C31.3724 1232.98 22.5164 1227.23 18.2676 1228.56C12.9566 1230.21 7.40511 1237.1 10.9886 1244.21Z" fill="#7C5939"/>
<path d="M43.7153 1238.88C45.789 1246.45 40.7037 1255.91 37.9018 1259.69C53.8193 1271.23 66.215 1270.03 73.8303 1266.02C78.9932 1263.3 81.7176 1256.81 79.0729 1251.52C73.3472 1240.08 54.2924 1238.15 43.7153 1238.88Z" fill="#7C5939"/>
<path d="M242.694 1346.05C240.997 1352.29 244.823 1360.71 246.949 1364.13C250.69 1359.69 260.999 1357.32 265.686 1356.68C264.881 1351.71 262.284 1341.29 258.333 1339.35C253.394 1336.92 244.815 1338.25 242.694 1346.05Z" fill="#7C5939"/>
<path d="M269.898 1364.66C266.377 1371.77 256.43 1375.35 251.896 1376.25C255.696 1395.58 265.212 1403.31 273.301 1405.69C279.037 1407.38 285.611 1404.23 287.143 1398.36C290.399 1385.87 277.988 1371.38 269.898 1364.66Z" fill="#7C5939"/>
<path d="M171.084 1219.38C177.428 1218.88 184.839 1224.32 187.751 1227.1C182.77 1229.98 178.556 1239.82 177.071 1244.38C172.423 1242.63 162.842 1238.03 161.702 1233.72C160.278 1228.32 163.154 1220 171.084 1219.38Z" fill="#7C5939"/>
<path d="M183.991 1250.12C191.511 1247.97 196.814 1238.72 198.526 1234.36C216.708 1241.96 222.317 1253.12 223.005 1261.7C223.477 1267.58 219.376 1273.34 213.474 1273.8C200.756 1274.79 188.998 1259.53 183.991 1250.12Z" fill="#7C5939"/>
<path d="M139.759 1277.3C139.634 1283.78 145.386 1290.95 148.277 1293.73C150.821 1288.48 160.227 1283.54 164.612 1281.73C162.624 1277.12 157.574 1267.69 153.275 1266.82C147.901 1265.73 139.915 1269.2 139.759 1277.3Z" fill="#7C5939"/>
<path d="M170.631 1288.38C168.95 1296.17 160.187 1302.17 156.015 1304.2C164.416 1321.99 175.542 1327.03 183.962 1327.26C189.897 1327.42 195.463 1322.72 195.529 1316.65C195.669 1303.72 180.109 1292.83 170.631 1288.38Z" fill="#7C5939"/>
<path d="M315.943 1336.73C322.184 1338 327.894 1345.28 329.969 1348.75C324.414 1350.16 317.771 1358.48 315.144 1362.46C311.128 1359.49 303.106 1352.43 303.142 1347.95C303.188 1342.36 308.142 1335.15 315.943 1336.73Z" fill="#7C5939"/>
<path d="M320.303 1369.89C328.111 1369.89 335.647 1362.44 338.44 1358.72C353.896 1370.99 356.409 1383.24 354.857 1391.69C353.782 1397.55 348.25 1402.01 342.431 1400.81C329.953 1398.22 322.652 1380.32 320.303 1369.89Z" fill="#7C5939"/>
<path d="M943.383 2985.65C949.968 2981.32 961.206 2982.72 966.002 2983.96C962.302 2990.05 963.531 3003.14 964.608 3008.93C958.533 3009.83 945.439 3010.63 941.658 3006.67C936.932 3001.72 935.151 2991.07 943.383 2985.65Z" fill="#7C5939"/>
<path d="M975.492 3010.95C982.376 3004.14 982.676 2991.02 981.965 2985.32C1007.68 2982.42 1020.37 2992.36 1025.63 3001.7C1028.55 3006.88 1027.67 3013.72 1023.06 3017.53C1010.09 3028.22 986.934 3018.37 975.492 3010.95Z" fill="#7C5939"/>
<path d="M972.638 3086.15C978.29 3091.5 989.465 3091.84 994.346 3091.34C991.805 3084.68 995.277 3071.77 997.332 3066.14C991.578 3064.31 978.981 3061.48 974.615 3064.85C969.158 3069.07 965.572 3079.45 972.638 3086.15Z" fill="#7C5939"/>
<path d="M1008.27 3065.81C1013.78 3073.69 1011.79 3086.86 1010.11 3092.46C1034.8 3099.39 1048.89 3091.24 1055.58 3082.65C1059.2 3078 1059.52 3071.2 1055.76 3066.69C1045.04 3053.86 1020.72 3060.15 1008.27 3065.81Z" fill="#7C5939"/>
<path d="M1282.3 3103.99C1282.91 3111.96 1290.79 3120.06 1294.65 3123.11C1297.15 3116.35 1308.09 3109.13 1313.25 3106.36C1310.27 3100.95 1302.99 3089.99 1297.62 3089.45C1290.91 3088.77 1281.55 3094.02 1282.3 3103.99Z" fill="#7C5939"/>
<path d="M1321.39 3113.79C1320.25 3123.56 1310.22 3132.01 1305.35 3135.02C1318.57 3157.27 1333.9 3161.24 1344.34 3159.66C1350.23 3158.77 1355.1 3153.7 1355.25 3147.59C1355.67 3130.57 1334.06 3118.28 1321.39 3113.79Z" fill="#7C5939"/>
<path d="M1147.46 2988.1C1154.59 2984.77 1165.38 2987.87 1169.89 2989.83C1165.32 2995.33 1164.5 3008.57 1164.66 3014.5C1158.56 3014.47 1145.6 3013.29 1142.51 3008.78C1138.64 3003.13 1138.55 2992.25 1147.46 2988.1Z" fill="#7C5939"/>
<path d="M1175.01 3018.15C1182.82 3012.4 1185.15 2999.39 1185.33 2993.59C1211.08 2994.6 1221.96 3006.49 1225.64 3016.61C1227.66 3022.16 1225.76 3028.76 1220.67 3031.86C1206.3 3040.61 1185.09 3027.28 1175.01 3018.15Z" fill="#7C5939"/>
<path d="M1135.07 3068.81C1137.59 3076.38 1147.19 3082.2 1151.67 3084.17C1152.45 3076.98 1161.29 3067.19 1165.61 3063.19C1161.42 3058.71 1151.71 3049.96 1146.38 3050.81C1139.72 3051.87 1131.92 3059.35 1135.07 3068.81Z" fill="#7C5939"/>
<path d="M1175.31 3068.3C1176.56 3078.05 1168.9 3088.8 1164.92 3092.96C1183.14 3111.16 1198.96 3111.06 1208.69 3106.83C1214.15 3104.46 1217.62 3098.34 1216.29 3092.4C1212.59 3075.79 1188.67 3069.41 1175.31 3068.3Z" fill="#7C5939"/>
<path d="M1363.13 3061.49C1370.86 3060.26 1380.45 3066.23 1384.28 3069.36C1378.44 3073.4 1374.18 3085.92 1372.78 3091.67C1366.92 3089.96 1354.75 3085.24 1352.95 3080.04C1350.7 3073.54 1353.46 3063.03 1363.13 3061.49Z" fill="#7C5939"/>
<path d="M1381.8 3098.05C1390.82 3094.67 1396.47 3082.78 1398.17 3077.25C1422.63 3085.31 1430.03 3099.71 1430.96 3110.47C1431.47 3116.43 1427.88 3122.32 1422.14 3123.89C1406.02 3128.3 1389.11 3109.62 1381.8 3098.05Z" fill="#7C5939"/>
<path d="M1281.01 3366.96C1291.67 3366.28 1302.17 3343.78 1306.08 3332.61C1322.43 3296.12 1351 3324.93 1352.27 3332.61C1353.28 3338.75 1365.92 3365.61 1372.11 3378.27C1366.27 3394.66 1361.21 3383.11 1359.41 3375.28C1357.89 3393.04 1347.56 3384.67 1342.59 3378.27C1334.33 3399.44 1324.12 3385.1 1320.05 3375.28C1311.54 3394.06 1305.5 3381.54 1303.54 3372.94C1282.59 3393.08 1279.79 3377.35 1281.01 3366.96Z" fill="#0C4124"/>
<path d="M1285.22 3339.59C1293.74 3340.79 1303.6 3321.74 1307.47 3312.06C1329.72 3267.25 1354.98 3306.51 1354.35 3317.83C1353.84 3326.87 1366.64 3340.95 1373.1 3346.85C1367.38 3357.95 1363.62 3346.64 1362.45 3339.59C1360.16 3357.01 1353.98 3346.85 1351.17 3339.59C1346.59 3361.62 1339.73 3348.77 1336.87 3339.59C1333.69 3361.62 1324.53 3348.77 1320.34 3339.59C1314.11 3361.62 1309.16 3348.77 1307.47 3339.59C1292.47 3359.06 1286.39 3347.7 1285.22 3339.59Z" fill="#24562B"/>
<path d="M1328.23 3276.8C1321.74 3296.6 1304.2 3307.94 1295.62 3311.14C1297.4 3321.89 1312.46 3311 1317.65 3307.94C1317.4 3320.4 1331.25 3317.11 1331.25 3307.94C1339.35 3319.26 1342.01 3315.83 1346.34 3307.94C1350.63 3319.25 1361.23 3318.54 1367.16 3311.14C1352.92 3311.14 1342.69 3288.25 1339.35 3276.8C1338.34 3268.55 1334.71 3257.01 1328.23 3276.8Z" fill="#386A3F"/>
<path d="M1233.32 3362.01C1240.48 3361.55 1247.54 3346.43 1250.17 3338.93C1261.15 3314.42 1280.34 3333.77 1281.2 3338.93C1281.88 3343.06 1290.37 3361.1 1294.53 3369.61C1290.6 3380.62 1287.2 3372.86 1286 3367.6C1284.97 3379.53 1278.03 3373.91 1274.69 3369.61C1269.15 3383.83 1262.29 3374.2 1259.55 3367.6C1253.83 3380.22 1249.78 3371.81 1248.46 3366.03C1234.38 3379.56 1232.5 3368.99 1233.32 3362.01Z" fill="#0C4124"/>
<path d="M1236.15 3343.62C1241.87 3344.43 1248.5 3331.63 1251.1 3325.13C1266.05 3295.02 1283.02 3321.4 1282.59 3329C1282.25 3335.08 1290.85 3344.53 1295.19 3348.5C1291.35 3355.95 1288.82 3348.36 1288.04 3343.62C1286.5 3355.32 1282.34 3348.5 1280.46 3343.62C1277.38 3358.42 1272.77 3349.79 1270.85 3343.62C1268.71 3358.42 1262.56 3349.79 1259.75 3343.62C1255.56 3358.42 1252.24 3349.79 1251.1 3343.62C1241.02 3356.7 1236.93 3349.07 1236.15 3343.62Z" fill="#24562B"/>
<path d="M1265.04 3301.44C1260.69 3314.73 1248.9 3322.36 1243.14 3324.51C1244.33 3331.73 1254.45 3324.41 1257.94 3322.36C1257.77 3330.73 1267.07 3328.52 1267.07 3322.36C1272.52 3329.96 1274.31 3327.66 1277.21 3322.36C1280.1 3329.95 1287.21 3329.48 1291.2 3324.51C1281.63 3324.51 1274.76 3309.13 1272.52 3301.44C1271.84 3295.89 1269.4 3288.14 1265.04 3301.44Z" fill="#386A3F"/>
<path d="M892.069 3208.74C899.902 3208.24 907.61 3191.71 910.485 3183.51C922.49 3156.71 943.47 3177.87 944.403 3183.51C945.149 3188.02 954.427 3207.75 958.972 3217.04C954.683 3229.08 950.969 3220.59 949.648 3214.85C948.529 3227.89 940.945 3221.74 937.293 3217.04C931.232 3232.59 923.733 3222.06 920.742 3214.85C914.494 3228.64 910.058 3219.45 908.62 3213.13C893.235 3227.92 891.175 3216.36 892.069 3208.74Z" fill="#0C4124"/>
<path d="M895.165 3188.64C901.42 3189.52 908.663 3175.53 911.503 3168.42C927.841 3135.51 946.396 3164.35 945.929 3172.65C945.556 3179.3 954.954 3189.63 959.7 3193.97C955.499 3202.12 952.737 3193.81 951.881 3188.64C950.2 3201.43 945.657 3193.97 943.595 3188.64C940.234 3204.81 935.193 3195.38 933.092 3188.64C930.758 3204.81 924.029 3195.38 920.956 3188.64C916.381 3204.81 912.748 3195.38 911.503 3188.64C900.487 3202.93 896.021 3194.59 895.165 3188.64Z" fill="#24562B"/>
<path d="M926.747 3142.53C921.985 3157.06 909.101 3165.4 902.8 3167.74C904.107 3175.64 915.167 3167.64 918.979 3165.4C918.792 3174.54 928.964 3172.13 928.964 3165.4C934.915 3173.71 936.872 3171.19 940.05 3165.4C943.2 3173.7 950.98 3173.17 955.336 3167.74C944.881 3167.74 937.366 3150.93 934.915 3142.53C934.176 3136.47 931.508 3127.99 926.747 3142.53Z" fill="#386A3F"/>
<path d="M935.316 3224.23C941.649 3223.82 947.881 3210.46 950.206 3203.83C959.912 3182.17 976.875 3199.27 977.629 3203.83C978.232 3207.48 985.733 3223.43 989.409 3230.94C985.941 3240.67 982.938 3233.81 981.87 3229.17C980.965 3239.71 974.833 3234.74 971.88 3230.94C966.98 3243.51 960.918 3235 958.499 3229.17C953.448 3240.32 949.86 3232.88 948.698 3227.77C936.259 3239.73 934.594 3230.39 935.316 3224.23Z" fill="#0C4124"/>
<path d="M937.819 3207.98C942.877 3208.69 948.733 3197.38 951.029 3191.63C964.238 3165.02 979.24 3188.34 978.863 3195.05C978.561 3200.43 986.159 3208.78 989.996 3212.29C986.6 3218.87 984.367 3212.16 983.675 3207.98C982.316 3218.32 978.643 3212.29 976.976 3207.98C974.258 3221.05 970.182 3213.43 968.484 3207.98C966.597 3221.05 961.156 3213.43 958.671 3207.98C954.973 3221.05 952.035 3213.43 951.029 3207.98C942.122 3219.53 938.511 3212.79 937.819 3207.98Z" fill="#24562B"/>
<path d="M963.353 3170.69C959.504 3182.45 949.087 3189.18 943.992 3191.08C945.049 3197.47 953.991 3191 957.073 3189.18C956.922 3196.58 965.146 3194.63 965.146 3189.18C969.958 3195.91 971.54 3193.87 974.109 3189.18C976.656 3195.9 982.946 3195.47 986.469 3191.08C978.015 3191.08 971.939 3177.49 969.958 3170.69C969.36 3165.8 967.203 3158.94 963.353 3170.69Z" fill="#386A3F"/>
<path d="M1291.01 3400.16C1297.34 3399.75 1303.57 3386.39 1305.9 3379.76C1315.6 3358.1 1332.56 3375.2 1333.32 3379.76C1333.92 3383.41 1341.42 3399.36 1345.1 3406.87C1341.63 3416.6 1338.63 3409.74 1337.56 3405.1C1336.65 3415.64 1330.52 3410.67 1327.57 3406.87C1322.67 3419.44 1316.61 3410.93 1314.19 3405.1C1309.14 3416.25 1305.55 3408.81 1304.39 3403.7C1291.95 3415.66 1290.28 3406.32 1291.01 3400.16Z" fill="#0C4124"/>
<path d="M1293.51 3383.91C1298.57 3384.62 1304.42 3373.31 1306.72 3367.56C1319.93 3340.95 1334.93 3364.27 1334.55 3370.98C1334.25 3376.36 1341.85 3384.71 1345.69 3388.22C1342.29 3394.81 1340.06 3388.09 1339.36 3383.91C1338.01 3394.25 1334.33 3388.22 1332.67 3383.91C1329.95 3396.98 1325.87 3389.36 1324.17 3383.91C1322.29 3396.98 1316.85 3389.36 1314.36 3383.91C1310.66 3396.98 1307.72 3389.36 1306.72 3383.91C1297.81 3395.46 1294.2 3388.72 1293.51 3383.91Z" fill="#24562B"/>
<path d="M1319.04 3346.62C1315.19 3358.38 1304.78 3365.11 1299.68 3367.01C1300.74 3373.4 1309.68 3366.93 1312.76 3365.11C1312.61 3372.51 1320.84 3370.56 1320.84 3365.11C1325.65 3371.84 1327.23 3369.8 1329.8 3365.11C1332.35 3371.83 1338.64 3371.4 1342.16 3367.01C1333.71 3367.01 1327.63 3353.42 1325.65 3346.62C1325.05 3341.73 1322.89 3334.87 1319.04 3346.62Z" fill="#386A3F"/>
<path d="M533.612 3350.87C560.771 3349.13 587.498 3291.83 597.467 3263.4C639.094 3170.49 711.841 3243.84 715.074 3263.4C717.661 3279.04 749.831 3347.43 765.593 3379.67C750.72 3421.4 737.841 3391.98 733.261 3372.06C729.381 3417.27 703.085 3395.97 690.421 3379.67C669.406 3433.57 643.405 3397.05 633.032 3372.06C611.37 3419.87 595.985 3388 591.001 3366.08C537.653 3417.38 530.513 3377.31 533.612 3350.87Z" fill="#0C4124"/>
<path d="M544.346 3281.18C566.035 3284.22 591.15 3235.71 600.996 3211.08C657.646 3096.96 721.984 3196.95 720.366 3225.75C719.071 3248.79 751.658 3284.62 768.114 3299.66C753.547 3327.92 743.97 3299.11 741.003 3281.18C735.176 3325.53 719.422 3299.66 712.273 3281.18C700.619 3337.26 683.139 3304.55 675.855 3281.18C667.762 3337.26 644.428 3304.55 633.772 3281.18C617.91 3337.26 605.312 3304.55 600.996 3281.18C562.797 3330.74 547.313 3301.83 544.346 3281.18Z" fill="#24562B"/>
<path d="M653.853 3121.29C637.344 3171.69 592.67 3200.59 570.82 3208.73C575.352 3236.11 613.702 3208.37 626.919 3200.59C626.272 3232.3 661.541 3223.94 661.541 3200.59C682.177 3229.41 688.961 3220.68 699.98 3200.59C710.905 3229.37 737.88 3227.56 752.986 3208.73C716.732 3208.73 690.674 3150.44 682.177 3121.29C679.614 3100.29 670.362 3070.88 653.853 3121.29Z" fill="#386A3F"/>
<path fill-rule="evenodd" clip-rule="evenodd" d="M822.367 3210.77C822.369 3210.77 822.37 3210.77 818.36 3207.91C814.35 3205.06 814.349 3205.06 814.348 3205.06L814.228 3205.24C814.146 3205.36 814.023 3205.54 813.86 3205.78C813.534 3206.27 813.049 3206.98 812.412 3207.92C811.139 3209.79 809.262 3212.54 806.851 3216.04C802.03 3223.04 795.076 3233.03 786.552 3245.02C769.498 3268.99 746.177 3300.89 721.081 3332.63C695.962 3364.41 669.164 3395.9 645.15 3419.13C633.134 3430.76 621.946 3440.19 612.115 3446.54C602.099 3453.02 594.265 3455.79 588.729 3455.37L588 3465.38C596.798 3466.05 606.901 3461.77 617.302 3455.04C627.888 3448.2 639.595 3438.28 651.829 3426.45C676.314 3402.76 703.431 3370.86 728.645 3338.97C753.881 3307.05 777.308 3275 794.42 3250.95C802.978 3238.92 809.961 3228.88 814.806 3221.85C817.229 3218.33 819.117 3215.56 820.401 3213.67C821.043 3212.73 821.534 3212.01 821.865 3211.52C822.031 3211.27 822.156 3211.09 822.241 3210.96L822.367 3210.77Z" fill="#1B365D"/>
<path d="M1131.57 3518.19L921.891 3543.15L919.598 3421.51L1129.94 3430.35L1131.57 3518.19Z" fill="#102037"/>
<path d="M1150.25 3417.08C1150.25 3417.08 1164.01 3436.67 1131.57 3437.31C1099.14 3437.94 955.31 3448.05 955.31 3448.05C955.31 3448.05 933.031 3435.41 950.723 3433.83C968.088 3431.93 1150.25 3417.08 1150.25 3417.08Z" fill="#1B365D"/>
<path d="M919.598 3422.77L921.892 3539.05L672.894 3514.08L670.928 3412.03L786.909 3259.42L919.598 3422.77Z" fill="#6499C6"/>
<path d="M994.296 3199.07L1150.25 3417.08L950.721 3433.51L791.822 3208.54L994.296 3199.07Z" fill="#6499C6"/>
<path d="M653.564 3424.98L791.824 3208.55L953.672 3437.94C953.672 3437.94 963.173 3464.79 936.308 3449.63C909.442 3434.46 811.809 3328.61 800.997 3297.65C790.185 3266.68 780.357 3295.12 773.149 3305.23C765.941 3315.34 711.882 3398.44 671.256 3421.82C671.256 3421.82 646.684 3446.47 653.564 3424.98Z" fill="#B4EBEB"/>
<path d="M794.115 3328.93C794.115 3328.93 807.548 3443.94 917.631 3538.73L681.083 3514.72C681.411 3514.72 786.579 3392.75 794.115 3328.93Z" fill="#102037"/>
<path fill-rule="evenodd" clip-rule="evenodd" d="M822.476 3205.22C822.475 3205.22 822.474 3205.22 818.361 3207.91C814.248 3210.61 814.249 3210.61 814.251 3210.61L814.413 3210.87C814.521 3211.05 814.682 3211.31 814.894 3211.65C815.32 3212.33 815.951 3213.34 816.778 3214.66C818.431 3217.3 820.866 3221.17 823.998 3226.1C830.263 3235.95 839.315 3250.04 850.477 3266.98C872.796 3300.86 903.564 3346.21 937.338 3392C971.094 3437.76 1007.94 3484.09 1042.4 3519.9C1059.64 3537.8 1076.37 3553.16 1091.9 3564.53C1107.34 3575.82 1122.04 3583.5 1135.15 3585.41L1136.51 3575.47C1125.71 3573.9 1112.55 3567.33 1097.55 3556.35C1082.64 3545.44 1066.35 3530.51 1049.33 3512.83C1015.3 3477.49 978.758 3431.55 945.105 3385.93C911.47 3340.33 880.807 3295.14 858.548 3261.35C847.421 3244.46 838.398 3230.42 832.158 3220.6C829.039 3215.7 826.615 3211.85 824.973 3209.22C824.152 3207.91 823.526 3206.91 823.106 3206.24C822.896 3205.9 822.737 3205.64 822.631 3205.47L822.476 3205.22Z" fill="#1B365D"/>
<path fill-rule="evenodd" clip-rule="evenodd" d="M977.118 3196.38C977.116 3196.37 977.116 3196.37 973.003 3199.07C968.889 3201.76 968.891 3201.76 968.892 3201.77L969.054 3202.03C969.163 3202.2 969.324 3202.46 969.536 3202.8C969.961 3203.49 970.593 3204.5 971.419 3205.82C973.073 3208.46 975.508 3212.32 978.64 3217.25C984.904 3227.1 993.957 3241.19 1005.12 3258.13C1027.44 3292.02 1058.21 3337.36 1091.98 3383.15C1125.74 3428.92 1162.58 3475.25 1197.05 3511.05C1214.28 3528.95 1231.01 3544.32 1246.54 3555.68C1261.98 3566.98 1276.68 3574.65 1289.79 3576.56L1291.16 3566.62C1280.35 3565.05 1267.19 3558.48 1252.19 3547.5C1237.28 3536.59 1220.99 3521.66 1203.97 3503.99C1169.95 3468.64 1133.4 3422.71 1099.75 3377.08C1066.11 3331.48 1035.45 3286.29 1013.19 3252.5C1002.06 3235.61 993.039 3221.57 986.8 3211.76C983.68 3206.85 981.257 3203 979.615 3200.38C978.793 3199.07 978.167 3198.06 977.747 3197.39C977.537 3197.05 977.379 3196.8 977.273 3196.63L977.118 3196.38Z" fill="#1B365D"/>
<defs>
<linearGradient id="paint0_linear" x1="717" y1="0.796875" x2="717" y2="3675" gradientUnits="userSpaceOnUse">
<stop offset="0.169063" stop-color="#17331B"/>
<stop offset="1" stop-color="#1E8A50"/>
</linearGradient>
</defs>
</svg>
