<svg width="45" height="43" viewBox="0 0 45 43" fill="none" xmlns="http://www.w3.org/2000/svg">
<path d="M38.5 21.1025C38.5 31.4188 30.3777 39.6655 20.5 39.6655C10.6223 39.6655 2.5 31.4188 2.5 21.1025C2.5 10.7862 10.6223 2.53955 20.5 2.53955C30.3777 2.53955 38.5 10.7862 38.5 21.1025Z" fill="#1B365D" stroke="#1B365D" stroke-width="5"/>
<path d="M43.282 8.14202C44.1566 7.1516 44.1566 5.66485 43.282 4.67443C42.2397 3.49407 40.3989 3.49364 39.356 4.67351L23.4583 22.6594C21.6681 24.6848 18.5089 24.6859 16.7171 22.6619L13.854 19.4276C12.8104 18.2487 10.9702 18.2498 9.92801 19.43C9.05311 20.4207 9.05311 21.908 9.92801 22.8988L15.9668 29.7372C18.1561 32.2164 22.0227 32.2164 24.2121 29.7372L43.282 8.14202Z" fill="#1B365D" stroke="#1B365D"/>
<path d="M40.793 4.95787C41.5495 4.02978 41.5495 2.69778 40.793 1.76968C39.7837 0.531509 37.8924 0.531069 36.8825 1.76878L22.6338 19.2323C20.8812 21.3804 17.5993 21.3816 15.845 19.2348L13.629 16.5229C12.6184 15.286 10.7275 15.2872 9.71829 16.5252C8.96149 17.4536 8.96149 18.7861 9.71829 19.7145L14.9781 26.1672C17.179 28.8672 21.3035 28.8672 23.5044 26.1672L40.793 4.95787Z" fill="white" stroke="white"/>
</svg>
