<svg width="796" height="356" viewBox="0 0 796 356" fill="none" xmlns="http://www.w3.org/2000/svg">
<path d="M145.5 58.5C57.1 21.7 38.6666 87.5 40.5 125C-32.7 157.8 9.99996 213.333 40.5 237C-0.300026 275 32.5 297.167 54 303.5C122 397.5 202.333 342.667 234 303.5C282.8 352.3 339.333 323.833 361.5 303.5C441.5 359.1 492.5 321 508 295C540.8 355 608.667 320 638.5 295C688.5 333 732 291.5 747.5 266C815.5 223.6 796.167 154.333 778 125C802.4 70.6 767.833 58 747.5 58.5C701.1 -17.9 613.833 26.6667 576 58.5C514.8 -7.10001 412.167 31.1667 368.5 58.5C281.7 -46.3 183.667 14.8333 145.5 58.5Z" fill="white"/>
</svg>
