<svg width="1440" height="4322" viewBox="0 0 1440 4322" fill="none" xmlns="http://www.w3.org/2000/svg">
<path d="M886.593 1197.16C526.86 1171.19 131.642 1364.05 -21 1463.72V4322H1455V647.797C1415.42 841.736 1246.33 1223.12 886.593 1197.16Z" fill="url(#paint0_linear)"/>
<g filter="url(#filter0_ddd)">
<path fill-rule="evenodd" clip-rule="evenodd" d="M266.397 2128.47C145.77 2027.59 0.185169 1948.76 -95.5471 1908.07L-7.98546 1692.41C103.199 1739.67 269.162 1829.2 410.698 1947.57C546.899 2061.48 688.227 2225.26 694.636 2424.51C701.253 2630.24 617.186 2754.27 553.972 2847.54C547.741 2856.73 541.712 2865.63 535.992 2874.27C503.983 2922.65 482.042 2961.39 470.427 3006.38C459.237 3049.73 455.624 3107.4 475.619 3193.2C507.323 3329.25 571.483 3412.85 662.516 3467.08C758.718 3524.39 894.909 3554.7 1077.98 3559.03C1275.34 3563.69 1427.14 3588.47 1537.14 3633.7C1648.11 3679.33 1732.8 3753.54 1758.08 3863.17L1536.2 3917.06C1534.26 3908.62 1524.47 3880.17 1452.03 3850.39C1378.63 3820.21 1258.1 3796.84 1072.51 3792.45C872.648 3787.73 691.904 3754.81 547.746 3668.93C398.42 3579.97 298.796 3440.43 253.861 3247.61C226.555 3130.43 227.753 3033.17 250.019 2946.91C271.86 2862.29 312.02 2796.74 347.292 2743.43C353.411 2734.18 359.398 2725.24 365.227 2716.53C426.865 2624.5 470.842 2558.83 466.776 2432.42C463.808 2340.17 392.359 2233.81 266.397 2128.47Z" fill="#392512" fill-opacity="0.64"/>
</g>
<g filter="url(#filter1_ddd)">
<path d="M15.8628 1806.35C22.0666 1804.93 30.2708 1809.2 33.5974 1811.52C29.1237 1815.09 26.5155 1825.42 25.7707 1830.13C20.8879 1829.08 10.6683 1825.96 8.85237 1821.87C6.58245 1816.75 8.10806 1808.13 15.8628 1806.35Z" fill="#7C5939"/>
<path d="M33.5371 1834.77C40.6418 1831.54 44.4223 1821.65 45.4244 1817.1C64.5692 1821.9 71.9166 1832.03 73.9943 1840.37C75.4338 1846.15 72.2495 1852.5 66.4564 1853.8C54.0302 1856.6 39.9847 1843.3 33.5371 1834.77Z" fill="#7C5939"/>
</g>
<g filter="url(#filter2_ddd)">
<path d="M10.9886 1891.21C13.8554 1896.89 22.3 1900.34 26.164 1901.35C26.0267 1895.55 32.177 1886.71 35.2692 1883.01C31.3724 1879.98 22.5164 1874.23 18.2676 1875.56C12.9566 1877.21 7.40511 1884.1 10.9886 1891.21Z" fill="#7C5939"/>
<path d="M43.7153 1885.88C45.789 1893.45 40.7037 1902.91 37.9018 1906.69C53.8193 1918.23 66.215 1917.03 73.8303 1913.02C78.9932 1910.3 81.7176 1903.81 79.0729 1898.52C73.3472 1887.08 54.2924 1885.15 43.7153 1885.88Z" fill="#7C5939"/>
</g>
<g filter="url(#filter3_ddd)">
<path d="M242.694 1993.05C240.997 1999.29 244.823 2007.71 246.949 2011.13C250.69 2006.69 260.999 2004.32 265.686 2003.68C264.881 1998.71 262.284 1988.29 258.333 1986.35C253.394 1983.92 244.815 1985.25 242.694 1993.05Z" fill="#7C5939"/>
<path d="M269.898 2011.66C266.377 2018.77 256.43 2022.35 251.896 2023.25C255.696 2042.58 265.212 2050.31 273.301 2052.69C279.037 2054.38 285.611 2051.23 287.143 2045.36C290.399 2032.87 277.988 2018.38 269.898 2011.66Z" fill="#7C5939"/>
</g>
<g filter="url(#filter4_ddd)">
<path d="M171.084 1866.38C177.428 1865.88 184.839 1871.32 187.751 1874.1C182.77 1876.98 178.556 1886.82 177.071 1891.38C172.423 1889.63 162.842 1885.03 161.702 1880.72C160.278 1875.32 163.154 1867 171.084 1866.38Z" fill="#7C5939"/>
<path d="M183.991 1897.12C191.511 1894.97 196.814 1885.72 198.526 1881.36C216.708 1888.96 222.317 1900.12 223.005 1908.7C223.477 1914.58 219.376 1920.34 213.474 1920.8C200.756 1921.79 188.998 1906.53 183.991 1897.12Z" fill="#7C5939"/>
</g>
<g filter="url(#filter5_ddd)">
<path d="M139.759 1924.3C139.634 1930.78 145.386 1937.95 148.277 1940.73C150.821 1935.48 160.227 1930.54 164.612 1928.73C162.624 1924.12 157.574 1914.69 153.275 1913.82C147.901 1912.73 139.915 1916.2 139.759 1924.3Z" fill="#7C5939"/>
<path d="M170.631 1935.38C168.95 1943.17 160.187 1949.17 156.015 1951.2C164.416 1968.99 175.542 1974.03 183.962 1974.26C189.897 1974.42 195.463 1969.72 195.529 1963.65C195.669 1950.72 180.109 1939.84 170.631 1935.38Z" fill="#7C5939"/>
</g>
<g filter="url(#filter6_ddd)">
<path d="M315.943 1983.73C322.184 1985 327.894 1992.28 329.969 1995.75C324.414 1997.16 317.771 2005.48 315.144 2009.46C311.128 2006.49 303.106 1999.43 303.142 1994.95C303.188 1989.36 308.142 1982.15 315.943 1983.73Z" fill="#7C5939"/>
<path d="M320.303 2016.89C328.111 2016.89 335.647 2009.44 338.44 2005.72C353.896 2017.99 356.409 2030.24 354.857 2038.69C353.782 2044.55 348.25 2049.01 342.431 2047.81C329.953 2045.22 322.652 2027.32 320.303 2016.89Z" fill="#7C5939"/>
</g>
<g filter="url(#filter7_ddd)">
<path d="M943.382 3632.65C949.968 3628.32 961.206 3629.72 966.001 3630.96C962.301 3637.05 963.53 3650.14 964.607 3655.93C958.533 3656.83 945.438 3657.63 941.657 3653.67C936.932 3648.72 935.151 3638.07 943.382 3632.65Z" fill="#7C5939"/>
<path d="M975.491 3657.95C982.376 3651.14 982.675 3638.02 981.965 3632.32C1007.68 3629.42 1020.37 3639.36 1025.63 3648.7C1028.55 3653.88 1027.67 3660.72 1023.06 3664.53C1010.08 3675.22 986.933 3665.37 975.491 3657.95Z" fill="#7C5939"/>
</g>
<g filter="url(#filter8_ddd)">
<path d="M972.637 3733.15C978.289 3738.5 989.464 3738.84 994.345 3738.34C991.804 3731.68 995.277 3718.77 997.331 3713.14C991.578 3711.31 978.98 3708.48 974.615 3711.85C969.157 3716.07 965.572 3726.45 972.637 3733.15Z" fill="#7C5939"/>
<path d="M1008.27 3712.81C1013.78 3720.69 1011.79 3733.86 1010.11 3739.46C1034.79 3746.39 1048.89 3738.24 1055.58 3729.65C1059.2 3725 1059.52 3718.2 1055.76 3713.69C1045.04 3700.86 1020.72 3707.15 1008.27 3712.81Z" fill="#7C5939"/>
</g>
<g filter="url(#filter9_ddd)">
<path d="M1282.3 3750.99C1282.91 3758.96 1290.79 3767.06 1294.65 3770.11C1297.15 3763.35 1308.09 3756.13 1313.25 3753.36C1310.27 3747.95 1302.99 3736.99 1297.62 3736.45C1290.91 3735.77 1281.54 3741.02 1282.3 3750.99Z" fill="#7C5939"/>
<path d="M1321.39 3760.79C1320.25 3770.56 1310.22 3779.01 1305.35 3782.02C1318.57 3804.27 1333.89 3808.24 1344.34 3806.66C1350.23 3805.77 1355.1 3800.7 1355.25 3794.59C1355.67 3777.57 1334.06 3765.28 1321.39 3760.79Z" fill="#7C5939"/>
</g>
<g filter="url(#filter10_ddd)">
<path d="M1147.46 3635.1C1154.58 3631.78 1165.38 3634.87 1169.89 3636.83C1165.32 3642.33 1164.5 3655.57 1164.66 3661.5C1158.56 3661.47 1145.6 3660.29 1142.51 3655.78C1138.64 3650.13 1138.55 3639.25 1147.46 3635.1Z" fill="#7C5939"/>
<path d="M1175.01 3665.15C1182.82 3659.4 1185.15 3646.39 1185.33 3640.6C1211.08 3641.6 1221.96 3653.49 1225.64 3663.61C1227.66 3669.16 1225.76 3675.76 1220.67 3678.86C1206.3 3687.61 1185.09 3674.28 1175.01 3665.15Z" fill="#7C5939"/>
</g>
<g filter="url(#filter11_ddd)">
<path d="M1135.07 3715.81C1137.59 3723.38 1147.19 3729.2 1151.67 3731.17C1152.45 3723.98 1161.29 3714.19 1165.61 3710.19C1161.42 3705.71 1151.71 3696.96 1146.38 3697.81C1139.72 3698.87 1131.92 3706.35 1135.07 3715.81Z" fill="#7C5939"/>
<path d="M1175.31 3715.3C1176.56 3725.05 1168.9 3735.8 1164.92 3739.96C1183.14 3758.16 1198.96 3758.06 1208.69 3753.83C1214.15 3751.46 1217.62 3745.34 1216.29 3739.4C1212.59 3722.79 1188.67 3716.41 1175.31 3715.3Z" fill="#7C5939"/>
</g>
<g filter="url(#filter12_ddd)">
<path d="M1363.13 3708.49C1370.86 3707.26 1380.45 3713.23 1384.28 3716.36C1378.44 3720.4 1374.18 3732.92 1372.78 3738.67C1366.92 3736.96 1354.74 3732.24 1352.95 3727.04C1350.7 3720.54 1353.46 3710.03 1363.13 3708.49Z" fill="#7C5939"/>
<path d="M1381.8 3745.05C1390.82 3741.67 1396.47 3729.78 1398.17 3724.25C1422.63 3732.31 1430.03 3746.71 1430.96 3757.47C1431.47 3763.43 1427.88 3769.32 1422.14 3770.89C1406.02 3775.3 1389.11 3756.62 1381.8 3745.05Z" fill="#7C5939"/>
</g>
<g filter="url(#filter13_ddd)">
<path d="M1281.01 4013.96C1291.67 4013.28 1302.17 3990.78 1306.08 3979.61C1322.43 3943.12 1351 3971.93 1352.27 3979.61C1353.28 3985.75 1365.92 4012.61 1372.11 4025.27C1366.27 4041.66 1361.21 4030.11 1359.41 4022.28C1357.89 4040.04 1347.56 4031.67 1342.59 4025.27C1334.33 4046.44 1324.12 4032.1 1320.05 4022.28C1311.54 4041.06 1305.5 4028.54 1303.54 4019.94C1282.59 4040.08 1279.79 4024.35 1281.01 4013.96Z" fill="#0C4124"/>
<path d="M1285.22 3986.59C1293.74 3987.79 1303.6 3968.74 1307.47 3959.06C1329.72 3914.25 1354.98 3953.51 1354.35 3964.83C1353.84 3973.87 1366.64 3987.95 1373.1 3993.85C1367.38 4004.95 1363.62 3993.64 1362.45 3986.59C1360.16 4004.01 1353.98 3993.85 1351.17 3986.59C1346.59 4008.62 1339.73 3995.77 1336.87 3986.59C1333.69 4008.62 1324.52 3995.77 1320.34 3986.59C1314.11 4008.62 1309.16 3995.77 1307.47 3986.59C1292.47 4006.06 1286.39 3994.7 1285.22 3986.59Z" fill="#24562B"/>
<path d="M1328.23 3923.8C1321.74 3943.6 1304.2 3954.94 1295.62 3958.14C1297.4 3968.89 1312.46 3958 1317.65 3954.94C1317.39 3967.4 1331.25 3964.11 1331.25 3954.94C1339.35 3966.26 1342.01 3962.83 1346.34 3954.94C1350.63 3966.25 1361.22 3965.54 1367.16 3958.14C1352.92 3958.14 1342.69 3935.25 1339.35 3923.8C1338.34 3915.55 1334.71 3904.01 1328.23 3923.8Z" fill="#386A3F"/>
</g>
<g filter="url(#filter14_ddd)">
<path d="M1233.32 4009.01C1240.48 4008.55 1247.54 3993.43 1250.17 3985.93C1261.15 3961.42 1280.34 3980.77 1281.2 3985.93C1281.88 3990.06 1290.37 4008.1 1294.53 4016.61C1290.6 4027.62 1287.2 4019.86 1286 4014.6C1284.97 4026.53 1278.03 4020.91 1274.69 4016.61C1269.15 4030.83 1262.29 4021.2 1259.55 4014.6C1253.83 4027.22 1249.77 4018.81 1248.46 4013.03C1234.38 4026.56 1232.5 4015.99 1233.32 4009.01Z" fill="#0C4124"/>
<path d="M1236.15 3990.62C1241.87 3991.43 1248.5 3978.63 1251.1 3972.13C1266.04 3942.02 1283.02 3968.4 1282.59 3976C1282.25 3982.08 1290.85 3991.53 1295.19 3995.5C1291.35 4002.95 1288.82 3995.36 1288.04 3990.62C1286.5 4002.32 1282.34 3995.5 1280.46 3990.62C1277.38 4005.42 1272.77 3996.79 1270.85 3990.62C1268.71 4005.42 1262.56 3996.79 1259.75 3990.62C1255.56 4005.42 1252.24 3996.79 1251.1 3990.62C1241.02 4003.7 1236.93 3996.07 1236.15 3990.62Z" fill="#24562B"/>
<path d="M1265.04 3948.44C1260.69 3961.73 1248.9 3969.36 1243.13 3971.51C1244.33 3978.73 1254.45 3971.41 1257.94 3969.36C1257.77 3977.73 1267.07 3975.52 1267.07 3969.36C1272.52 3976.96 1274.31 3974.66 1277.21 3969.36C1280.1 3976.95 1287.21 3976.48 1291.2 3971.51C1281.63 3971.51 1274.76 3956.13 1272.52 3948.44C1271.84 3942.89 1269.4 3935.14 1265.04 3948.44Z" fill="#386A3F"/>
</g>
<g filter="url(#filter15_ddd)">
<path d="M892.069 3855.74C899.901 3855.24 907.609 3838.71 910.484 3830.51C922.49 3803.71 943.47 3824.87 944.402 3830.51C945.148 3835.02 954.426 3854.75 958.972 3864.04C954.683 3876.08 950.968 3867.59 949.647 3861.85C948.528 3874.89 940.944 3868.74 937.292 3864.04C931.231 3879.59 923.733 3869.06 920.741 3861.85C914.494 3875.64 910.057 3866.45 908.62 3860.13C893.234 3874.92 891.175 3863.36 892.069 3855.74Z" fill="#0C4124"/>
<path d="M895.165 3835.64C901.42 3836.52 908.663 3822.53 911.502 3815.42C927.84 3782.51 946.396 3811.35 945.929 3819.65C945.555 3826.3 954.953 3836.63 959.699 3840.97C955.498 3849.12 952.736 3840.81 951.88 3835.64C950.2 3848.43 945.656 3840.97 943.595 3835.64C940.234 3851.81 935.192 3842.38 933.092 3835.64C930.758 3851.81 924.028 3842.38 920.955 3835.64C916.38 3851.81 912.747 3842.38 911.502 3835.64C900.486 3849.93 896.02 3841.59 895.165 3835.64Z" fill="#24562B"/>
<path d="M926.746 3789.53C921.985 3804.06 909.101 3812.4 902.799 3814.74C904.106 3822.64 915.166 3814.64 918.978 3812.4C918.792 3821.54 928.963 3819.13 928.963 3812.4C934.915 3820.71 936.871 3818.19 940.049 3812.4C943.2 3820.7 950.979 3820.17 955.336 3814.74C944.88 3814.74 937.365 3797.93 934.915 3789.53C934.176 3783.47 931.507 3774.99 926.746 3789.53Z" fill="#386A3F"/>
</g>
<g filter="url(#filter16_ddd)">
<path d="M935.316 3871.23C941.649 3870.82 947.881 3857.46 950.205 3850.83C959.912 3829.17 976.875 3846.27 977.628 3850.83C978.232 3854.48 985.733 3870.43 989.408 3877.94C985.94 3887.67 982.937 3880.81 981.869 3876.17C980.964 3886.71 974.833 3881.74 971.88 3877.94C966.98 3890.51 960.917 3882 958.498 3876.17C953.447 3887.32 949.86 3879.88 948.698 3874.77C936.258 3886.73 934.594 3877.39 935.316 3871.23Z" fill="#0C4124"/>
<path d="M937.819 3854.98C942.876 3855.69 948.732 3844.38 951.028 3838.63C964.238 3812.02 979.24 3835.34 978.862 3842.05C978.56 3847.43 986.159 3855.78 989.996 3859.29C986.599 3865.87 984.366 3859.16 983.674 3854.98C982.316 3865.32 978.642 3859.29 976.975 3854.98C974.258 3868.05 970.182 3860.43 968.483 3854.98C966.596 3868.05 961.155 3860.43 958.671 3854.98C954.972 3868.05 952.035 3860.43 951.028 3854.98C942.121 3866.53 938.511 3859.79 937.819 3854.98Z" fill="#24562B"/>
<path d="M963.353 3817.69C959.504 3829.45 949.086 3836.18 943.992 3838.08C945.048 3844.47 953.991 3838 957.073 3836.18C956.922 3843.58 965.146 3841.63 965.146 3836.18C969.957 3842.91 971.539 3840.87 974.109 3836.18C976.656 3842.9 982.946 3842.47 986.468 3838.08C978.015 3838.08 971.939 3824.49 969.957 3817.69C969.36 3812.8 967.202 3805.94 963.353 3817.69Z" fill="#386A3F"/>
</g>
<g filter="url(#filter17_ddd)">
<path d="M1291.01 4047.16C1297.34 4046.75 1303.57 4033.39 1305.89 4026.76C1315.6 4005.1 1332.56 4022.2 1333.32 4026.76C1333.92 4030.41 1341.42 4046.36 1345.1 4053.87C1341.63 4063.6 1338.63 4056.74 1337.56 4052.1C1336.65 4062.64 1330.52 4057.67 1327.57 4053.87C1322.67 4066.44 1316.61 4057.93 1314.19 4052.1C1309.14 4063.25 1305.55 4055.81 1304.39 4050.7C1291.95 4062.66 1290.28 4053.32 1291.01 4047.16Z" fill="#0C4124"/>
<path d="M1293.51 4030.91C1298.57 4031.62 1304.42 4020.31 1306.72 4014.56C1319.93 3987.95 1334.93 4011.27 1334.55 4017.98C1334.25 4023.36 1341.85 4031.71 1345.69 4035.22C1342.29 4041.81 1340.06 4035.09 1339.36 4030.91C1338 4041.25 1334.33 4035.22 1332.66 4030.91C1329.95 4043.98 1325.87 4036.36 1324.17 4030.91C1322.29 4043.98 1316.84 4036.36 1314.36 4030.91C1310.66 4043.98 1307.72 4036.36 1306.72 4030.91C1297.81 4042.46 1294.2 4035.72 1293.51 4030.91Z" fill="#24562B"/>
<path d="M1319.04 3993.62C1315.19 4005.38 1304.78 4012.11 1299.68 4014.01C1300.74 4020.4 1309.68 4013.93 1312.76 4012.11C1312.61 4019.51 1320.84 4017.56 1320.84 4012.11C1325.65 4018.84 1327.23 4016.8 1329.8 4012.11C1332.35 4018.83 1338.64 4018.4 1342.16 4014.01C1333.7 4014.01 1327.63 4000.42 1325.65 3993.62C1325.05 3988.73 1322.89 3981.87 1319.04 3993.62Z" fill="#386A3F"/>
</g>
<g filter="url(#filter18_ddd)">
<path d="M533.612 3997.87C560.771 3996.13 587.498 3938.83 597.467 3910.4C639.094 3817.49 711.841 3890.84 715.074 3910.4C717.661 3926.04 749.831 3994.43 765.593 4026.67C750.72 4068.4 737.841 4038.98 733.261 4019.06C729.381 4064.27 703.085 4042.97 690.421 4026.67C669.406 4080.57 643.405 4044.05 633.032 4019.06C611.37 4066.87 595.985 4035 591.001 4013.08C537.653 4064.38 530.513 4024.31 533.612 3997.87Z" fill="#0C4124"/>
<path d="M544.346 3928.18C566.035 3931.22 591.15 3882.71 600.996 3858.08C657.646 3743.96 721.984 3843.95 720.366 3872.75C719.071 3895.79 751.658 3931.62 768.114 3946.66C753.547 3974.92 743.97 3946.11 741.003 3928.18C735.176 3972.53 719.422 3946.66 712.273 3928.18C700.619 3984.26 683.139 3951.55 675.855 3928.18C667.762 3984.26 644.428 3951.55 633.772 3928.18C617.91 3984.26 605.312 3951.55 600.996 3928.18C562.797 3977.74 547.313 3948.83 544.346 3928.18Z" fill="#24562B"/>
<path d="M653.853 3768.29C637.344 3818.69 592.67 3847.59 570.82 3855.73C575.352 3883.11 613.702 3855.37 626.919 3847.59C626.272 3879.3 661.541 3870.94 661.541 3847.59C682.177 3876.41 688.961 3867.68 699.98 3847.59C710.905 3876.37 737.88 3874.56 752.986 3855.73C716.732 3855.73 690.674 3797.44 682.177 3768.29C679.614 3747.29 670.362 3717.88 653.853 3768.29Z" fill="#386A3F"/>
</g>
<g filter="url(#filter19_ddd)">
<path fill-rule="evenodd" clip-rule="evenodd" d="M822.367 3857.77C822.369 3857.77 822.37 3857.77 818.36 3854.91C814.35 3852.06 814.349 3852.06 814.348 3852.06L814.228 3852.24C814.146 3852.36 814.023 3852.54 813.86 3852.78C813.534 3853.27 813.049 3853.98 812.412 3854.92C811.139 3856.79 809.262 3859.54 806.851 3863.04C802.03 3870.04 795.076 3880.03 786.552 3892.02C769.498 3915.99 746.177 3947.89 721.081 3979.63C695.962 4011.41 669.164 4042.9 645.15 4066.13C633.134 4077.76 621.946 4087.19 612.115 4093.54C602.099 4100.02 594.265 4102.79 588.729 4102.37L588 4112.38C596.798 4113.05 606.901 4108.77 617.302 4102.04C627.888 4095.2 639.595 4085.28 651.829 4073.45C676.314 4049.76 703.431 4017.86 728.645 3985.97C753.881 3954.05 777.308 3922 794.42 3897.95C802.978 3885.92 809.961 3875.88 814.806 3868.85C817.229 3865.33 819.117 3862.56 820.401 3860.67C821.043 3859.73 821.534 3859.01 821.865 3858.52C822.031 3858.27 822.156 3858.09 822.241 3857.96L822.367 3857.77Z" fill="#1B365D"/>
<path d="M1131.57 4165.19L921.891 4190.15L919.598 4068.51L1129.94 4077.35L1131.57 4165.19Z" fill="#102037"/>
<path d="M1150.25 4064.08C1150.25 4064.08 1164.01 4083.67 1131.57 4084.31C1099.14 4084.94 955.31 4095.05 955.31 4095.05C955.31 4095.05 933.031 4082.41 950.723 4080.83C968.088 4078.93 1150.25 4064.08 1150.25 4064.08Z" fill="#1B365D"/>
<path d="M919.598 4069.77L921.892 4186.05L672.894 4161.08L670.928 4059.03L786.909 3906.42L919.598 4069.77Z" fill="#6499C6"/>
<path d="M994.296 3846.07L1150.25 4064.08L950.721 4080.51L791.822 3855.54L994.296 3846.07Z" fill="#6499C6"/>
<path d="M653.564 4071.98L791.824 3855.55L953.672 4084.94C953.672 4084.94 963.173 4111.79 936.308 4096.63C909.442 4081.46 811.809 3975.61 800.997 3944.65C790.185 3913.68 780.357 3942.12 773.149 3952.23C765.941 3962.34 711.882 4045.44 671.256 4068.82C671.256 4068.82 646.684 4093.47 653.564 4071.98Z" fill="#B4EBEB"/>
<path d="M794.115 3975.93C794.115 3975.93 807.548 4090.94 917.631 4185.73L681.083 4161.72C681.411 4161.72 786.579 4039.75 794.115 3975.93Z" fill="#102037"/>
<path fill-rule="evenodd" clip-rule="evenodd" d="M822.476 3852.22C822.475 3852.22 822.474 3852.22 818.361 3854.91C814.248 3857.61 814.249 3857.61 814.251 3857.61L814.413 3857.87C814.521 3858.05 814.682 3858.31 814.894 3858.65C815.32 3859.33 815.951 3860.34 816.778 3861.66C818.431 3864.3 820.866 3868.17 823.998 3873.1C830.263 3882.95 839.315 3897.04 850.477 3913.98C872.796 3947.86 903.564 3993.21 937.338 4039C971.094 4084.76 1007.94 4131.09 1042.4 4166.9C1059.64 4184.8 1076.37 4200.16 1091.9 4211.53C1107.34 4222.82 1122.04 4230.5 1135.15 4232.41L1136.51 4222.47C1125.71 4220.9 1112.55 4214.33 1097.55 4203.35C1082.64 4192.44 1066.35 4177.51 1049.33 4159.83C1015.3 4124.49 978.758 4078.55 945.105 4032.93C911.47 3987.33 880.807 3942.14 858.548 3908.35C847.421 3891.46 838.398 3877.42 832.158 3867.6C829.039 3862.7 826.615 3858.85 824.973 3856.22C824.152 3854.91 823.526 3853.91 823.106 3853.24C822.896 3852.9 822.737 3852.64 822.631 3852.47L822.476 3852.22Z" fill="#1B365D"/>
<path fill-rule="evenodd" clip-rule="evenodd" d="M977.118 3843.38C977.116 3843.37 977.116 3843.37 973.003 3846.07C968.889 3848.76 968.891 3848.76 968.892 3848.77L969.054 3849.03C969.163 3849.2 969.324 3849.46 969.536 3849.8C969.961 3850.49 970.593 3851.5 971.419 3852.82C973.073 3855.46 975.508 3859.32 978.64 3864.25C984.904 3874.1 993.957 3888.19 1005.12 3905.13C1027.44 3939.02 1058.21 3984.36 1091.98 4030.15C1125.74 4075.92 1162.58 4122.25 1197.05 4158.05C1214.28 4175.95 1231.01 4191.32 1246.54 4202.68C1261.98 4213.98 1276.68 4221.65 1289.79 4223.56L1291.16 4213.62C1280.35 4212.05 1267.19 4205.48 1252.19 4194.5C1237.28 4183.59 1220.99 4168.66 1203.97 4150.99C1169.95 4115.64 1133.4 4069.71 1099.75 4024.08C1066.11 3978.48 1035.45 3933.29 1013.19 3899.5C1002.06 3882.61 993.039 3868.57 986.8 3858.76C983.68 3853.85 981.257 3850 979.615 3847.38C978.793 3846.07 978.167 3845.06 977.747 3844.39C977.537 3844.05 977.379 3843.8 977.273 3843.63L977.118 3843.38Z" fill="#1B365D"/>
</g>
<g filter="url(#filter20_ddd)">
<path d="M695.695 4138.9C673.756 4171.66 681.555 4192.7 688.197 4199.13L707.712 4209.07V4127.76C697.112 4135.9 700.214 4153.91 703.09 4161.89C697.585 4159.78 695.866 4145.68 695.695 4138.9Z" fill="#F89F84"/>
<path d="M716.441 4121.18C712.497 4121.37 707.882 4126.76 706.068 4129.44V4208.83L709.56 4212.78C713.703 4210.83 722.214 4206.87 723.117 4206.67C724.247 4206.43 733.08 4190.03 734.723 4172.07C736.038 4157.7 726.781 4144.13 721.988 4139.14C724.124 4144.6 721.097 4150.59 719.317 4152.91C719.317 4149.2 716.441 4146.68 714.593 4139.14C713.114 4133.1 715.209 4124.65 716.441 4121.18Z" fill="#E56138"/>
<path d="M696.86 4199.59C690.327 4187.17 700.687 4171.05 706.683 4164.54V4204.81L696.86 4199.59Z" fill="#FFED8E"/>
<path d="M708.42 4205.27L704.699 4203.21C705.287 4191.41 706.348 4169.82 706.5 4165.7C706.487 4165.49 706.486 4165.31 706.499 4165.15C706.525 4164.84 706.524 4165.05 706.5 4165.7C706.679 4168.5 709.157 4175.43 710.461 4178.75C718.143 4187.99 717.503 4196.8 716.223 4200.05L708.42 4205.27Z" fill="#F5D340"/>
<path d="M727.386 4236.87L673.581 4212.07C667.864 4209.44 669.02 4207.24 671.809 4197.25C674.041 4189.26 678.938 4190.24 681.108 4191.73L736.806 4218.38C742.251 4223.5 741.202 4226.27 737.721 4233.58C734.937 4239.44 729.671 4238.22 727.386 4236.87Z" fill="#7C5939"/>
<path d="M727.386 4236.87L673.581 4212.07C667.864 4209.44 669.02 4207.24 671.809 4197.25C674.041 4189.26 678.938 4190.24 681.108 4191.73L736.806 4218.38C742.251 4223.5 741.202 4226.27 737.721 4233.58C734.937 4239.44 729.671 4238.22 727.386 4236.87Z" fill="#7C5939"/>
<path d="M727.386 4236.87L673.581 4212.07C667.864 4209.44 669.02 4207.24 671.809 4197.25C674.041 4189.26 678.938 4190.24 681.108 4191.73L736.806 4218.38C742.251 4223.5 741.202 4226.27 737.721 4233.58C734.937 4239.44 729.671 4238.22 727.386 4236.87Z" fill="#392512"/>
<path d="M727.386 4236.87L673.581 4212.07C667.864 4209.44 669.02 4207.24 671.809 4197.25C674.041 4189.26 678.938 4190.24 681.108 4191.73L736.806 4218.38C742.251 4223.5 741.202 4226.27 737.721 4233.58C734.937 4239.44 729.671 4238.22 727.386 4236.87Z" stroke="#7C5939"/>
<path d="M736.578 4213.67L682.451 4237.5C676.699 4240.03 676.288 4237.5 672.591 4227.92C669.633 4220.26 673.823 4217.14 676.288 4216.54L732.88 4192.59C739.864 4192.12 740.686 4194.99 742.329 4203.13C743.644 4209.65 739.043 4212.87 736.578 4213.67Z" fill="#7C5939"/>
<path d="M736.578 4213.67L682.451 4237.5C676.699 4240.03 676.288 4237.5 672.591 4227.92C669.633 4220.26 673.823 4217.14 676.288 4216.54L732.88 4192.59C739.864 4192.12 740.686 4194.99 742.329 4203.13C743.644 4209.65 739.043 4212.87 736.578 4213.67Z" fill="#7C5939"/>
<path d="M736.578 4213.67L682.451 4237.5C676.699 4240.03 676.288 4237.5 672.591 4227.92C669.633 4220.26 673.823 4217.14 676.288 4216.54L732.88 4192.59C739.864 4192.12 740.686 4194.99 742.329 4203.13C743.644 4209.65 739.043 4212.87 736.578 4213.67Z" fill="#7C5939"/>
<path d="M736.578 4213.67L682.451 4237.5C676.699 4240.03 676.288 4237.5 672.591 4227.92C669.633 4220.26 673.823 4217.14 676.288 4216.54L732.88 4192.59C739.864 4192.12 740.686 4194.99 742.329 4203.13C743.644 4209.65 739.043 4212.87 736.578 4213.67Z" stroke="#7C5939"/>
</g>
<g filter="url(#filter21_ddd)">
<mask id="mask0" mask-type="alpha" maskUnits="userSpaceOnUse" x="-251" y="768" width="836" height="705">
<rect x="584.477" y="1472.86" width="835.477" height="704.847" transform="rotate(180 584.477 1472.86)" fill="url(#paint1_linear)"/>
</mask>
<g mask="url(#mask0)">
<path d="M551.634 1500.53L382.468 1126.4L341.363 1197.58L255.99 1034.02L176.411 1179.52L59.9475 953.187L-0.129944 1091.76L-44.3975 1050.18L-289.45 1500.53L10.9477 1482.04L10.937 1482.06L20.4229 1481.45L218.046 1468.89L551.634 1500.53Z" fill="#1B365D"/>
<path d="M433.311 1225.02L389.423 1127.44C387.028 1122.11 379.547 1121.89 376.838 1127.07L330.471 1215.64C329.545 1217.41 329.418 1219.49 330.124 1221.36L336.766 1238.94C338.646 1243.92 345.173 1245.06 348.633 1241.02L366.021 1220.7C369.192 1216.99 375.086 1217.58 377.457 1221.84L388.118 1241.01C390.518 1245.33 396.511 1245.87 399.645 1242.05L408.192 1231.65C410.422 1228.93 414.318 1228.29 417.3 1230.15L423.228 1233.84C429.097 1237.49 436.147 1231.33 433.311 1225.02Z" fill="#EEEEEE"/>
<path d="M273.613 1133.12L297.442 1106.48C299.406 1104.29 299.785 1101.1 298.39 1098.5L261.14 1029.25C258.425 1024.2 251.123 1024.38 248.656 1029.55L206.316 1118.4C204.544 1122.12 209.377 1125.43 212.204 1122.43C214.006 1120.52 217.176 1121.11 218.174 1123.54L224.943 1140.02C227.137 1145.36 234.491 1145.9 237.438 1140.93L245.784 1126.86C248.247 1122.71 254.075 1122.24 257.173 1125.94L263.028 1132.94C265.766 1136.21 270.769 1136.3 273.613 1133.12Z" fill="#EEEEEE"/>
<path d="M91.9171 1144.91L122.065 1082.86C122.528 1081.9 122.769 1080.86 122.769 1079.8V1069.23C122.769 1068.13 122.507 1067.04 122.004 1066.05L64.5064 953.382C61.8493 948.175 54.3583 948.326 51.9131 953.635L2.76498 1060.36C1.00507 1064.18 -3.70435 1065.6 -7.28061 1063.38L-46.0778 1039.34C-49.6223 1037.14 -54.2893 1038.51 -56.0838 1042.27L-112.781 1161.2C-113.78 1163.29 -113.675 1165.75 -112.5 1167.75L-100.056 1188.96C-97.7172 1192.95 -92.2245 1193.61 -89.0015 1190.3L-59.7478 1160.23C-56.3443 1156.73 -50.4951 1157.7 -48.4047 1162.11L-29.225 1202.58C-26.9699 1207.34 -20.4661 1208 -17.3031 1203.79L42.4346 1124.28C44.8492 1121.07 49.4682 1120.54 52.542 1123.13L81.1098 1147.21C84.5988 1150.15 89.9232 1149.02 91.9171 1144.91Z" fill="#EEEEEE"/>
<path d="M433.311 1225.02L389.423 1127.44C387.028 1122.11 379.547 1121.89 376.838 1127.07L330.471 1215.64C329.545 1217.41 329.418 1219.49 330.124 1221.36L336.766 1238.94C338.646 1243.92 345.173 1245.06 348.633 1241.02L366.021 1220.7C369.192 1216.99 375.086 1217.58 377.457 1221.84L388.118 1241.01C390.518 1245.33 396.511 1245.87 399.645 1242.05L408.192 1231.65C410.422 1228.93 414.318 1228.29 417.3 1230.15L423.228 1233.84C429.097 1237.49 436.147 1231.33 433.311 1225.02Z" stroke="black"/>
<path d="M273.613 1133.12L297.442 1106.48C299.406 1104.29 299.785 1101.1 298.39 1098.5L261.14 1029.25C258.425 1024.2 251.123 1024.38 248.656 1029.55L206.316 1118.4C204.544 1122.12 209.377 1125.43 212.204 1122.43C214.006 1120.52 217.176 1121.11 218.174 1123.54L224.943 1140.02C227.137 1145.36 234.491 1145.9 237.438 1140.93L245.784 1126.86C248.247 1122.71 254.075 1122.24 257.173 1125.94L263.028 1132.94C265.766 1136.21 270.769 1136.3 273.613 1133.12Z" stroke="black"/>
<path d="M91.9171 1144.91L122.065 1082.86C122.528 1081.9 122.769 1080.86 122.769 1079.8V1069.23C122.769 1068.13 122.507 1067.04 122.004 1066.05L64.5064 953.382C61.8493 948.175 54.3583 948.326 51.9131 953.635L2.76498 1060.36C1.00507 1064.18 -3.70435 1065.6 -7.28061 1063.38L-46.0778 1039.34C-49.6223 1037.14 -54.2893 1038.51 -56.0838 1042.27L-112.781 1161.2C-113.78 1163.29 -113.675 1165.75 -112.5 1167.75L-100.056 1188.96C-97.7172 1192.95 -92.2245 1193.61 -89.0015 1190.3L-59.7478 1160.23C-56.3443 1156.73 -50.4951 1157.7 -48.4047 1162.11L-29.225 1202.58C-26.9699 1207.34 -20.4661 1208 -17.3031 1203.79L42.4346 1124.28C44.8492 1121.07 49.4682 1120.54 52.542 1123.13L81.1098 1147.21C84.5988 1150.15 89.9232 1149.02 91.9171 1144.91Z" stroke="black"/>
</g>
</g>
<g filter="url(#filter22_ddd)">
<path d="M161.977 1550.74L170.988 1564.19L169.598 1582.5M152.083 1553.32L154.307 1571.63L150.971 1581.64M160.456 1538.37L181.83 1518.98M161.977 1543.24L174.88 1536.15L186 1524.99" stroke="#AAEAC8" stroke-width="4" stroke-linecap="round" stroke-linejoin="round"/>
<path d="M153.659 1503.98C148.056 1503.64 138.288 1507.72 136.105 1522.15C134.15 1535.32 140.459 1547.8 145.331 1552.8C148.516 1556.06 156.519 1561.32 163.228 1558.53C165.51 1557.59 167.52 1556.12 169.06 1554.26C170.599 1552.4 171.614 1550.22 172.004 1547.93C172.422 1545.61 172.314 1543.25 171.688 1541.01C171.063 1538.78 169.933 1536.71 168.374 1534.96C161.876 1527.21 163.622 1522.89 164.099 1521.08C165.074 1517.4 165.796 1504.75 153.659 1503.98Z" fill="#AAEAC8"/>
<path d="M155.368 1524.2C156.166 1526.76 154.798 1529.5 152.313 1530.32C149.828 1531.14 147.166 1529.73 146.368 1527.17M155.368 1524.2C154.571 1521.64 151.909 1520.24 149.424 1521.06C146.939 1521.88 145.571 1524.62 146.368 1527.17M155.368 1524.2L159.604 1522.8M146.368 1527.17L136.519 1527.42L135.45 1528.68M168.604 1519.83C169.401 1522.39 168.033 1525.13 165.548 1525.95C163.063 1526.77 160.401 1525.36 159.604 1522.8M168.604 1519.83C167.806 1517.27 165.144 1515.86 162.659 1516.68C160.174 1517.51 158.806 1520.24 159.604 1522.8M168.604 1519.83L164.653 1519.33" stroke="black"/>
</g>
<g filter="url(#filter23_ddd)">
<path d="M246.172 1301.45L560.956 785.974L783.502 966.668L387.05 1415.83C387.05 1415.83 345.349 1443.1 287.671 1396.27C229.992 1349.43 246.172 1301.45 246.172 1301.45Z" fill="black"/>
<path d="M210.416 1420.11L271.656 1281.79L394.669 1381.67L288.287 1483.34C288.287 1483.34 274.175 1486.78 242.294 1460.9C210.412 1435.01 210.416 1420.11 210.416 1420.11Z" fill="black"/>
<path d="M187.932 1504.5L246.587 1409.24L286.4 1441.56L213.135 1524.96C213.135 1524.96 205.489 1530.08 195.171 1521.7C184.852 1513.32 187.932 1504.5 187.932 1504.5Z" fill="black"/>
<path d="M645.517 909.435C674.143 932.677 702.75 950.661 726.004 960.871C737.581 965.953 748.231 969.289 757.105 970.189C765.587 971.05 774.746 969.868 780.194 962.783C785.643 955.699 784.645 946.271 781.869 937.99C778.965 929.328 773.345 919.453 765.856 909.056C750.813 888.17 727.171 863.73 698.545 840.488C669.919 817.246 641.312 799.262 618.058 789.052C606.481 783.969 595.831 780.634 586.957 779.734C578.475 778.873 569.317 780.055 563.868 787.139C558.419 794.224 559.417 803.652 562.193 811.932C565.097 820.595 570.717 830.47 578.206 840.867C593.249 861.752 616.892 886.192 645.517 909.435Z" fill="#234065" stroke="black" stroke-width="15"/>
</g>
<g filter="url(#filter24_ddd)">
<path d="M436.5 435.626C600.9 574.128 595.334 733.38 568 794C568 794 550.5 812.5 644 896.5C737.5 980.5 773.5 958.5 773.5 958.5C946.167 875.447 1326.3 667.01 1431.5 511.658C1563 317.468 1427.5 279.452 1407 59.575C1390.6 -116.327 1493.17 -137.698 1546.5 -126.396L1690.5 -882.094L872.5 -916C867 -797.842 836.3 -547.963 757.5 -493.713C659 -425.901 54.5005 -476.76 66.5005 -126.396C78.5005 223.969 231 262.499 436.5 435.626Z" fill="url(#paint2_radial)"/>
</g>
<g filter="url(#filter25_ddd)">
<path d="M723.435 678.401C723.435 797.587 663.102 873.962 632.935 897.251C1183.44 697.409 958.435 640.899 1216.94 231.456C1423.74 -96.0992 1258.94 -461.91 1192.44 -590C1205.27 -519.448 1202.84 -340.635 1090.44 -189.804C949.935 -1.26447 686.935 -148.191 562.435 91.7208C437.935 331.633 723.435 529.419 723.435 678.401Z" fill="url(#paint3_linear)"/>
</g>
<g filter="url(#filter26_d)">
<circle cx="1192.5" cy="235.934" r="125.5" fill="#EEEEEE" fill-opacity="0.5"/>
</g>
<mask id="mask1" mask-type="alpha" maskUnits="userSpaceOnUse" x="774" y="542" width="899" height="759">
<rect width="897.693" height="757.336" transform="matrix(1 0 0 -1 775 1300.33)" fill="url(#paint4_linear)"/>
</mask>
<g mask="url(#mask1)">
<g filter="url(#filter27_ddd)">
<path d="M810.288 1330.07L992.05 928.073L1036.22 1004.56L1127.95 828.814L1213.45 985.146L1338.59 741.963L1403.14 890.851L1450.7 846.185L1714.01 1330.07L1391.24 1310.2L1391.25 1310.22L1381.06 1309.57L1168.72 1296.07L810.288 1330.07Z" fill="#17331B"/>
<path d="M936.72 1035.6L985.017 928.216C987.413 922.889 994.894 922.666 997.603 927.841L1048.03 1024.17C1048.95 1025.94 1049.08 1028.02 1048.37 1029.89L1040.85 1049.82C1038.96 1054.8 1032.44 1055.94 1028.98 1051.9L1009.24 1028.82C1006.06 1025.12 1000.17 1025.71 997.8 1029.97L985.607 1051.89C983.207 1056.21 977.215 1056.75 974.081 1052.93L964.12 1040.81C961.891 1038.09 957.995 1037.45 955.013 1039.31L946.803 1044.42C940.933 1048.07 933.884 1041.91 936.72 1035.6Z" fill="#EEEEEE"/>
<path d="M1109.41 935.741L1083.17 906.403C1081.2 904.207 1080.82 901.016 1082.22 898.42L1122.9 822.782C1125.62 817.733 1132.92 817.911 1135.38 823.087L1181.32 919.476C1183.22 923.472 1178.03 927.029 1174.99 923.811C1173.06 921.761 1169.65 922.392 1168.58 925.001L1160.91 943.675C1158.72 949.017 1151.36 949.554 1148.41 944.587L1138.54 927.94C1136.07 923.788 1130.25 923.317 1127.15 927.02L1120 935.566C1117.26 938.838 1112.26 938.921 1109.41 935.741Z" fill="#EEEEEE"/>
<path d="M1304.53 948.569L1271.79 881.182C1271.33 880.229 1271.09 879.183 1271.09 878.123V866.528C1271.09 865.422 1271.35 864.331 1271.85 863.346L1334.18 741.216C1336.84 736.009 1344.33 736.16 1346.77 741.469L1400.28 857.651C1402.04 861.472 1406.75 862.889 1410.32 860.673L1453 834.221C1456.55 832.025 1461.22 833.395 1463.01 837.159L1524.3 965.714C1525.3 967.811 1525.19 970.266 1524.02 972.269L1510.16 995.884C1507.82 999.87 1502.33 1000.54 1499.11 997.222L1466.67 963.883C1463.27 960.384 1457.42 961.355 1455.33 965.766L1434.03 1010.71C1431.78 1015.47 1425.27 1016.12 1422.11 1011.91L1357.07 925.355C1354.66 922.142 1350.04 921.617 1346.97 924.208L1315.34 950.863C1311.85 953.804 1306.52 952.674 1304.53 948.569Z" fill="#EEEEEE"/>
<path d="M936.72 1035.6L985.017 928.216C987.413 922.889 994.894 922.666 997.603 927.841L1048.03 1024.17C1048.95 1025.94 1049.08 1028.02 1048.37 1029.89L1040.85 1049.82C1038.96 1054.8 1032.44 1055.94 1028.98 1051.9L1009.24 1028.82C1006.06 1025.12 1000.17 1025.71 997.8 1029.97L985.607 1051.89C983.207 1056.21 977.215 1056.75 974.081 1052.93L964.12 1040.81C961.891 1038.09 957.995 1037.45 955.013 1039.31L946.803 1044.42C940.933 1048.07 933.884 1041.91 936.72 1035.6Z" stroke="black"/>
<path d="M1109.41 935.741L1083.17 906.403C1081.2 904.207 1080.82 901.016 1082.22 898.42L1122.9 822.782C1125.62 817.733 1132.92 817.911 1135.38 823.087L1181.32 919.476C1183.22 923.472 1178.03 927.029 1174.99 923.811C1173.06 921.761 1169.65 922.392 1168.58 925.001L1160.91 943.675C1158.72 949.017 1151.36 949.554 1148.41 944.587L1138.54 927.94C1136.07 923.788 1130.25 923.317 1127.15 927.02L1120 935.566C1117.26 938.838 1112.26 938.921 1109.41 935.741Z" stroke="black"/>
<path d="M1304.53 948.569L1271.79 881.182C1271.33 880.229 1271.09 879.183 1271.09 878.123V866.528C1271.09 865.422 1271.35 864.331 1271.85 863.346L1334.18 741.216C1336.84 736.009 1344.33 736.16 1346.77 741.469L1400.28 857.651C1402.04 861.472 1406.75 862.889 1410.32 860.673L1453 834.221C1456.55 832.025 1461.22 833.395 1463.01 837.159L1524.3 965.714C1525.3 967.811 1525.19 970.266 1524.02 972.269L1510.16 995.884C1507.82 999.87 1502.33 1000.54 1499.11 997.222L1466.67 963.883C1463.27 960.384 1457.42 961.355 1455.33 965.766L1434.03 1010.71C1431.78 1015.47 1425.27 1016.12 1422.11 1011.91L1357.07 925.355C1354.66 922.142 1350.04 921.617 1346.97 924.208L1315.34 950.863C1311.85 953.804 1306.52 952.674 1304.53 948.569Z" stroke="black"/>
</g>
</g>
<g filter="url(#filter28_ddd)">
<path d="M821.749 1177.61C821.749 1177.61 877.417 1269.29 896.452 1268.08" stroke="#B21C14" stroke-width="6" stroke-miterlimit="10"/>
<path d="M716.007 1285.16L785.37 1295.25L786.876 1252.35L717.088 1254.18L716.007 1285.16Z" fill="#953621"/>
<path d="M710.435 1249.38C710.435 1249.38 705.753 1256.21 716.503 1256.63C727.252 1257.05 774.874 1261.49 774.874 1261.49C774.874 1261.49 782.338 1257.17 776.482 1256.5C770.737 1255.73 710.435 1249.38 710.435 1249.38Z" fill="#C45233"/>
<path d="M786.868 1252.79L785.395 1293.8L868.099 1286.51L869.376 1250.52L831.86 1195.97L786.868 1252.79Z" fill="#E56138"/>
<path d="M763.475 1173.41L710.437 1249.38L776.485 1256.39L830.543 1177.99L763.475 1173.41Z" fill="#E56138"/>
<path d="M875.054 1255.19L830.543 1177.99L775.479 1257.93C775.479 1257.93 772.164 1267.35 781.164 1262.17C790.164 1256.98 823.181 1220.23 826.955 1209.37C830.73 1198.51 833.814 1208.6 836.142 1212.22C838.469 1215.83 855.882 1245.48 869.208 1253.97C869.208 1253.97 877.203 1262.82 875.054 1255.19Z" fill="#F5D340"/>
<path d="M829.045 1220.45C829.045 1220.45 823.886 1260.94 786.809 1293.72L865.38 1286.69C865.271 1286.68 831.152 1243.01 829.045 1220.45Z" fill="#953621"/>
<path d="M821.749 1177.61C821.749 1177.61 746.016 1302.78 714.214 1307.1" stroke="#B21C14" stroke-width="6" stroke-miterlimit="10"/>
<path d="M770.535 1173.5C770.535 1173.5 694.76 1298.7 662.956 1303.03" stroke="#B21C14" stroke-width="6" stroke-miterlimit="10"/>
</g>
<g filter="url(#filter29_ddd)">
<path d="M1134.15 179.065L1133.06 180.221C1133.92 180.524 1134.82 180.68 1135.74 180.683C1137.05 180.696 1138.35 180.404 1139.53 179.831C1140.71 179.258 1141.74 178.419 1142.54 177.381V177.381C1143.4 176.235 1143.95 174.892 1144.14 173.476C1144.34 172.06 1144.17 170.618 1143.66 169.284C1143.14 167.951 1142.3 166.769 1141.2 165.85C1140.11 164.931 1138.8 164.305 1137.39 164.029C1135.99 163.754 1134.54 163.838 1133.18 164.275C1131.82 164.711 1130.59 165.486 1129.61 166.526C1128.63 167.566 1127.93 168.838 1127.57 170.222C1127.22 171.606 1127.22 173.058 1127.58 174.442L1128.4 173.55L1134.15 179.065ZM1133.19 170.347C1133.49 169.956 1133.88 169.637 1134.32 169.414C1134.76 169.192 1135.24 169.07 1135.74 169.059C1136.42 169.054 1137.08 169.275 1137.62 169.686C1138.17 170.06 1138.59 170.59 1138.84 171.208C1139.08 171.827 1139.13 172.504 1138.99 173.153C1138.84 173.801 1138.5 174.389 1138.01 174.841C1137.52 175.293 1136.91 175.587 1136.25 175.685C1135.59 175.783 1134.92 175.681 1134.32 175.391C1133.73 175.101 1133.23 174.637 1132.9 174.061C1132.57 173.484 1132.42 172.821 1132.47 172.158C1132.52 171.496 1132.78 170.864 1133.19 170.347Z" fill="white"/>
<path d="M1167.62 150.236H1167.88C1167.62 150.005 1167.35 149.708 1167.05 149.477C1165.25 148.152 1162.99 147.594 1160.78 147.925C1159.68 148.081 1158.62 148.454 1157.67 149.021C1156.72 149.587 1155.89 150.337 1155.23 151.227C1154.29 152.469 1153.72 153.945 1153.58 155.49C1153.43 157.036 1153.72 158.592 1154.4 159.987C1155.09 161.381 1156.14 162.559 1157.45 163.391C1158.76 164.223 1160.28 164.676 1161.83 164.7H1163.12C1164.22 164.543 1165.27 164.17 1166.21 163.603C1167.16 163.036 1167.98 162.286 1168.64 161.398V161.398C1169.36 160.417 1169.86 159.289 1170.09 158.096H1169.6L1167.62 150.236ZM1164.58 158.096C1164.07 158.763 1163.32 159.212 1162.49 159.35C1161.89 159.385 1161.29 159.254 1160.76 158.971C1160.23 158.689 1159.78 158.267 1159.47 157.75C1159.16 157.233 1159 156.641 1159 156.038C1159.01 155.436 1159.17 154.845 1159.49 154.331C1160 153.664 1160.74 153.215 1161.57 153.076H1162.03C1162.71 153.087 1163.37 153.306 1163.92 153.704C1164.55 154.222 1164.97 154.96 1165.09 155.772C1165.22 156.584 1165.03 157.412 1164.58 158.096V158.096Z" fill="white"/>
<path d="M1130.35 305.871C1131.6 306.797 1133.09 307.358 1134.64 307.492C1136.19 307.626 1137.75 307.328 1139.14 306.63C1138.74 306.366 1138.31 306.102 1137.95 305.805L1142.81 299.398L1143.73 300.059C1143.85 299.315 1143.85 298.557 1143.73 297.813C1143.57 296.714 1143.19 295.659 1142.62 294.706C1142.05 293.754 1141.3 292.924 1140.4 292.264C1139.51 291.604 1138.49 291.127 1137.41 290.861C1136.34 290.595 1135.22 290.545 1134.12 290.713C1131.91 291.056 1129.92 292.257 1128.59 294.057C1127.26 295.857 1126.69 298.109 1127.01 300.323C1127.18 301.421 1127.56 302.477 1128.13 303.429C1128.7 304.381 1129.46 305.21 1130.35 305.871ZM1132.83 297.186C1133.34 296.518 1134.08 296.07 1134.91 295.931H1135.31C1135.98 295.942 1136.64 296.161 1137.19 296.558C1137.84 297.078 1138.26 297.822 1138.38 298.642C1138.51 299.462 1138.32 300.297 1137.85 300.983C1137.33 301.629 1136.59 302.055 1135.77 302.177C1134.95 302.299 1134.11 302.109 1133.42 301.644C1132.76 301.135 1132.31 300.391 1132.17 299.563C1132.07 298.715 1132.31 297.863 1132.83 297.186Z" fill="white"/>
<path d="M1178.98 204.723L1176.93 205.648C1178.24 206.455 1179.75 206.878 1181.29 206.87C1183.03 206.88 1184.74 206.351 1186.17 205.356C1187.6 204.36 1188.69 202.947 1189.29 201.309C1189.88 199.671 1189.96 197.889 1189.5 196.207C1189.05 194.524 1188.08 193.024 1186.74 191.91C1185.02 190.465 1182.8 189.753 1180.56 189.929C1178.43 190.106 1176.44 191.094 1175.01 192.691C1173.57 194.287 1172.81 196.372 1172.87 198.515C1173.89 198.02 1174.92 197.557 1175.97 197.128L1178.98 204.723ZM1178.98 196.401C1179.24 196.076 1179.56 195.808 1179.93 195.614C1180.3 195.421 1180.71 195.307 1181.13 195.279H1181.39C1182.12 195.29 1182.83 195.546 1183.41 196.005C1183.94 196.408 1184.33 196.962 1184.54 197.594C1184.76 198.226 1184.77 198.908 1184.59 199.548C1184.4 200.189 1184.03 200.759 1183.51 201.183C1183 201.608 1182.37 201.867 1181.7 201.926C1181.04 201.986 1180.37 201.843 1179.79 201.516C1179.21 201.19 1178.74 200.696 1178.45 200.098C1178.15 199.5 1178.05 198.827 1178.14 198.167C1178.24 197.508 1178.53 196.892 1178.98 196.401V196.401Z" fill="white"/>
<path d="M1169.83 294.28C1170.1 293.345 1170.02 292.343 1169.61 291.461C1169.2 290.579 1168.48 289.879 1167.58 289.492C1158.48 285.487 1150.53 279.265 1144.46 271.395L1141.15 273.773L1136.4 267.168L1139.93 264.593C1132.85 252.297 1130.43 237.869 1133.1 223.936C1135.77 210.003 1143.36 197.493 1154.48 188.685C1165.61 179.877 1179.53 175.357 1193.71 175.949C1207.89 176.541 1221.38 182.206 1231.74 191.91L1233.22 193.297C1235.19 193.208 1237.15 193.296 1239.1 193.562C1241.53 193.95 1243.89 194.684 1246.11 195.741C1243.43 192.14 1240.4 188.821 1237.05 185.834C1227.44 176.973 1215.45 171.106 1202.55 168.953C1189.65 166.799 1176.4 168.451 1164.42 173.707C1152.45 178.964 1142.27 187.596 1135.12 198.547C1127.98 209.499 1124.19 222.294 1124.21 235.368C1124.25 239.336 1124.65 243.293 1125.4 247.19L1128.7 246.1L1131.21 253.761L1127.21 255.049C1129.85 263.719 1134.22 271.766 1140.05 278.706C1145.88 285.647 1153.05 291.337 1161.14 295.436L1157.44 308.215C1159.92 309.371 1162.4 310.395 1164.94 311.286L1169.83 294.28Z" fill="white"/>
<path d="M1261.73 238.538C1258.68 260.56 1247.08 280.493 1229.42 294.016C1221.96 299.035 1204.68 306.102 1193.78 298.11C1190.09 295.434 1187.16 291.851 1185.27 287.708C1183.37 283.566 1182.59 279.004 1182.98 274.466C1183.39 269.827 1184.78 265.328 1187.06 261.264C1189.34 257.201 1192.45 253.665 1196.19 250.888C1211.98 238.472 1210.96 229.49 1210.99 225.824C1210.99 218.626 1215.75 195.609 1236.26 196.732C1235.07 195.378 1234.05 194.354 1233.26 193.595C1228.11 193.818 1223.18 195.773 1219.28 199.142C1210 206.936 1207.98 220.904 1207.98 225.626V226.353C1207.98 229.985 1207.98 237.547 1194.34 248.313C1190.27 251.356 1186.9 255.224 1184.43 259.663C1181.97 264.102 1180.47 269.012 1180.04 274.07C1179.56 279.139 1180.43 284.243 1182.54 288.877C1184.64 293.51 1187.93 297.513 1192.06 300.488C1196.15 303.345 1201.05 304.804 1206.03 304.649C1214.98 304.31 1223.65 301.51 1231.11 296.558C1249.47 282.492 1261.56 261.77 1264.77 238.868C1267.55 214.366 1256.78 200.926 1246.11 195.939C1247.64 197.971 1249.07 200.088 1250.37 202.279C1257.77 208.422 1263.85 219.748 1261.73 238.538Z" fill="white"/>
<path d="M1233.22 193.429C1234.02 194.189 1235.04 195.213 1236.23 196.567C1237.02 196.567 1237.81 196.567 1238.67 196.732C1242.99 197.473 1247.03 199.367 1250.37 202.213C1249.07 200.022 1247.64 197.905 1246.11 195.873C1243.89 194.817 1241.53 194.083 1239.1 193.694C1237.15 193.428 1235.19 193.34 1233.22 193.429V193.429Z" fill="white"/>
<path d="M1210.96 225.659C1210.96 229.325 1211.95 238.307 1196.16 250.723C1192.42 253.5 1189.3 257.036 1187.03 261.099C1184.75 265.163 1183.36 269.662 1182.94 274.301C1182.52 278.866 1183.3 283.461 1185.19 287.635C1187.09 291.81 1190.03 295.42 1193.75 298.11C1204.65 306.102 1221.92 299.035 1229.39 294.016C1247.04 280.493 1258.65 260.56 1261.7 238.538C1263.81 219.748 1257.73 208.323 1250.33 202.213C1252.61 206.034 1254.45 210.1 1255.82 214.333C1258.9 221.866 1259.9 230.091 1258.69 238.142C1255.78 259.277 1244.69 278.427 1227.8 291.473C1220.21 296.591 1204.68 302.271 1195.69 295.634C1192.42 293.291 1189.81 290.133 1188.13 286.472C1186.45 282.811 1185.75 278.775 1186.11 274.764V274.466C1186.48 270.266 1187.74 266.192 1189.8 262.514C1191.86 258.836 1194.68 255.638 1198.07 253.134C1214.16 240.486 1214.1 230.547 1214.06 226.287V225.659C1214.06 221.994 1215.81 210.04 1223.28 203.633C1226.48 200.889 1230.59 199.43 1234.81 199.539C1235.91 199.543 1237.02 199.62 1238.11 199.77L1238.87 199.935C1237.91 198.68 1236.96 197.557 1236.1 196.633C1215.71 195.444 1210.99 218.328 1210.96 225.659Z" fill="white"/>
<path d="M1255.85 214.333C1254.48 210.1 1252.65 206.034 1250.37 202.213C1247.03 199.367 1242.99 197.473 1238.67 196.732C1237.81 196.732 1237.02 196.732 1236.23 196.567C1237.09 197.557 1238.05 198.68 1239 199.869C1242.76 200.764 1246.25 202.543 1249.18 205.059C1252.11 207.575 1254.4 210.755 1255.85 214.333V214.333Z" fill="white"/>
<path d="M1112.65 251.351C1110.1 238.732 1110.62 225.686 1114.18 213.313C1117.73 200.939 1124.21 189.601 1133.06 180.254C1132.22 179.985 1131.43 179.584 1130.72 179.065C1129.15 177.904 1128.04 176.234 1127.58 174.343C1117.16 185.203 1109.68 198.546 1105.87 213.105C1102.06 227.664 1102.04 242.955 1105.81 257.526C1105.94 258.059 1106.18 258.56 1106.51 258.996C1106.85 259.432 1107.27 259.795 1107.75 260.061C1108.23 260.328 1108.76 260.492 1109.31 260.545C1109.85 260.597 1110.4 260.536 1110.93 260.366L1127.18 255.082C1126.41 252.493 1125.82 249.857 1125.4 247.19L1112.65 251.351Z" fill="white"/>
<path d="M1130.71 179.032C1131.43 179.551 1132.22 179.952 1133.06 180.221L1134.15 179.065L1128.4 173.418L1127.58 174.31C1128.04 176.201 1129.15 177.871 1130.71 179.032V179.032Z" fill="white"/>
<path d="M1128.7 246.1L1125.4 247.19C1125.85 249.848 1126.48 252.473 1127.28 255.049L1131.28 253.761L1128.7 246.1Z" fill="white"/>
<path d="M1142.18 304.187C1141.39 305.268 1140.34 306.141 1139.14 306.729C1154.27 317.967 1172.62 324.024 1191.47 324C1203.09 324 1214.61 321.711 1225.35 317.263C1236.09 312.816 1245.85 306.297 1254.07 298.079C1262.29 289.861 1268.81 280.105 1273.26 269.367C1277.71 258.63 1280 247.122 1280 235.5C1280 223.878 1277.71 212.37 1273.26 201.632C1268.81 190.895 1262.29 181.139 1254.07 172.921C1245.85 164.703 1236.09 158.184 1225.35 153.737C1214.61 149.289 1203.09 147 1191.47 147C1183.49 147.052 1175.56 148.162 1167.88 150.302C1168.9 151.282 1169.66 152.505 1170.08 153.856C1170.5 155.207 1170.57 156.643 1170.29 158.029C1182.45 154.677 1195.22 154.231 1207.58 156.728C1219.95 159.225 1231.55 164.594 1241.45 172.402C1251.35 180.21 1259.27 190.237 1264.58 201.673C1269.88 213.109 1272.42 225.632 1271.99 238.231C1271.56 250.83 1268.17 263.15 1262.09 274.196C1256.01 285.242 1247.42 294.703 1237.01 301.815C1226.6 308.928 1214.66 313.491 1202.16 315.136C1189.65 316.781 1176.94 315.463 1165.04 311.286L1164.01 314.886L1156.28 312.673L1157.54 308.215C1152.72 305.943 1148.13 303.212 1143.83 300.059C1143.67 301.561 1143.1 302.989 1142.18 304.187V304.187Z" fill="white"/>
<path d="M1167.88 150.17H1167.62L1169.8 157.93H1170.29C1170.58 156.539 1170.51 155.096 1170.09 153.739C1169.67 152.381 1168.91 151.153 1167.88 150.17V150.17Z" fill="white"/>
<path d="M1137.95 305.805C1138.31 306.102 1138.74 306.366 1139.14 306.63C1140.34 306.042 1141.39 305.169 1142.18 304.087V304.087C1143.05 302.908 1143.58 301.516 1143.73 300.059L1142.81 299.398L1137.95 305.805Z" fill="white"/>
<path d="M1163.91 314.886L1165.04 311.286C1162.49 310.395 1160.02 309.371 1157.54 308.215L1156.28 312.673L1163.91 314.886Z" fill="white"/>
<path d="M1162.06 258.748C1162.88 258.145 1163.44 257.258 1163.64 256.262C1163.84 255.265 1163.65 254.232 1163.12 253.365C1160.63 249.392 1159.01 244.938 1158.36 240.295C1157.71 235.651 1158.05 230.923 1159.35 226.42C1160.65 221.916 1162.89 217.738 1165.92 214.158C1168.95 210.579 1172.7 207.679 1176.93 205.648C1176.54 205.433 1176.18 205.178 1175.84 204.888C1174.93 204.117 1174.2 203.163 1173.68 202.087C1173.17 201.011 1172.89 199.838 1172.87 198.647C1167.99 201.083 1163.64 204.46 1160.07 208.583C1156.5 212.706 1153.78 217.493 1152.06 222.67C1150.35 227.847 1149.68 233.312 1150.08 238.749C1150.49 244.187 1151.97 249.491 1154.43 254.356L1140.1 264.791C1141.44 267.085 1142.93 269.291 1144.56 271.395L1162.06 258.748Z" fill="white"/>
<path d="M1175.84 204.888C1176.18 205.178 1176.54 205.433 1176.93 205.648L1178.98 204.723L1175.97 197.26C1174.92 197.689 1173.89 198.152 1172.87 198.647C1172.89 199.838 1173.17 201.011 1173.68 202.087C1174.2 203.163 1174.93 204.117 1175.84 204.888V204.888Z" fill="white"/>
<path d="M1141.32 273.872L1144.62 271.494C1143 269.39 1141.51 267.184 1140.16 264.89L1136.63 267.466L1141.32 273.872Z" fill="white"/>
<path d="M1238.44 197.689C1248.81 199.175 1264.54 210.733 1261.33 239.165C1258.34 261.04 1246.82 280.847 1229.29 294.28C1221.89 299.266 1204.71 306.3 1193.91 298.342C1190.23 295.677 1187.3 292.098 1185.42 287.957C1183.54 283.816 1182.78 279.257 1183.21 274.731C1183.62 270.114 1185.01 265.639 1187.29 261.602C1189.57 257.565 1192.68 254.059 1196.42 251.318C1212.11 239.033 1211.09 230.084 1211.12 226.452C1210.99 218.989 1215.98 194.486 1238.44 197.689Z" fill="white"/>
</g>
<defs>
<filter id="filter0_ddd" x="-99.5469" y="1692.41" width="1861.63" height="2232.65" filterUnits="userSpaceOnUse" color-interpolation-filters="sRGB">
<feFlood flood-opacity="0" result="BackgroundImageFix"/>
<feColorMatrix in="SourceAlpha" type="matrix" values="0 0 0 0 0 0 0 0 0 0 0 0 0 0 0 0 0 0 127 0"/>
<feOffset dy="4"/>
<feGaussianBlur stdDeviation="2"/>
<feColorMatrix type="matrix" values="0 0 0 0 0 0 0 0 0 0 0 0 0 0 0 0 0 0 0.25 0"/>
<feBlend mode="normal" in2="BackgroundImageFix" result="effect1_dropShadow"/>
<feColorMatrix in="SourceAlpha" type="matrix" values="0 0 0 0 0 0 0 0 0 0 0 0 0 0 0 0 0 0 127 0"/>
<feOffset dy="4"/>
<feGaussianBlur stdDeviation="2"/>
<feColorMatrix type="matrix" values="0 0 0 0 0 0 0 0 0 0 0 0 0 0 0 0 0 0 0.25 0"/>
<feBlend mode="normal" in2="effect1_dropShadow" result="effect2_dropShadow"/>
<feColorMatrix in="SourceAlpha" type="matrix" values="0 0 0 0 0 0 0 0 0 0 0 0 0 0 0 0 0 0 127 0"/>
<feOffset dy="4"/>
<feGaussianBlur stdDeviation="2"/>
<feColorMatrix type="matrix" values="0 0 0 0 0 0 0 0 0 0 0 0 0 0 0 0 0 0 0.25 0"/>
<feBlend mode="normal" in2="effect2_dropShadow" result="effect3_dropShadow"/>
<feBlend mode="normal" in="SourceGraphic" in2="effect3_dropShadow" result="shape"/>
</filter>
<filter id="filter1_ddd" x="3.8916" y="1806.07" width="74.447" height="56.1118" filterUnits="userSpaceOnUse" color-interpolation-filters="sRGB">
<feFlood flood-opacity="0" result="BackgroundImageFix"/>
<feColorMatrix in="SourceAlpha" type="matrix" values="0 0 0 0 0 0 0 0 0 0 0 0 0 0 0 0 0 0 127 0"/>
<feOffset dy="4"/>
<feGaussianBlur stdDeviation="2"/>
<feColorMatrix type="matrix" values="0 0 0 0 0 0 0 0 0 0 0 0 0 0 0 0 0 0 0.25 0"/>
<feBlend mode="normal" in2="BackgroundImageFix" result="effect1_dropShadow"/>
<feColorMatrix in="SourceAlpha" type="matrix" values="0 0 0 0 0 0 0 0 0 0 0 0 0 0 0 0 0 0 127 0"/>
<feOffset dy="4"/>
<feGaussianBlur stdDeviation="2"/>
<feColorMatrix type="matrix" values="0 0 0 0 0 0 0 0 0 0 0 0 0 0 0 0 0 0 0.25 0"/>
<feBlend mode="normal" in2="effect1_dropShadow" result="effect2_dropShadow"/>
<feColorMatrix in="SourceAlpha" type="matrix" values="0 0 0 0 0 0 0 0 0 0 0 0 0 0 0 0 0 0 127 0"/>
<feOffset dy="4"/>
<feGaussianBlur stdDeviation="2"/>
<feColorMatrix type="matrix" values="0 0 0 0 0 0 0 0 0 0 0 0 0 0 0 0 0 0 0.25 0"/>
<feBlend mode="normal" in2="effect2_dropShadow" result="effect3_dropShadow"/>
<feBlend mode="normal" in="SourceGraphic" in2="effect3_dropShadow" result="shape"/>
</filter>
<filter id="filter2_ddd" x="5.8501" y="1875.36" width="78.2488" height="48.4939" filterUnits="userSpaceOnUse" color-interpolation-filters="sRGB">
<feFlood flood-opacity="0" result="BackgroundImageFix"/>
<feColorMatrix in="SourceAlpha" type="matrix" values="0 0 0 0 0 0 0 0 0 0 0 0 0 0 0 0 0 0 127 0"/>
<feOffset dy="4"/>
<feGaussianBlur stdDeviation="2"/>
<feColorMatrix type="matrix" values="0 0 0 0 0 0 0 0 0 0 0 0 0 0 0 0 0 0 0.25 0"/>
<feBlend mode="normal" in2="BackgroundImageFix" result="effect1_dropShadow"/>
<feColorMatrix in="SourceAlpha" type="matrix" values="0 0 0 0 0 0 0 0 0 0 0 0 0 0 0 0 0 0 127 0"/>
<feOffset dy="4"/>
<feGaussianBlur stdDeviation="2"/>
<feColorMatrix type="matrix" values="0 0 0 0 0 0 0 0 0 0 0 0 0 0 0 0 0 0 0.25 0"/>
<feBlend mode="normal" in2="effect1_dropShadow" result="effect2_dropShadow"/>
<feColorMatrix in="SourceAlpha" type="matrix" values="0 0 0 0 0 0 0 0 0 0 0 0 0 0 0 0 0 0 127 0"/>
<feOffset dy="4"/>
<feGaussianBlur stdDeviation="2"/>
<feColorMatrix type="matrix" values="0 0 0 0 0 0 0 0 0 0 0 0 0 0 0 0 0 0 0.25 0"/>
<feBlend mode="normal" in2="effect2_dropShadow" result="effect3_dropShadow"/>
<feBlend mode="normal" in="SourceGraphic" in2="effect3_dropShadow" result="shape"/>
</filter>
<filter id="filter3_ddd" x="238.271" y="1985.25" width="53.4045" height="75.8988" filterUnits="userSpaceOnUse" color-interpolation-filters="sRGB">
<feFlood flood-opacity="0" result="BackgroundImageFix"/>
<feColorMatrix in="SourceAlpha" type="matrix" values="0 0 0 0 0 0 0 0 0 0 0 0 0 0 0 0 0 0 127 0"/>
<feOffset dy="4"/>
<feGaussianBlur stdDeviation="2"/>
<feColorMatrix type="matrix" values="0 0 0 0 0 0 0 0 0 0 0 0 0 0 0 0 0 0 0.25 0"/>
<feBlend mode="normal" in2="BackgroundImageFix" result="effect1_dropShadow"/>
<feColorMatrix in="SourceAlpha" type="matrix" values="0 0 0 0 0 0 0 0 0 0 0 0 0 0 0 0 0 0 127 0"/>
<feOffset dy="4"/>
<feGaussianBlur stdDeviation="2"/>
<feColorMatrix type="matrix" values="0 0 0 0 0 0 0 0 0 0 0 0 0 0 0 0 0 0 0.25 0"/>
<feBlend mode="normal" in2="effect1_dropShadow" result="effect2_dropShadow"/>
<feColorMatrix in="SourceAlpha" type="matrix" values="0 0 0 0 0 0 0 0 0 0 0 0 0 0 0 0 0 0 127 0"/>
<feOffset dy="4"/>
<feGaussianBlur stdDeviation="2"/>
<feColorMatrix type="matrix" values="0 0 0 0 0 0 0 0 0 0 0 0 0 0 0 0 0 0 0.25 0"/>
<feBlend mode="normal" in2="effect2_dropShadow" result="effect3_dropShadow"/>
<feBlend mode="normal" in="SourceGraphic" in2="effect3_dropShadow" result="shape"/>
</filter>
<filter id="filter4_ddd" x="157.352" y="1866.35" width="69.6903" height="62.4926" filterUnits="userSpaceOnUse" color-interpolation-filters="sRGB">
<feFlood flood-opacity="0" result="BackgroundImageFix"/>
<feColorMatrix in="SourceAlpha" type="matrix" values="0 0 0 0 0 0 0 0 0 0 0 0 0 0 0 0 0 0 127 0"/>
<feOffset dy="4"/>
<feGaussianBlur stdDeviation="2"/>
<feColorMatrix type="matrix" values="0 0 0 0 0 0 0 0 0 0 0 0 0 0 0 0 0 0 0.25 0"/>
<feBlend mode="normal" in2="BackgroundImageFix" result="effect1_dropShadow"/>
<feColorMatrix in="SourceAlpha" type="matrix" values="0 0 0 0 0 0 0 0 0 0 0 0 0 0 0 0 0 0 127 0"/>
<feOffset dy="4"/>
<feGaussianBlur stdDeviation="2"/>
<feColorMatrix type="matrix" values="0 0 0 0 0 0 0 0 0 0 0 0 0 0 0 0 0 0 0.25 0"/>
<feBlend mode="normal" in2="effect1_dropShadow" result="effect2_dropShadow"/>
<feColorMatrix in="SourceAlpha" type="matrix" values="0 0 0 0 0 0 0 0 0 0 0 0 0 0 0 0 0 0 127 0"/>
<feOffset dy="4"/>
<feGaussianBlur stdDeviation="2"/>
<feColorMatrix type="matrix" values="0 0 0 0 0 0 0 0 0 0 0 0 0 0 0 0 0 0 0.25 0"/>
<feBlend mode="normal" in2="effect2_dropShadow" result="effect3_dropShadow"/>
<feBlend mode="normal" in="SourceGraphic" in2="effect3_dropShadow" result="shape"/>
</filter>
<filter id="filter5_ddd" x="135.757" y="1913.62" width="63.7731" height="68.6378" filterUnits="userSpaceOnUse" color-interpolation-filters="sRGB">
<feFlood flood-opacity="0" result="BackgroundImageFix"/>
<feColorMatrix in="SourceAlpha" type="matrix" values="0 0 0 0 0 0 0 0 0 0 0 0 0 0 0 0 0 0 127 0"/>
<feOffset dy="4"/>
<feGaussianBlur stdDeviation="2"/>
<feColorMatrix type="matrix" values="0 0 0 0 0 0 0 0 0 0 0 0 0 0 0 0 0 0 0.25 0"/>
<feBlend mode="normal" in2="BackgroundImageFix" result="effect1_dropShadow"/>
<feColorMatrix in="SourceAlpha" type="matrix" values="0 0 0 0 0 0 0 0 0 0 0 0 0 0 0 0 0 0 127 0"/>
<feOffset dy="4"/>
<feGaussianBlur stdDeviation="2"/>
<feColorMatrix type="matrix" values="0 0 0 0 0 0 0 0 0 0 0 0 0 0 0 0 0 0 0.25 0"/>
<feBlend mode="normal" in2="effect1_dropShadow" result="effect2_dropShadow"/>
<feColorMatrix in="SourceAlpha" type="matrix" values="0 0 0 0 0 0 0 0 0 0 0 0 0 0 0 0 0 0 127 0"/>
<feOffset dy="4"/>
<feGaussianBlur stdDeviation="2"/>
<feColorMatrix type="matrix" values="0 0 0 0 0 0 0 0 0 0 0 0 0 0 0 0 0 0 0.25 0"/>
<feBlend mode="normal" in2="effect2_dropShadow" result="effect3_dropShadow"/>
<feBlend mode="normal" in="SourceGraphic" in2="effect3_dropShadow" result="shape"/>
</filter>
<filter id="filter6_ddd" x="299.143" y="1983.51" width="60.1112" height="72.4954" filterUnits="userSpaceOnUse" color-interpolation-filters="sRGB">
<feFlood flood-opacity="0" result="BackgroundImageFix"/>
<feColorMatrix in="SourceAlpha" type="matrix" values="0 0 0 0 0 0 0 0 0 0 0 0 0 0 0 0 0 0 127 0"/>
<feOffset dy="4"/>
<feGaussianBlur stdDeviation="2"/>
<feColorMatrix type="matrix" values="0 0 0 0 0 0 0 0 0 0 0 0 0 0 0 0 0 0 0.25 0"/>
<feBlend mode="normal" in2="BackgroundImageFix" result="effect1_dropShadow"/>
<feColorMatrix in="SourceAlpha" type="matrix" values="0 0 0 0 0 0 0 0 0 0 0 0 0 0 0 0 0 0 127 0"/>
<feOffset dy="4"/>
<feGaussianBlur stdDeviation="2"/>
<feColorMatrix type="matrix" values="0 0 0 0 0 0 0 0 0 0 0 0 0 0 0 0 0 0 0.25 0"/>
<feBlend mode="normal" in2="effect1_dropShadow" result="effect2_dropShadow"/>
<feColorMatrix in="SourceAlpha" type="matrix" values="0 0 0 0 0 0 0 0 0 0 0 0 0 0 0 0 0 0 127 0"/>
<feOffset dy="4"/>
<feGaussianBlur stdDeviation="2"/>
<feColorMatrix type="matrix" values="0 0 0 0 0 0 0 0 0 0 0 0 0 0 0 0 0 0 0.25 0"/>
<feBlend mode="normal" in2="effect2_dropShadow" result="effect3_dropShadow"/>
<feBlend mode="normal" in="SourceGraphic" in2="effect3_dropShadow" result="shape"/>
</filter>
<filter id="filter7_ddd" x="933.661" y="3629.71" width="97.6592" height="47.5217" filterUnits="userSpaceOnUse" color-interpolation-filters="sRGB">
<feFlood flood-opacity="0" result="BackgroundImageFix"/>
<feColorMatrix in="SourceAlpha" type="matrix" values="0 0 0 0 0 0 0 0 0 0 0 0 0 0 0 0 0 0 127 0"/>
<feOffset dy="4"/>
<feGaussianBlur stdDeviation="2"/>
<feColorMatrix type="matrix" values="0 0 0 0 0 0 0 0 0 0 0 0 0 0 0 0 0 0 0.25 0"/>
<feBlend mode="normal" in2="BackgroundImageFix" result="effect1_dropShadow"/>
<feColorMatrix in="SourceAlpha" type="matrix" values="0 0 0 0 0 0 0 0 0 0 0 0 0 0 0 0 0 0 127 0"/>
<feOffset dy="4"/>
<feGaussianBlur stdDeviation="2"/>
<feColorMatrix type="matrix" values="0 0 0 0 0 0 0 0 0 0 0 0 0 0 0 0 0 0 0.25 0"/>
<feBlend mode="normal" in2="effect1_dropShadow" result="effect2_dropShadow"/>
<feColorMatrix in="SourceAlpha" type="matrix" values="0 0 0 0 0 0 0 0 0 0 0 0 0 0 0 0 0 0 127 0"/>
<feOffset dy="4"/>
<feGaussianBlur stdDeviation="2"/>
<feColorMatrix type="matrix" values="0 0 0 0 0 0 0 0 0 0 0 0 0 0 0 0 0 0 0.25 0"/>
<feBlend mode="normal" in2="effect2_dropShadow" result="effect3_dropShadow"/>
<feBlend mode="normal" in="SourceGraphic" in2="effect3_dropShadow" result="shape"/>
</filter>
<filter id="filter8_ddd" x="964.709" y="3706.17" width="97.7312" height="43.8886" filterUnits="userSpaceOnUse" color-interpolation-filters="sRGB">
<feFlood flood-opacity="0" result="BackgroundImageFix"/>
<feColorMatrix in="SourceAlpha" type="matrix" values="0 0 0 0 0 0 0 0 0 0 0 0 0 0 0 0 0 0 127 0"/>
<feOffset dy="4"/>
<feGaussianBlur stdDeviation="2"/>
<feColorMatrix type="matrix" values="0 0 0 0 0 0 0 0 0 0 0 0 0 0 0 0 0 0 0.25 0"/>
<feBlend mode="normal" in2="BackgroundImageFix" result="effect1_dropShadow"/>
<feColorMatrix in="SourceAlpha" type="matrix" values="0 0 0 0 0 0 0 0 0 0 0 0 0 0 0 0 0 0 127 0"/>
<feOffset dy="4"/>
<feGaussianBlur stdDeviation="2"/>
<feColorMatrix type="matrix" values="0 0 0 0 0 0 0 0 0 0 0 0 0 0 0 0 0 0 0.25 0"/>
<feBlend mode="normal" in2="effect1_dropShadow" result="effect2_dropShadow"/>
<feColorMatrix in="SourceAlpha" type="matrix" values="0 0 0 0 0 0 0 0 0 0 0 0 0 0 0 0 0 0 127 0"/>
<feOffset dy="4"/>
<feGaussianBlur stdDeviation="2"/>
<feColorMatrix type="matrix" values="0 0 0 0 0 0 0 0 0 0 0 0 0 0 0 0 0 0 0.25 0"/>
<feBlend mode="normal" in2="effect2_dropShadow" result="effect3_dropShadow"/>
<feBlend mode="normal" in="SourceGraphic" in2="effect3_dropShadow" result="shape"/>
</filter>
<filter id="filter9_ddd" x="1278.26" y="3736.39" width="80.9957" height="78.5805" filterUnits="userSpaceOnUse" color-interpolation-filters="sRGB">
<feFlood flood-opacity="0" result="BackgroundImageFix"/>
<feColorMatrix in="SourceAlpha" type="matrix" values="0 0 0 0 0 0 0 0 0 0 0 0 0 0 0 0 0 0 127 0"/>
<feOffset dy="4"/>
<feGaussianBlur stdDeviation="2"/>
<feColorMatrix type="matrix" values="0 0 0 0 0 0 0 0 0 0 0 0 0 0 0 0 0 0 0.25 0"/>
<feBlend mode="normal" in2="BackgroundImageFix" result="effect1_dropShadow"/>
<feColorMatrix in="SourceAlpha" type="matrix" values="0 0 0 0 0 0 0 0 0 0 0 0 0 0 0 0 0 0 127 0"/>
<feOffset dy="4"/>
<feGaussianBlur stdDeviation="2"/>
<feColorMatrix type="matrix" values="0 0 0 0 0 0 0 0 0 0 0 0 0 0 0 0 0 0 0.25 0"/>
<feBlend mode="normal" in2="effect1_dropShadow" result="effect2_dropShadow"/>
<feColorMatrix in="SourceAlpha" type="matrix" values="0 0 0 0 0 0 0 0 0 0 0 0 0 0 0 0 0 0 127 0"/>
<feOffset dy="4"/>
<feGaussianBlur stdDeviation="2"/>
<feColorMatrix type="matrix" values="0 0 0 0 0 0 0 0 0 0 0 0 0 0 0 0 0 0 0.25 0"/>
<feBlend mode="normal" in2="effect2_dropShadow" result="effect3_dropShadow"/>
<feBlend mode="normal" in="SourceGraphic" in2="effect3_dropShadow" result="shape"/>
</filter>
<filter id="filter10_ddd" x="1136.01" y="3633.63" width="94.4187" height="56.0836" filterUnits="userSpaceOnUse" color-interpolation-filters="sRGB">
<feFlood flood-opacity="0" result="BackgroundImageFix"/>
<feColorMatrix in="SourceAlpha" type="matrix" values="0 0 0 0 0 0 0 0 0 0 0 0 0 0 0 0 0 0 127 0"/>
<feOffset dy="4"/>
<feGaussianBlur stdDeviation="2"/>
<feColorMatrix type="matrix" values="0 0 0 0 0 0 0 0 0 0 0 0 0 0 0 0 0 0 0.25 0"/>
<feBlend mode="normal" in2="BackgroundImageFix" result="effect1_dropShadow"/>
<feColorMatrix in="SourceAlpha" type="matrix" values="0 0 0 0 0 0 0 0 0 0 0 0 0 0 0 0 0 0 127 0"/>
<feOffset dy="4"/>
<feGaussianBlur stdDeviation="2"/>
<feColorMatrix type="matrix" values="0 0 0 0 0 0 0 0 0 0 0 0 0 0 0 0 0 0 0.25 0"/>
<feBlend mode="normal" in2="effect1_dropShadow" result="effect2_dropShadow"/>
<feColorMatrix in="SourceAlpha" type="matrix" values="0 0 0 0 0 0 0 0 0 0 0 0 0 0 0 0 0 0 127 0"/>
<feOffset dy="4"/>
<feGaussianBlur stdDeviation="2"/>
<feColorMatrix type="matrix" values="0 0 0 0 0 0 0 0 0 0 0 0 0 0 0 0 0 0 0.25 0"/>
<feBlend mode="normal" in2="effect2_dropShadow" result="effect3_dropShadow"/>
<feBlend mode="normal" in="SourceGraphic" in2="effect3_dropShadow" result="shape"/>
</filter>
<filter id="filter11_ddd" x="1130.35" y="3697.75" width="90.2268" height="66.4089" filterUnits="userSpaceOnUse" color-interpolation-filters="sRGB">
<feFlood flood-opacity="0" result="BackgroundImageFix"/>
<feColorMatrix in="SourceAlpha" type="matrix" values="0 0 0 0 0 0 0 0 0 0 0 0 0 0 0 0 0 0 127 0"/>
<feOffset dy="4"/>
<feGaussianBlur stdDeviation="2"/>
<feColorMatrix type="matrix" values="0 0 0 0 0 0 0 0 0 0 0 0 0 0 0 0 0 0 0.25 0"/>
<feBlend mode="normal" in2="BackgroundImageFix" result="effect1_dropShadow"/>
<feColorMatrix in="SourceAlpha" type="matrix" values="0 0 0 0 0 0 0 0 0 0 0 0 0 0 0 0 0 0 127 0"/>
<feOffset dy="4"/>
<feGaussianBlur stdDeviation="2"/>
<feColorMatrix type="matrix" values="0 0 0 0 0 0 0 0 0 0 0 0 0 0 0 0 0 0 0.25 0"/>
<feBlend mode="normal" in2="effect1_dropShadow" result="effect2_dropShadow"/>
<feColorMatrix in="SourceAlpha" type="matrix" values="0 0 0 0 0 0 0 0 0 0 0 0 0 0 0 0 0 0 127 0"/>
<feOffset dy="4"/>
<feGaussianBlur stdDeviation="2"/>
<feColorMatrix type="matrix" values="0 0 0 0 0 0 0 0 0 0 0 0 0 0 0 0 0 0 0.25 0"/>
<feBlend mode="normal" in2="effect2_dropShadow" result="effect3_dropShadow"/>
<feBlend mode="normal" in="SourceGraphic" in2="effect3_dropShadow" result="shape"/>
</filter>
<filter id="filter12_ddd" x="1348.21" y="3708.33" width="86.7945" height="71.221" filterUnits="userSpaceOnUse" color-interpolation-filters="sRGB">
<feFlood flood-opacity="0" result="BackgroundImageFix"/>
<feColorMatrix in="SourceAlpha" type="matrix" values="0 0 0 0 0 0 0 0 0 0 0 0 0 0 0 0 0 0 127 0"/>
<feOffset dy="4"/>
<feGaussianBlur stdDeviation="2"/>
<feColorMatrix type="matrix" values="0 0 0 0 0 0 0 0 0 0 0 0 0 0 0 0 0 0 0.25 0"/>
<feBlend mode="normal" in2="BackgroundImageFix" result="effect1_dropShadow"/>
<feColorMatrix in="SourceAlpha" type="matrix" values="0 0 0 0 0 0 0 0 0 0 0 0 0 0 0 0 0 0 127 0"/>
<feOffset dy="4"/>
<feGaussianBlur stdDeviation="2"/>
<feColorMatrix type="matrix" values="0 0 0 0 0 0 0 0 0 0 0 0 0 0 0 0 0 0 0.25 0"/>
<feBlend mode="normal" in2="effect1_dropShadow" result="effect2_dropShadow"/>
<feColorMatrix in="SourceAlpha" type="matrix" values="0 0 0 0 0 0 0 0 0 0 0 0 0 0 0 0 0 0 127 0"/>
<feOffset dy="4"/>
<feGaussianBlur stdDeviation="2"/>
<feColorMatrix type="matrix" values="0 0 0 0 0 0 0 0 0 0 0 0 0 0 0 0 0 0 0.25 0"/>
<feBlend mode="normal" in2="effect2_dropShadow" result="effect3_dropShadow"/>
<feBlend mode="normal" in="SourceGraphic" in2="effect3_dropShadow" result="shape"/>
</filter>
<filter id="filter13_ddd" x="1276.77" y="3912.87" width="100.333" height="131.345" filterUnits="userSpaceOnUse" color-interpolation-filters="sRGB">
<feFlood flood-opacity="0" result="BackgroundImageFix"/>
<feColorMatrix in="SourceAlpha" type="matrix" values="0 0 0 0 0 0 0 0 0 0 0 0 0 0 0 0 0 0 127 0"/>
<feOffset dy="4"/>
<feGaussianBlur stdDeviation="2"/>
<feColorMatrix type="matrix" values="0 0 0 0 0 0 0 0 0 0 0 0 0 0 0 0 0 0 0.25 0"/>
<feBlend mode="normal" in2="BackgroundImageFix" result="effect1_dropShadow"/>
<feColorMatrix in="SourceAlpha" type="matrix" values="0 0 0 0 0 0 0 0 0 0 0 0 0 0 0 0 0 0 127 0"/>
<feOffset dy="4"/>
<feGaussianBlur stdDeviation="2"/>
<feColorMatrix type="matrix" values="0 0 0 0 0 0 0 0 0 0 0 0 0 0 0 0 0 0 0.25 0"/>
<feBlend mode="normal" in2="effect1_dropShadow" result="effect2_dropShadow"/>
<feColorMatrix in="SourceAlpha" type="matrix" values="0 0 0 0 0 0 0 0 0 0 0 0 0 0 0 0 0 0 127 0"/>
<feOffset dy="4"/>
<feGaussianBlur stdDeviation="2"/>
<feColorMatrix type="matrix" values="0 0 0 0 0 0 0 0 0 0 0 0 0 0 0 0 0 0 0.25 0"/>
<feBlend mode="normal" in2="effect2_dropShadow" result="effect3_dropShadow"/>
<feBlend mode="normal" in="SourceGraphic" in2="effect3_dropShadow" result="shape"/>
</filter>
<filter id="filter14_ddd" x="1229.16" y="3941.09" width="70.0364" height="90.8721" filterUnits="userSpaceOnUse" color-interpolation-filters="sRGB">
<feFlood flood-opacity="0" result="BackgroundImageFix"/>
<feColorMatrix in="SourceAlpha" type="matrix" values="0 0 0 0 0 0 0 0 0 0 0 0 0 0 0 0 0 0 127 0"/>
<feOffset dy="4"/>
<feGaussianBlur stdDeviation="2"/>
<feColorMatrix type="matrix" values="0 0 0 0 0 0 0 0 0 0 0 0 0 0 0 0 0 0 0.25 0"/>
<feBlend mode="normal" in2="BackgroundImageFix" result="effect1_dropShadow"/>
<feColorMatrix in="SourceAlpha" type="matrix" values="0 0 0 0 0 0 0 0 0 0 0 0 0 0 0 0 0 0 127 0"/>
<feOffset dy="4"/>
<feGaussianBlur stdDeviation="2"/>
<feColorMatrix type="matrix" values="0 0 0 0 0 0 0 0 0 0 0 0 0 0 0 0 0 0 0.25 0"/>
<feBlend mode="normal" in2="effect1_dropShadow" result="effect2_dropShadow"/>
<feColorMatrix in="SourceAlpha" type="matrix" values="0 0 0 0 0 0 0 0 0 0 0 0 0 0 0 0 0 0 127 0"/>
<feOffset dy="4"/>
<feGaussianBlur stdDeviation="2"/>
<feColorMatrix type="matrix" values="0 0 0 0 0 0 0 0 0 0 0 0 0 0 0 0 0 0 0.25 0"/>
<feBlend mode="normal" in2="effect2_dropShadow" result="effect3_dropShadow"/>
<feBlend mode="normal" in="SourceGraphic" in2="effect3_dropShadow" result="shape"/>
</filter>
<filter id="filter15_ddd" x="887.892" y="3781.5" width="75.8071" height="98.5811" filterUnits="userSpaceOnUse" color-interpolation-filters="sRGB">
<feFlood flood-opacity="0" result="BackgroundImageFix"/>
<feColorMatrix in="SourceAlpha" type="matrix" values="0 0 0 0 0 0 0 0 0 0 0 0 0 0 0 0 0 0 127 0"/>
<feOffset dy="4"/>
<feGaussianBlur stdDeviation="2"/>
<feColorMatrix type="matrix" values="0 0 0 0 0 0 0 0 0 0 0 0 0 0 0 0 0 0 0.25 0"/>
<feBlend mode="normal" in2="BackgroundImageFix" result="effect1_dropShadow"/>
<feColorMatrix in="SourceAlpha" type="matrix" values="0 0 0 0 0 0 0 0 0 0 0 0 0 0 0 0 0 0 127 0"/>
<feOffset dy="4"/>
<feGaussianBlur stdDeviation="2"/>
<feColorMatrix type="matrix" values="0 0 0 0 0 0 0 0 0 0 0 0 0 0 0 0 0 0 0.25 0"/>
<feBlend mode="normal" in2="effect1_dropShadow" result="effect2_dropShadow"/>
<feColorMatrix in="SourceAlpha" type="matrix" values="0 0 0 0 0 0 0 0 0 0 0 0 0 0 0 0 0 0 127 0"/>
<feOffset dy="4"/>
<feGaussianBlur stdDeviation="2"/>
<feColorMatrix type="matrix" values="0 0 0 0 0 0 0 0 0 0 0 0 0 0 0 0 0 0 0.25 0"/>
<feBlend mode="normal" in2="effect2_dropShadow" result="effect3_dropShadow"/>
<feBlend mode="normal" in="SourceGraphic" in2="effect3_dropShadow" result="shape"/>
</filter>
<filter id="filter16_ddd" x="931.173" y="3811.21" width="62.8225" height="81.236" filterUnits="userSpaceOnUse" color-interpolation-filters="sRGB">
<feFlood flood-opacity="0" result="BackgroundImageFix"/>
<feColorMatrix in="SourceAlpha" type="matrix" values="0 0 0 0 0 0 0 0 0 0 0 0 0 0 0 0 0 0 127 0"/>
<feOffset dy="4"/>
<feGaussianBlur stdDeviation="2"/>
<feColorMatrix type="matrix" values="0 0 0 0 0 0 0 0 0 0 0 0 0 0 0 0 0 0 0.25 0"/>
<feBlend mode="normal" in2="BackgroundImageFix" result="effect1_dropShadow"/>
<feColorMatrix in="SourceAlpha" type="matrix" values="0 0 0 0 0 0 0 0 0 0 0 0 0 0 0 0 0 0 127 0"/>
<feOffset dy="4"/>
<feGaussianBlur stdDeviation="2"/>
<feColorMatrix type="matrix" values="0 0 0 0 0 0 0 0 0 0 0 0 0 0 0 0 0 0 0.25 0"/>
<feBlend mode="normal" in2="effect1_dropShadow" result="effect2_dropShadow"/>
<feColorMatrix in="SourceAlpha" type="matrix" values="0 0 0 0 0 0 0 0 0 0 0 0 0 0 0 0 0 0 127 0"/>
<feOffset dy="4"/>
<feGaussianBlur stdDeviation="2"/>
<feColorMatrix type="matrix" values="0 0 0 0 0 0 0 0 0 0 0 0 0 0 0 0 0 0 0.25 0"/>
<feBlend mode="normal" in2="effect2_dropShadow" result="effect3_dropShadow"/>
<feBlend mode="normal" in="SourceGraphic" in2="effect3_dropShadow" result="shape"/>
</filter>
<filter id="filter17_ddd" x="1286.86" y="3987.13" width="62.8225" height="81.2362" filterUnits="userSpaceOnUse" color-interpolation-filters="sRGB">
<feFlood flood-opacity="0" result="BackgroundImageFix"/>
<feColorMatrix in="SourceAlpha" type="matrix" values="0 0 0 0 0 0 0 0 0 0 0 0 0 0 0 0 0 0 127 0"/>
<feOffset dy="4"/>
<feGaussianBlur stdDeviation="2"/>
<feColorMatrix type="matrix" values="0 0 0 0 0 0 0 0 0 0 0 0 0 0 0 0 0 0 0.25 0"/>
<feBlend mode="normal" in2="BackgroundImageFix" result="effect1_dropShadow"/>
<feColorMatrix in="SourceAlpha" type="matrix" values="0 0 0 0 0 0 0 0 0 0 0 0 0 0 0 0 0 0 127 0"/>
<feOffset dy="4"/>
<feGaussianBlur stdDeviation="2"/>
<feColorMatrix type="matrix" values="0 0 0 0 0 0 0 0 0 0 0 0 0 0 0 0 0 0 0.25 0"/>
<feBlend mode="normal" in2="effect1_dropShadow" result="effect2_dropShadow"/>
<feColorMatrix in="SourceAlpha" type="matrix" values="0 0 0 0 0 0 0 0 0 0 0 0 0 0 0 0 0 0 127 0"/>
<feOffset dy="4"/>
<feGaussianBlur stdDeviation="2"/>
<feColorMatrix type="matrix" values="0 0 0 0 0 0 0 0 0 0 0 0 0 0 0 0 0 0 0.25 0"/>
<feBlend mode="normal" in2="effect2_dropShadow" result="effect3_dropShadow"/>
<feBlend mode="normal" in="SourceGraphic" in2="effect3_dropShadow" result="shape"/>
</filter>
<filter id="filter18_ddd" x="529" y="3740.46" width="243.114" height="322.083" filterUnits="userSpaceOnUse" color-interpolation-filters="sRGB">
<feFlood flood-opacity="0" result="BackgroundImageFix"/>
<feColorMatrix in="SourceAlpha" type="matrix" values="0 0 0 0 0 0 0 0 0 0 0 0 0 0 0 0 0 0 127 0"/>
<feOffset dy="4"/>
<feGaussianBlur stdDeviation="2"/>
<feColorMatrix type="matrix" values="0 0 0 0 0 0 0 0 0 0 0 0 0 0 0 0 0 0 0.25 0"/>
<feBlend mode="normal" in2="BackgroundImageFix" result="effect1_dropShadow"/>
<feColorMatrix in="SourceAlpha" type="matrix" values="0 0 0 0 0 0 0 0 0 0 0 0 0 0 0 0 0 0 127 0"/>
<feOffset dy="4"/>
<feGaussianBlur stdDeviation="2"/>
<feColorMatrix type="matrix" values="0 0 0 0 0 0 0 0 0 0 0 0 0 0 0 0 0 0 0.25 0"/>
<feBlend mode="normal" in2="effect1_dropShadow" result="effect2_dropShadow"/>
<feColorMatrix in="SourceAlpha" type="matrix" values="0 0 0 0 0 0 0 0 0 0 0 0 0 0 0 0 0 0 127 0"/>
<feOffset dy="4"/>
<feGaussianBlur stdDeviation="2"/>
<feColorMatrix type="matrix" values="0 0 0 0 0 0 0 0 0 0 0 0 0 0 0 0 0 0 0.25 0"/>
<feBlend mode="normal" in2="effect2_dropShadow" result="effect3_dropShadow"/>
<feBlend mode="normal" in="SourceGraphic" in2="effect3_dropShadow" result="shape"/>
</filter>
<filter id="filter19_ddd" x="584" y="3843.38" width="711.156" height="397.031" filterUnits="userSpaceOnUse" color-interpolation-filters="sRGB">
<feFlood flood-opacity="0" result="BackgroundImageFix"/>
<feColorMatrix in="SourceAlpha" type="matrix" values="0 0 0 0 0 0 0 0 0 0 0 0 0 0 0 0 0 0 127 0"/>
<feOffset dy="4"/>
<feGaussianBlur stdDeviation="2"/>
<feColorMatrix type="matrix" values="0 0 0 0 0 0 0 0 0 0 0 0 0 0 0 0 0 0 0.25 0"/>
<feBlend mode="normal" in2="BackgroundImageFix" result="effect1_dropShadow"/>
<feColorMatrix in="SourceAlpha" type="matrix" values="0 0 0 0 0 0 0 0 0 0 0 0 0 0 0 0 0 0 127 0"/>
<feOffset dy="4"/>
<feGaussianBlur stdDeviation="2"/>
<feColorMatrix type="matrix" values="0 0 0 0 0 0 0 0 0 0 0 0 0 0 0 0 0 0 0.25 0"/>
<feBlend mode="normal" in2="effect1_dropShadow" result="effect2_dropShadow"/>
<feColorMatrix in="SourceAlpha" type="matrix" values="0 0 0 0 0 0 0 0 0 0 0 0 0 0 0 0 0 0 127 0"/>
<feOffset dy="4"/>
<feGaussianBlur stdDeviation="2"/>
<feColorMatrix type="matrix" values="0 0 0 0 0 0 0 0 0 0 0 0 0 0 0 0 0 0 0.25 0"/>
<feBlend mode="normal" in2="effect2_dropShadow" result="effect3_dropShadow"/>
<feBlend mode="normal" in="SourceGraphic" in2="effect3_dropShadow" result="shape"/>
</filter>
<filter id="filter20_ddd" x="661" y="4121.18" width="87" height="146.707" filterUnits="userSpaceOnUse" color-interpolation-filters="sRGB">
<feFlood flood-opacity="0" result="BackgroundImageFix"/>
<feColorMatrix in="SourceAlpha" type="matrix" values="0 0 0 0 0 0 0 0 0 0 0 0 0 0 0 0 0 0 127 0"/>
<feOffset dy="4"/>
<feGaussianBlur stdDeviation="2"/>
<feColorMatrix type="matrix" values="0 0 0 0 0 0 0 0 0 0 0 0 0 0 0 0 0 0 0.25 0"/>
<feBlend mode="normal" in2="BackgroundImageFix" result="effect1_dropShadow"/>
<feColorMatrix in="SourceAlpha" type="matrix" values="0 0 0 0 0 0 0 0 0 0 0 0 0 0 0 0 0 0 127 0"/>
<feOffset dy="4"/>
<feGaussianBlur stdDeviation="2"/>
<feColorMatrix type="matrix" values="0 0 0 0 0 0 0 0 0 0 0 0 0 0 0 0 0 0 0.25 0"/>
<feBlend mode="normal" in2="effect1_dropShadow" result="effect2_dropShadow"/>
<feColorMatrix in="SourceAlpha" type="matrix" values="0 0 0 0 0 0 0 0 0 0 0 0 0 0 0 0 0 0 127 0"/>
<feOffset dy="4"/>
<feGaussianBlur stdDeviation="2"/>
<feColorMatrix type="matrix" values="0 0 0 0 0 0 0 0 0 0 0 0 0 0 0 0 0 0 0.25 0"/>
<feBlend mode="normal" in2="effect2_dropShadow" result="effect3_dropShadow"/>
<feBlend mode="normal" in="SourceGraphic" in2="effect3_dropShadow" result="shape"/>
</filter>
<filter id="filter21_ddd" x="-255" y="940.53" width="810.634" height="540.326" filterUnits="userSpaceOnUse" color-interpolation-filters="sRGB">
<feFlood flood-opacity="0" result="BackgroundImageFix"/>
<feColorMatrix in="SourceAlpha" type="matrix" values="0 0 0 0 0 0 0 0 0 0 0 0 0 0 0 0 0 0 127 0"/>
<feOffset dy="4"/>
<feGaussianBlur stdDeviation="2"/>
<feColorMatrix type="matrix" values="0 0 0 0 0 0 0 0 0 0 0 0 0 0 0 0 0 0 0.25 0"/>
<feBlend mode="normal" in2="BackgroundImageFix" result="effect1_dropShadow"/>
<feColorMatrix in="SourceAlpha" type="matrix" values="0 0 0 0 0 0 0 0 0 0 0 0 0 0 0 0 0 0 127 0"/>
<feOffset dy="4"/>
<feGaussianBlur stdDeviation="2"/>
<feColorMatrix type="matrix" values="0 0 0 0 0 0 0 0 0 0 0 0 0 0 0 0 0 0 0.25 0"/>
<feBlend mode="normal" in2="effect1_dropShadow" result="effect2_dropShadow"/>
<feColorMatrix in="SourceAlpha" type="matrix" values="0 0 0 0 0 0 0 0 0 0 0 0 0 0 0 0 0 0 127 0"/>
<feOffset dy="4"/>
<feGaussianBlur stdDeviation="2"/>
<feColorMatrix type="matrix" values="0 0 0 0 0 0 0 0 0 0 0 0 0 0 0 0 0 0 0.25 0"/>
<feBlend mode="normal" in2="effect2_dropShadow" result="effect3_dropShadow"/>
<feBlend mode="normal" in="SourceGraphic" in2="effect3_dropShadow" result="shape"/>
</filter>
<filter id="filter22_ddd" x="75" y="1493.4" width="117" height="103.975" filterUnits="userSpaceOnUse" color-interpolation-filters="sRGB">
<feFlood flood-opacity="0" result="BackgroundImageFix"/>
<feColorMatrix in="SourceAlpha" type="matrix" values="0 0 0 0 0 0 0 0 0 0 0 0 0 0 0 0 0 0 127 0"/>
<feOffset dy="4"/>
<feGaussianBlur stdDeviation="2"/>
<feColorMatrix type="matrix" values="0 0 0 0 0 0 0 0 0 0 0 0 0 0 0 0 0 0 0.25 0"/>
<feBlend mode="normal" in2="BackgroundImageFix" result="effect1_dropShadow"/>
<feColorMatrix in="SourceAlpha" type="matrix" values="0 0 0 0 0 0 0 0 0 0 0 0 0 0 0 0 0 0 127 0"/>
<feOffset dy="4"/>
<feGaussianBlur stdDeviation="2"/>
<feColorMatrix type="matrix" values="0 0 0 0 0 0 0 0 0 0 0 0 0 0 0 0 0 0 0.25 0"/>
<feBlend mode="normal" in2="effect1_dropShadow" result="effect2_dropShadow"/>
<feColorMatrix in="SourceAlpha" type="matrix" values="0 0 0 0 0 0 0 0 0 0 0 0 0 0 0 0 0 0 127 0"/>
<feOffset dy="4"/>
<feGaussianBlur stdDeviation="2"/>
<feColorMatrix type="matrix" values="0 0 0 0 0 0 0 0 0 0 0 0 0 0 0 0 0 0 0.25 0"/>
<feBlend mode="normal" in2="effect2_dropShadow" result="effect3_dropShadow"/>
<feBlend mode="normal" in="SourceGraphic" in2="effect3_dropShadow" result="shape"/>
</filter>
<filter id="filter23_ddd" x="183.501" y="771.898" width="612.022" height="762.611" filterUnits="userSpaceOnUse" color-interpolation-filters="sRGB">
<feFlood flood-opacity="0" result="BackgroundImageFix"/>
<feColorMatrix in="SourceAlpha" type="matrix" values="0 0 0 0 0 0 0 0 0 0 0 0 0 0 0 0 0 0 127 0"/>
<feOffset dy="4"/>
<feGaussianBlur stdDeviation="2"/>
<feColorMatrix type="matrix" values="0 0 0 0 0 0 0 0 0 0 0 0 0 0 0 0 0 0 0.25 0"/>
<feBlend mode="normal" in2="BackgroundImageFix" result="effect1_dropShadow"/>
<feColorMatrix in="SourceAlpha" type="matrix" values="0 0 0 0 0 0 0 0 0 0 0 0 0 0 0 0 0 0 127 0"/>
<feOffset dy="4"/>
<feGaussianBlur stdDeviation="2"/>
<feColorMatrix type="matrix" values="0 0 0 0 0 0 0 0 0 0 0 0 0 0 0 0 0 0 0.25 0"/>
<feBlend mode="normal" in2="effect1_dropShadow" result="effect2_dropShadow"/>
<feColorMatrix in="SourceAlpha" type="matrix" values="0 0 0 0 0 0 0 0 0 0 0 0 0 0 0 0 0 0 127 0"/>
<feOffset dy="4"/>
<feGaussianBlur stdDeviation="2"/>
<feColorMatrix type="matrix" values="0 0 0 0 0 0 0 0 0 0 0 0 0 0 0 0 0 0 0.25 0"/>
<feBlend mode="normal" in2="effect2_dropShadow" result="effect3_dropShadow"/>
<feBlend mode="normal" in="SourceGraphic" in2="effect3_dropShadow" result="shape"/>
</filter>
<filter id="filter24_ddd" x="62.3242" y="-916" width="1632.18" height="1885.1" filterUnits="userSpaceOnUse" color-interpolation-filters="sRGB">
<feFlood flood-opacity="0" result="BackgroundImageFix"/>
<feColorMatrix in="SourceAlpha" type="matrix" values="0 0 0 0 0 0 0 0 0 0 0 0 0 0 0 0 0 0 127 0"/>
<feOffset dy="4"/>
<feGaussianBlur stdDeviation="2"/>
<feColorMatrix type="matrix" values="0 0 0 0 0 0 0 0 0 0 0 0 0 0 0 0 0 0 0.25 0"/>
<feBlend mode="normal" in2="BackgroundImageFix" result="effect1_dropShadow"/>
<feColorMatrix in="SourceAlpha" type="matrix" values="0 0 0 0 0 0 0 0 0 0 0 0 0 0 0 0 0 0 127 0"/>
<feOffset dy="4"/>
<feGaussianBlur stdDeviation="2"/>
<feColorMatrix type="matrix" values="0 0 0 0 0 0 0 0 0 0 0 0 0 0 0 0 0 0 0.25 0"/>
<feBlend mode="normal" in2="effect1_dropShadow" result="effect2_dropShadow"/>
<feColorMatrix in="SourceAlpha" type="matrix" values="0 0 0 0 0 0 0 0 0 0 0 0 0 0 0 0 0 0 127 0"/>
<feOffset dy="4"/>
<feGaussianBlur stdDeviation="2"/>
<feColorMatrix type="matrix" values="0 0 0 0 0 0 0 0 0 0 0 0 0 0 0 0 0 0 0.25 0"/>
<feBlend mode="normal" in2="effect2_dropShadow" result="effect3_dropShadow"/>
<feBlend mode="normal" in="SourceGraphic" in2="effect3_dropShadow" result="shape"/>
</filter>
<filter id="filter25_ddd" x="527" y="-590" width="794.725" height="1495.25" filterUnits="userSpaceOnUse" color-interpolation-filters="sRGB">
<feFlood flood-opacity="0" result="BackgroundImageFix"/>
<feColorMatrix in="SourceAlpha" type="matrix" values="0 0 0 0 0 0 0 0 0 0 0 0 0 0 0 0 0 0 127 0"/>
<feOffset dy="4"/>
<feGaussianBlur stdDeviation="2"/>
<feColorMatrix type="matrix" values="0 0 0 0 0 0 0 0 0 0 0 0 0 0 0 0 0 0 0.25 0"/>
<feBlend mode="normal" in2="BackgroundImageFix" result="effect1_dropShadow"/>
<feColorMatrix in="SourceAlpha" type="matrix" values="0 0 0 0 0 0 0 0 0 0 0 0 0 0 0 0 0 0 127 0"/>
<feOffset dy="4"/>
<feGaussianBlur stdDeviation="2"/>
<feColorMatrix type="matrix" values="0 0 0 0 0 0 0 0 0 0 0 0 0 0 0 0 0 0 0.25 0"/>
<feBlend mode="normal" in2="effect1_dropShadow" result="effect2_dropShadow"/>
<feColorMatrix in="SourceAlpha" type="matrix" values="0 0 0 0 0 0 0 0 0 0 0 0 0 0 0 0 0 0 127 0"/>
<feOffset dy="4"/>
<feGaussianBlur stdDeviation="2"/>
<feColorMatrix type="matrix" values="0 0 0 0 0 0 0 0 0 0 0 0 0 0 0 0 0 0 0.25 0"/>
<feBlend mode="normal" in2="effect2_dropShadow" result="effect3_dropShadow"/>
<feBlend mode="normal" in="SourceGraphic" in2="effect3_dropShadow" result="shape"/>
</filter>
<filter id="filter26_d" x="1017" y="60.4343" width="351" height="351" filterUnits="userSpaceOnUse" color-interpolation-filters="sRGB">
<feFlood flood-opacity="0" result="BackgroundImageFix"/>
<feColorMatrix in="SourceAlpha" type="matrix" values="0 0 0 0 0 0 0 0 0 0 0 0 0 0 0 0 0 0 127 0"/>
<feOffset/>
<feGaussianBlur stdDeviation="25"/>
<feColorMatrix type="matrix" values="0 0 0 0 0.933333 0 0 0 0 0.933333 0 0 0 0 0.933333 0 0 0 0.75 0"/>
<feBlend mode="normal" in2="BackgroundImageFix" result="effect1_dropShadow"/>
<feBlend mode="normal" in="SourceGraphic" in2="effect1_dropShadow" result="shape"/>
</filter>
<filter id="filter27_ddd" x="806.288" y="728.365" width="911.718" height="609.705" filterUnits="userSpaceOnUse" color-interpolation-filters="sRGB">
<feFlood flood-opacity="0" result="BackgroundImageFix"/>
<feColorMatrix in="SourceAlpha" type="matrix" values="0 0 0 0 0 0 0 0 0 0 0 0 0 0 0 0 0 0 127 0"/>
<feOffset dy="4"/>
<feGaussianBlur stdDeviation="2"/>
<feColorMatrix type="matrix" values="0 0 0 0 0 0 0 0 0 0 0 0 0 0 0 0 0 0 0.25 0"/>
<feBlend mode="normal" in2="BackgroundImageFix" result="effect1_dropShadow"/>
<feColorMatrix in="SourceAlpha" type="matrix" values="0 0 0 0 0 0 0 0 0 0 0 0 0 0 0 0 0 0 127 0"/>
<feOffset dy="4"/>
<feGaussianBlur stdDeviation="2"/>
<feColorMatrix type="matrix" values="0 0 0 0 0 0 0 0 0 0 0 0 0 0 0 0 0 0 0.25 0"/>
<feBlend mode="normal" in2="effect1_dropShadow" result="effect2_dropShadow"/>
<feColorMatrix in="SourceAlpha" type="matrix" values="0 0 0 0 0 0 0 0 0 0 0 0 0 0 0 0 0 0 127 0"/>
<feOffset dy="4"/>
<feGaussianBlur stdDeviation="2"/>
<feColorMatrix type="matrix" values="0 0 0 0 0 0 0 0 0 0 0 0 0 0 0 0 0 0 0.25 0"/>
<feBlend mode="normal" in2="effect2_dropShadow" result="effect3_dropShadow"/>
<feBlend mode="normal" in="SourceGraphic" in2="effect3_dropShadow" result="shape"/>
</filter>
<filter id="filter28_ddd" x="658.55" y="1171.95" width="242.096" height="146.121" filterUnits="userSpaceOnUse" color-interpolation-filters="sRGB">
<feFlood flood-opacity="0" result="BackgroundImageFix"/>
<feColorMatrix in="SourceAlpha" type="matrix" values="0 0 0 0 0 0 0 0 0 0 0 0 0 0 0 0 0 0 127 0"/>
<feOffset dy="4"/>
<feGaussianBlur stdDeviation="2"/>
<feColorMatrix type="matrix" values="0 0 0 0 0 0 0 0 0 0 0 0 0 0 0 0 0 0 0.25 0"/>
<feBlend mode="normal" in2="BackgroundImageFix" result="effect1_dropShadow"/>
<feColorMatrix in="SourceAlpha" type="matrix" values="0 0 0 0 0 0 0 0 0 0 0 0 0 0 0 0 0 0 127 0"/>
<feOffset dy="4"/>
<feGaussianBlur stdDeviation="2"/>
<feColorMatrix type="matrix" values="0 0 0 0 0 0 0 0 0 0 0 0 0 0 0 0 0 0 0.25 0"/>
<feBlend mode="normal" in2="effect1_dropShadow" result="effect2_dropShadow"/>
<feColorMatrix in="SourceAlpha" type="matrix" values="0 0 0 0 0 0 0 0 0 0 0 0 0 0 0 0 0 0 127 0"/>
<feOffset dy="4"/>
<feGaussianBlur stdDeviation="2"/>
<feColorMatrix type="matrix" values="0 0 0 0 0 0 0 0 0 0 0 0 0 0 0 0 0 0 0.25 0"/>
<feBlend mode="normal" in2="effect2_dropShadow" result="effect3_dropShadow"/>
<feBlend mode="normal" in="SourceGraphic" in2="effect3_dropShadow" result="shape"/>
</filter>
<filter id="filter29_ddd" x="1099" y="147" width="185" height="185" filterUnits="userSpaceOnUse" color-interpolation-filters="sRGB">
<feFlood flood-opacity="0" result="BackgroundImageFix"/>
<feColorMatrix in="SourceAlpha" type="matrix" values="0 0 0 0 0 0 0 0 0 0 0 0 0 0 0 0 0 0 127 0"/>
<feOffset dy="4"/>
<feGaussianBlur stdDeviation="2"/>
<feColorMatrix type="matrix" values="0 0 0 0 0 0 0 0 0 0 0 0 0 0 0 0 0 0 0.25 0"/>
<feBlend mode="normal" in2="BackgroundImageFix" result="effect1_dropShadow"/>
<feColorMatrix in="SourceAlpha" type="matrix" values="0 0 0 0 0 0 0 0 0 0 0 0 0 0 0 0 0 0 127 0"/>
<feOffset dy="4"/>
<feGaussianBlur stdDeviation="2"/>
<feColorMatrix type="matrix" values="0 0 0 0 0 0 0 0 0 0 0 0 0 0 0 0 0 0 0.25 0"/>
<feBlend mode="normal" in2="effect1_dropShadow" result="effect2_dropShadow"/>
<feColorMatrix in="SourceAlpha" type="matrix" values="0 0 0 0 0 0 0 0 0 0 0 0 0 0 0 0 0 0 127 0"/>
<feOffset dy="4"/>
<feGaussianBlur stdDeviation="2"/>
<feColorMatrix type="matrix" values="0 0 0 0 0 0 0 0 0 0 0 0 0 0 0 0 0 0 0.25 0"/>
<feBlend mode="normal" in2="effect2_dropShadow" result="effect3_dropShadow"/>
<feBlend mode="normal" in="SourceGraphic" in2="effect3_dropShadow" result="shape"/>
</filter>
<linearGradient id="paint0_linear" x1="717" y1="647.797" x2="717" y2="4322" gradientUnits="userSpaceOnUse">
<stop offset="0.169063" stop-color="#17331B"/>
<stop offset="1" stop-color="#1E8A50"/>
</linearGradient>
<linearGradient id="paint1_linear" x1="1368.12" y1="1472.86" x2="1369.3" y2="2177.7" gradientUnits="userSpaceOnUse">
<stop stop-color="#386A3F"/>
<stop offset="1" stop-color="#334171"/>
</linearGradient>
<radialGradient id="paint2_radial" cx="0" cy="0" r="1" gradientUnits="userSpaceOnUse" gradientTransform="translate(1394.5 -485.493) rotate(119.734) scale(1260.16 3728.72)">
<stop stop-color="#E4FAFF" stop-opacity="0.62"/>
<stop offset="0.877582" stop-color="#1B365D" stop-opacity="0.94"/>
</radialGradient>
<linearGradient id="paint3_linear" x1="1230.94" y1="-499.07" x2="680.319" y2="856.741" gradientUnits="userSpaceOnUse">
<stop offset="0.229167" stop-color="#234065" stop-opacity="0.87"/>
<stop offset="1" stop-color="#A1D6E4" stop-opacity="0.1"/>
</linearGradient>
<linearGradient id="paint4_linear" x1="842.002" y1="1.87466e-06" x2="843.267" y2="757.336" gradientUnits="userSpaceOnUse">
<stop stop-color="#386A3F"/>
<stop offset="1" stop-color="#334171"/>
</linearGradient>
</defs>
</svg>
