<svg width="1080" height="7413" viewBox="0 0 1080 7413" fill="none" xmlns="http://www.w3.org/2000/svg">
<path d="M49.3889 1036.33C232.092 1190.37 217.015 1363.73 186.638 1431.16L433.354 1614C625.244 1521.63 1038.25 1293.68 1155.16 1120.89C1301.31 904.906 1150.72 862.623 1127.94 618.068C1109.71 422.425 1223.7 398.655 1282.97 411.225L1443 -429.288L363.803 -635.682C357.691 -504.262 323.573 -226.339 236 -166C126.534 -90.5765 -375.14 21.5378 -361.804 411.225C-348.468 800.913 -178.99 843.767 49.3889 1036.33Z" fill="url(#paint0_radial)"/>
<path d="M468.435 1083.5C468.435 1199.5 408.102 1273.83 377.935 1296.5C928.435 1102 703.435 1047 961.935 648.5C1168.74 329.7 1003.94 -26.3333 937.435 -151C950.268 -82.3333 947.835 91.7 835.435 238.5C694.935 422 431.935 279 307.435 512.5C182.935 746 468.435 938.5 468.435 1083.5Z" fill="url(#paint1_linear)"/>
<mask id="mask0" mask-type="alpha" maskUnits="userSpaceOnUse" x="-140" y="1074" width="564" height="554">
<rect x="423.477" y="1628" width="563.477" height="554" transform="rotate(180 423.477 1628)" fill="url(#paint2_linear)"/>
</mask>
<g mask="url(#mask0)">
<path d="M401.327 1649.75L287.235 1355.69L259.512 1411.64L201.933 1283.08L148.262 1397.44L69.715 1219.55L29.1966 1328.46L-0.659149 1295.79L-165.932 1649.75L36.6678 1635.22L36.6605 1635.23L43.0581 1634.76L176.343 1624.88L401.327 1649.75Z" fill="#1B365D"/>
<path d="M320.808 1431.35L293.983 1361.84C291.744 1356.04 283.616 1355.82 281.067 1361.49L252.289 1425.56C251.578 1427.14 251.48 1428.93 252.016 1430.58L255.016 1439.84C256.776 1445.27 263.941 1446.42 267.318 1441.82L273.634 1433.22C276.765 1428.96 283.314 1429.58 285.593 1434.35L289.267 1442.05C291.572 1446.88 298.223 1447.44 301.306 1443.07L303.82 1439.5C305.686 1436.85 309.357 1436.24 311.979 1438.14C316.663 1441.54 322.892 1436.75 320.808 1431.35Z" fill="#EEEEEE"/>
<path d="M215.698 1358.52L229.522 1340.52C231.106 1338.45 231.415 1335.68 230.325 1333.32L207.739 1284.38C205.175 1278.83 197.219 1279 194.904 1284.66L168.06 1350.31C166.992 1352.92 170.458 1354.97 172.235 1352.78C173.441 1351.29 175.814 1351.7 176.452 1353.51L179.161 1361.19C181.207 1367 189.209 1367.53 192.001 1362.04L193.438 1359.22C195.725 1354.73 201.958 1354.25 204.898 1358.35C207.529 1362.01 212.951 1362.1 215.698 1358.52Z" fill="#EEEEEE"/>
<path d="M92.6082 1367.05L111.545 1321.62C111.901 1320.77 112.084 1319.85 112.084 1318.93V1310.9C112.084 1309.94 111.884 1308.98 111.496 1308.09L75.1104 1225C72.6139 1219.3 64.4755 1219.45 62.1881 1225.24L32.2237 1301.06C30.5457 1305.31 25.3168 1306.84 21.6151 1304.16L0.937408 1289.23C-2.73615 1286.58 -7.92413 1288.06 -9.63986 1292.25L-46.6501 1382.72C-47.417 1384.6 -47.3343 1386.71 -46.4235 1388.52L-39.8562 1401.57C-37.591 1406.07 -31.4581 1406.77 -28.2302 1402.9L-13.7405 1385.55C-10.356 1381.49 -3.87192 1382.5 -1.88235 1387.39L7.84848 1411.32C9.98328 1416.57 17.1454 1417.24 20.2161 1412.48L56.246 1356.59C58.6494 1352.87 63.8698 1352.29 67.0343 1355.39L81.2422 1369.35C84.7773 1372.82 90.7017 1371.62 92.6082 1367.05Z" fill="#EEEEEE"/>
<path d="M320.808 1431.35L293.983 1361.84C291.744 1356.04 283.616 1355.82 281.067 1361.49L252.289 1425.56C251.578 1427.14 251.48 1428.93 252.016 1430.58L255.016 1439.84C256.776 1445.27 263.941 1446.42 267.318 1441.82L273.634 1433.22C276.765 1428.96 283.314 1429.58 285.593 1434.35L289.267 1442.05C291.572 1446.88 298.223 1447.44 301.306 1443.07L303.82 1439.5C305.686 1436.85 309.357 1436.24 311.979 1438.14C316.663 1441.54 322.892 1436.75 320.808 1431.35Z" stroke="black"/>
<path d="M215.698 1358.52L229.522 1340.52C231.106 1338.45 231.415 1335.68 230.325 1333.32L207.739 1284.38C205.175 1278.83 197.219 1279 194.904 1284.66L168.06 1350.31C166.992 1352.92 170.458 1354.97 172.235 1352.78C173.441 1351.29 175.814 1351.7 176.452 1353.51L179.161 1361.19C181.207 1367 189.209 1367.53 192.001 1362.04L193.438 1359.22C195.725 1354.73 201.958 1354.25 204.898 1358.35C207.529 1362.01 212.951 1362.1 215.698 1358.52Z" stroke="black"/>
<path d="M92.6082 1367.05L111.545 1321.62C111.901 1320.77 112.084 1319.85 112.084 1318.93V1310.9C112.084 1309.94 111.884 1308.98 111.496 1308.09L75.1104 1225C72.6139 1219.3 64.4755 1219.45 62.1881 1225.24L32.2237 1301.06C30.5457 1305.31 25.3168 1306.84 21.6151 1304.16L0.937408 1289.23C-2.73615 1286.58 -7.92413 1288.06 -9.63986 1292.25L-46.6501 1382.72C-47.417 1384.6 -47.3343 1386.71 -46.4235 1388.52L-39.8562 1401.57C-37.591 1406.07 -31.4581 1406.77 -28.2302 1402.9L-13.7405 1385.55C-10.356 1381.49 -3.87192 1382.5 -1.88235 1387.39L7.84848 1411.32C9.98328 1416.57 17.1454 1417.24 20.2161 1412.48L56.246 1356.59C58.6494 1352.87 63.8698 1352.29 67.0343 1355.39L81.2422 1369.35C84.7773 1372.82 90.7017 1371.62 92.6082 1367.05Z" stroke="black"/>
</g>
<mask id="mask1" mask-type="alpha" maskUnits="userSpaceOnUse" x="344" y="821" width="857" height="684">
<rect width="856.693" height="683.094" transform="matrix(1 0 0 -1 344 1504.09)" fill="url(#paint3_linear)"/>
</mask>
<g mask="url(#mask1)">
<path d="M377.677 1530.92L551.138 1168.33L593.287 1237.32L680.828 1078.8L762.428 1219.81L881.849 1000.46L943.452 1134.75L988.844 1094.47L1240.12 1530.92L932.093 1512.99L932.104 1513.01L922.377 1512.43L719.736 1500.25L377.677 1530.92Z" fill="#17331B"/>
<path d="M499.152 1263.6L544.214 1168.9C546.661 1163.76 553.898 1163.54 556.658 1168.52L604.339 1254.61C605.358 1256.44 605.496 1258.64 604.716 1260.6L597.878 1277.7C595.957 1282.51 589.663 1283.64 586.189 1279.8L567.685 1259.36C564.515 1255.86 558.858 1256.44 556.463 1260.51L545.153 1279.73C542.727 1283.85 536.974 1284.38 533.836 1280.77L524.582 1270.13C522.369 1267.58 518.656 1266.97 515.749 1268.68L509.022 1272.64C503.074 1276.14 496.186 1269.83 499.152 1263.6Z" fill="#EEEEEE"/>
<path d="M663.031 1175.13L638.532 1149.25C636.414 1147.01 636.008 1143.65 637.532 1140.97L675.798 1073.73C678.561 1068.88 685.617 1069.06 688.132 1074.04L731.528 1160.11C733.418 1163.85 728.585 1167.35 725.62 1164.38C723.779 1162.54 720.661 1163.13 719.622 1165.52L712.486 1181.94C710.242 1187.1 703.131 1187.64 700.137 1182.87L691.092 1168.46C688.608 1164.5 683.019 1164.04 679.922 1167.54L673.356 1174.96C670.632 1178.03 665.856 1178.11 663.031 1175.13Z" fill="#EEEEEE"/>
<path d="M849.192 1186.51L818.206 1126.23C817.698 1125.24 817.432 1124.15 817.432 1123.03V1113.07C817.432 1111.91 817.721 1110.76 818.273 1109.74L877.42 1000.2C880.128 995.181 887.375 995.332 889.872 1000.46L940.57 1104.5C942.356 1108.17 946.883 1109.54 950.401 1107.48L990.947 1083.73C994.431 1081.69 998.916 1083.01 1000.73 1086.62L1058.83 1201.8C1059.93 1203.97 1059.82 1206.57 1058.53 1208.64L1045.74 1229.25C1043.38 1233.05 1038.12 1233.69 1034.91 1230.58L1004.23 1200.77C1000.84 1197.47 995.216 1198.42 993.095 1202.65L973.112 1242.5C970.819 1247.08 964.558 1247.73 961.375 1243.72L899.607 1166.02C897.199 1163 892.792 1162.49 889.766 1164.9L859.779 1188.79C856.323 1191.54 851.212 1190.44 849.192 1186.51Z" fill="#EEEEEE"/>
<path d="M499.152 1263.6L544.214 1168.9C546.661 1163.76 553.898 1163.54 556.658 1168.52L604.339 1254.61C605.358 1256.44 605.496 1258.64 604.716 1260.6L597.878 1277.7C595.957 1282.51 589.663 1283.64 586.189 1279.8L567.685 1259.36C564.515 1255.86 558.858 1256.44 556.463 1260.51L545.153 1279.73C542.727 1283.85 536.974 1284.38 533.836 1280.77L524.582 1270.13C522.369 1267.58 518.656 1266.97 515.749 1268.68L509.022 1272.64C503.074 1276.14 496.186 1269.83 499.152 1263.6Z" stroke="black"/>
<path d="M663.031 1175.13L638.532 1149.25C636.414 1147.01 636.008 1143.65 637.532 1140.97L675.798 1073.73C678.561 1068.88 685.617 1069.06 688.132 1074.04L731.528 1160.11C733.418 1163.85 728.585 1167.35 725.62 1164.38C723.779 1162.54 720.661 1163.13 719.622 1165.52L712.486 1181.94C710.242 1187.1 703.131 1187.64 700.137 1182.87L691.092 1168.46C688.608 1164.5 683.019 1164.04 679.922 1167.54L673.356 1174.96C670.632 1178.03 665.856 1178.11 663.031 1175.13Z" stroke="black"/>
<path d="M849.192 1186.51L818.206 1126.23C817.698 1125.24 817.432 1124.15 817.432 1123.03V1113.07C817.432 1111.91 817.721 1110.76 818.273 1109.74L877.42 1000.2C880.128 995.181 887.375 995.332 889.872 1000.46L940.57 1104.5C942.356 1108.17 946.883 1109.54 950.401 1107.48L990.947 1083.73C994.431 1081.69 998.916 1083.01 1000.73 1086.62L1058.83 1201.8C1059.93 1203.97 1059.82 1206.57 1058.53 1208.64L1045.74 1229.25C1043.38 1233.05 1038.12 1233.69 1034.91 1230.58L1004.23 1200.77C1000.84 1197.47 995.216 1198.42 993.095 1202.65L973.112 1242.5C970.819 1247.08 964.558 1247.73 961.375 1243.72L899.607 1166.02C897.199 1163 892.792 1162.49 889.766 1164.9L859.779 1188.79C856.323 1191.54 851.212 1190.44 849.192 1186.51Z" stroke="black"/>
</g>
<path d="M503 1457C143.267 1430.09 -142.358 1698.14 -295 1801.41V7412.5H1181L1121 1208C1081.42 1408.95 862.733 1483.91 503 1457Z" fill="url(#paint4_linear)"/>
<path fill-rule="evenodd" clip-rule="evenodd" d="M272.194 2720.02C160.155 2704.87 25.287 2720.65 -64.886 2741.05L-109 2545.97C-5.33972 2522.53 155.092 2502.37 298.994 2521.82C435.966 2540.35 609.888 2604.83 638.911 2794.92C666.063 2972.75 619.121 3091.72 567.779 3196.04C560.887 3210.05 554.076 3223.56 547.42 3236.76C505.471 3319.98 469.662 3391.01 458.497 3496.08C454.115 3537.31 468.772 3591.03 508.119 3663.48C541.789 3725.47 586.645 3789.34 635.998 3859.62C643.82 3870.76 651.755 3882.06 659.776 3893.54C716.042 3974.06 776.393 4063.24 815.843 4154.07C855.585 4245.58 879.39 4350.55 847.438 4458.41C820.026 4550.95 763.213 4643.83 703.432 4731.18C675.57 4771.89 645.551 4813.49 615.767 4854.77C613.002 4858.6 610.239 4862.43 607.48 4866.26C574.687 4911.73 542.16 4957.06 511.158 5003.04C383.632 5192.18 301.506 5365.73 336.039 5535.02C375.076 5726.39 500.214 5944.18 656.11 6162.37C760.761 6308.84 873.041 6447.41 975.659 6574.05C1025.89 6636.03 1073.8 6695.16 1117.38 6750.97C1217.16 6878.76 1297.48 6962.56 1355.88 7014.91C1385.11 7041.11 1408.21 7058.86 1424.92 7070.16C1439.91 7080.29 1446.81 7083.23 1446.78 7083.32C1446.77 7083.35 1446.39 7083.22 1445.66 7082.99L1386.45 7274.03C1362.38 7266.57 1336.97 7252.12 1312.9 7235.85C1287.12 7218.41 1256.84 7194.72 1222.38 7163.83C1153.42 7102.01 1065.16 7009.06 959.738 6874.05C920.271 6823.51 874.713 6767.26 825.827 6706.91C721.229 6577.77 601.394 6429.82 493.379 6278.64C334.9 6056.84 188.038 5810.13 140.075 5575C87.6079 5317.79 216.982 5081.59 345.331 4891.23C378.298 4842.33 412.513 4794.68 445.265 4749.27C447.971 4745.52 450.665 4741.78 453.346 4738.07C483.44 4696.36 512.005 4656.76 538.385 4618.22C596.963 4532.63 637.837 4461.82 655.676 4401.61C668.974 4356.72 662.529 4303.13 632.396 4233.74C601.971 4163.69 552.821 4089.65 495.838 4008.1C488.417 3997.48 480.842 3986.71 473.177 3975.81C424.422 3906.46 372.007 3831.91 332.37 3758.93C286.842 3675.11 248.749 3577.2 259.617 3474.94C274.904 3331.09 327.819 3227.07 370.244 3143.67C376.56 3131.25 382.643 3119.29 388.335 3107.73C431.243 3020.54 459.551 2945.27 441.203 2825.1C433.826 2776.79 391.164 2736.11 272.194 2720.02Z" fill="#392512"/>
<path d="M923.415 56.0142L922.701 56.7717C923.264 56.9703 923.857 57.0727 924.455 57.0746C925.315 57.0831 926.165 56.892 926.939 56.5165C927.713 56.141 928.389 55.5913 928.914 54.9105V54.9105C929.475 54.1598 929.836 53.2794 929.964 52.3515C930.091 51.4236 929.981 50.4785 929.644 49.6045C929.308 48.7305 928.754 47.9562 928.037 47.3538C927.319 46.7515 926.461 46.3409 925.541 46.1603C924.622 45.9798 923.672 46.0351 922.779 46.3213C921.887 46.6075 921.082 47.1151 920.44 47.7967C919.797 48.4783 919.338 49.3117 919.105 50.2189C918.872 51.1261 918.872 52.0776 919.107 52.9843L919.648 52.4L923.415 56.0142ZM922.788 50.3008C922.985 50.0446 923.237 49.8358 923.525 49.6897C923.814 49.5436 924.131 49.464 924.455 49.4567C924.9 49.4535 925.334 49.5982 925.689 49.8679C926.049 50.1125 926.328 50.4602 926.487 50.8654C926.647 51.2707 926.681 51.7148 926.584 52.1395C926.487 52.5643 926.265 52.9499 925.945 53.2461C925.625 53.5422 925.224 53.735 924.793 53.7993C924.362 53.8636 923.921 53.7964 923.529 53.6065C923.137 53.4165 922.811 53.1127 922.595 52.7347C922.378 52.3568 922.281 51.9222 922.315 51.488C922.349 51.0537 922.514 50.6399 922.788 50.3008Z" fill="white"/>
<path d="M945.347 37.1208H945.52C945.347 36.9693 945.174 36.7745 944.979 36.623C943.796 35.7549 942.317 35.3893 940.865 35.6059C940.146 35.7085 939.454 35.9527 938.83 36.3241C938.206 36.6956 937.661 37.187 937.228 37.7701C936.617 38.5841 936.243 39.5511 936.148 40.5643C936.052 41.5774 936.239 42.5972 936.687 43.511C937.135 44.4248 937.827 45.1969 938.687 45.742C939.547 46.2871 940.54 46.584 941.558 46.5999H942.403C943.119 46.4968 943.807 46.2524 944.428 45.8809C945.048 45.5093 945.589 45.0181 946.018 44.4357V44.4357C946.49 43.7926 946.815 43.0539 946.971 42.2715H946.646L945.347 37.1208ZM943.355 42.2715C943.022 42.709 942.534 43.003 941.991 43.0939C941.597 43.1164 941.204 43.0305 940.855 42.8456C940.505 42.6607 940.214 42.3838 940.011 42.0449C939.808 41.706 939.701 41.3181 939.703 40.9232C939.705 40.5282 939.815 40.1413 940.021 39.8044C940.355 39.3669 940.842 39.0729 941.385 38.982H941.688C942.132 38.9894 942.563 39.1329 942.922 39.3932C943.339 39.7333 943.615 40.2165 943.695 40.7487C943.775 41.2809 943.654 41.8238 943.355 42.2715V42.2715Z" fill="white"/>
<path d="M920.926 139.119C921.746 139.725 922.718 140.093 923.735 140.181C924.751 140.269 925.772 140.074 926.685 139.616C926.425 139.443 926.143 139.27 925.905 139.075L929.088 134.877L929.694 135.31C929.77 134.822 929.77 134.326 929.694 133.838C929.588 133.118 929.341 132.426 928.966 131.802C928.592 131.178 928.098 130.634 927.512 130.201C926.927 129.769 926.261 129.456 925.555 129.282C924.848 129.107 924.113 129.075 923.394 129.185C921.944 129.409 920.642 130.197 919.77 131.376C918.898 132.556 918.528 134.032 918.739 135.483C918.847 136.203 919.095 136.894 919.47 137.518C919.846 138.142 920.34 138.686 920.926 139.119ZM922.549 133.427C922.883 132.989 923.371 132.695 923.913 132.604H924.173C924.617 132.612 925.048 132.755 925.407 133.016C925.83 133.356 926.11 133.844 926.19 134.381C926.27 134.918 926.145 135.466 925.84 135.916C925.499 136.339 925.012 136.618 924.474 136.698C923.937 136.778 923.389 136.653 922.939 136.348C922.501 136.015 922.207 135.528 922.116 134.985C922.054 134.429 922.209 133.871 922.549 133.427Z" fill="white"/>
<path d="M952.794 72.8299L951.452 73.4359C952.311 73.9648 953.301 74.2423 954.31 74.2366C955.453 74.2434 956.57 73.8969 957.508 73.2446C958.446 72.5922 959.159 71.666 959.55 70.5926C959.942 69.5192 959.991 68.3512 959.693 67.2485C959.394 66.1458 958.762 65.1624 957.882 64.4329C956.755 63.4856 955.301 63.0192 953.834 63.1344C952.433 63.2501 951.129 63.8977 950.191 64.9442C949.253 65.9907 948.751 67.3566 948.789 68.7613C949.46 68.4366 950.131 68.1337 950.824 67.8523L952.794 72.8299ZM952.794 67.3762C952.965 67.1627 953.178 66.9869 953.421 66.8603C953.663 66.7336 953.929 66.6587 954.202 66.6404H954.375C954.856 66.648 955.32 66.8156 955.695 67.1165C956.044 67.3803 956.304 67.7433 956.442 68.1578C956.58 68.5722 956.589 69.0187 956.469 69.4386C956.348 69.8584 956.103 70.2319 955.766 70.5101C955.429 70.7882 955.016 70.9579 954.581 70.9969C954.146 71.0358 953.709 70.9422 953.328 70.7284C952.947 70.5145 952.639 70.1904 952.446 69.7987C952.253 69.4069 952.183 68.9659 952.245 68.5335C952.307 68.1011 952.499 67.6977 952.794 67.3762V67.3762Z" fill="white"/>
<path d="M946.798 131.522C946.977 130.91 946.926 130.253 946.655 129.675C946.384 129.097 945.911 128.638 945.325 128.384C939.361 125.76 934.151 121.682 930.17 116.525L928.005 118.083L924.888 113.754L927.204 112.066C922.565 104.008 920.976 94.5523 922.726 85.4211C924.477 76.2899 929.451 68.0913 936.742 62.3188C944.033 56.5464 953.156 53.5843 962.449 53.9723C971.741 54.3604 980.585 58.0726 987.37 64.4328L988.344 65.3418C989.631 65.283 990.921 65.3409 992.197 65.5149C993.788 65.7698 995.333 66.2508 996.787 66.9433C995.036 64.5834 993.048 62.408 990.855 60.4507C984.553 54.6434 976.694 50.7986 968.24 49.387C959.786 47.9755 951.104 49.0584 943.256 52.5032C935.408 55.948 928.735 61.6052 924.054 68.7824C919.373 75.9596 916.886 84.3455 916.899 92.9134C916.925 95.5141 917.186 98.1072 917.678 100.661L919.843 99.947L921.489 104.968L918.869 105.812C920.599 111.494 923.461 116.768 927.282 121.316C931.103 125.864 935.804 129.594 941.104 132.28L938.679 140.655C940.303 141.413 941.926 142.084 943.593 142.668L946.798 131.522Z" fill="white"/>
<path d="M1007.03 94.9911C1005.03 109.424 997.423 122.487 985.854 131.349C980.961 134.639 969.638 139.27 962.494 134.033C960.077 132.279 958.156 129.931 956.915 127.216C955.675 124.501 955.158 121.511 955.414 118.537C955.686 115.497 956.598 112.548 958.09 109.885C959.583 107.222 961.622 104.905 964.074 103.085C974.423 94.9478 973.752 89.0612 973.773 86.659C973.773 81.9411 976.891 66.8568 990.335 67.5926C989.556 66.7053 988.885 66.0344 988.365 65.5366C984.99 65.6834 981.763 66.9644 979.207 69.1724C973.124 74.2799 971.803 83.4344 971.803 86.5291V87.0053C971.803 89.3859 971.803 94.3418 962.862 101.397C960.197 103.392 957.985 105.927 956.369 108.836C954.754 111.745 953.772 114.962 953.487 118.278C953.178 121.6 953.743 124.945 955.125 127.981C956.508 131.018 958.659 133.641 961.368 135.591C964.046 137.463 967.259 138.42 970.526 138.318C976.387 138.096 982.073 136.261 986.958 133.016C998.992 123.797 1006.92 110.217 1009.02 95.2075C1010.84 79.1493 1003.78 70.3411 996.787 67.0732C997.795 68.405 998.727 69.7922 999.58 71.2284C1004.43 75.2538 1008.41 82.6769 1007.03 94.9911Z" fill="white"/>
<path d="M988.344 65.4285C988.863 65.9262 989.534 66.5971 990.314 67.4844C990.833 67.4844 991.353 67.4844 991.916 67.5926C994.748 68.0786 997.396 69.3198 999.58 71.1852C998.728 69.749 997.795 68.3618 996.787 67.03C995.333 66.3375 993.788 65.8565 992.197 65.6016C990.921 65.4276 989.631 65.3697 988.344 65.4285V65.4285Z" fill="white"/>
<path d="M973.752 86.5507C973.752 88.9529 974.401 94.8395 964.053 102.977C961.601 104.796 959.561 107.114 958.069 109.777C956.576 112.44 955.664 115.389 955.393 118.429C955.117 121.42 955.625 124.432 956.866 127.168C958.107 129.903 960.039 132.269 962.472 134.033C969.617 139.27 980.939 134.639 985.832 131.349C997.402 122.487 1005.01 109.423 1007.01 94.991C1008.39 82.6768 1004.41 75.1887 999.558 71.185C1001.05 73.689 1002.26 76.3534 1003.15 79.1275C1005.17 84.0644 1005.82 89.4554 1005.04 94.7313C1003.13 108.583 995.86 121.133 984.793 129.683C979.814 133.037 969.638 136.76 963.749 132.41C961.602 130.874 959.892 128.804 958.791 126.405C957.69 124.006 957.235 121.361 957.471 118.732V118.537C957.711 115.785 958.533 113.114 959.885 110.704C961.236 108.293 963.085 106.198 965.308 104.557C975.852 96.2678 975.808 89.7537 975.787 86.9619V86.5507C975.787 84.1484 976.934 76.3141 981.827 72.1156C983.927 70.3172 986.619 69.361 989.383 69.432C990.107 69.4349 990.83 69.4855 991.548 69.5835L992.046 69.6917C991.418 68.8693 990.79 68.1335 990.227 67.5276C976.869 66.7484 973.773 81.7462 973.752 86.5507Z" fill="white"/>
<path d="M1003.17 79.1277C1002.28 76.3535 1001.07 73.6891 999.58 71.1851C997.396 69.3197 994.748 68.0785 991.916 67.5926C991.353 67.5926 990.834 67.5926 990.314 67.4844C990.877 68.1336 991.505 68.8694 992.133 69.6486C994.595 70.2351 996.882 71.4014 998.803 73.0502C1000.72 74.699 1002.22 76.7827 1003.17 79.1277V79.1277Z" fill="white"/>
<path d="M909.321 103.388C907.653 95.1181 907.997 86.5683 910.325 78.4592C912.654 70.3502 916.898 62.9194 922.701 56.7933C922.15 56.6173 921.631 56.3543 921.164 56.0142C920.138 55.2538 919.411 54.1591 919.107 52.9194C912.277 60.037 907.381 68.7818 904.884 78.3233C902.387 87.8648 902.372 97.886 904.84 107.435C904.926 107.785 905.084 108.113 905.303 108.398C905.522 108.684 905.797 108.922 906.112 109.097C906.427 109.271 906.774 109.379 907.133 109.414C907.491 109.448 907.853 109.408 908.196 109.296L918.847 105.834C918.345 104.137 917.955 102.409 917.678 100.661L909.321 103.388Z" fill="white"/>
<path d="M921.164 55.9926C921.631 56.3327 922.15 56.5957 922.701 56.7717L923.416 56.0142L919.648 52.3135L919.107 52.8978C919.411 54.1375 920.138 55.2322 921.164 55.9926V55.9926Z" fill="white"/>
<path d="M919.843 99.947L917.678 100.661C917.977 102.403 918.389 104.124 918.912 105.812L921.532 104.968L919.843 99.947Z" fill="white"/>
<path d="M928.676 138.015C928.158 138.724 927.474 139.296 926.685 139.681C936.599 147.046 948.626 151.016 960.978 151C968.598 151 976.143 149.5 983.182 146.585C990.222 143.67 996.618 139.398 1002.01 134.012C1007.39 128.626 1011.67 122.232 1014.58 115.196C1017.5 108.159 1019 100.617 1019 93C1019 85.3833 1017.5 77.8412 1014.58 70.8043C1011.67 63.7675 1007.39 57.3736 1002.01 51.9878C996.618 46.602 990.222 42.3298 983.182 39.415C976.143 36.5002 968.598 35 960.978 35C955.752 35.0338 950.554 35.7616 945.52 37.1642C946.189 37.8064 946.685 38.6076 946.962 39.4931C947.238 40.3785 947.286 41.3195 947.1 42.2284C955.068 40.0313 963.44 39.7391 971.541 41.3754C979.642 43.0118 987.244 46.5307 993.733 51.6476C1000.22 56.7646 1005.41 63.3361 1008.89 70.8307C1012.37 78.3254 1014.03 86.5329 1013.75 94.7897C1013.47 103.046 1011.25 111.121 1007.26 118.36C1003.28 125.599 997.65 131.8 990.826 136.461C984.002 141.122 976.177 144.113 967.983 145.191C959.789 146.269 951.456 145.405 943.658 142.668L942.987 145.027L937.921 143.577L938.744 140.655C935.584 139.166 932.575 137.376 929.759 135.31C929.654 136.294 929.28 137.23 928.676 138.015V138.015Z" fill="white"/>
<path d="M945.52 37.0776H945.347L946.776 42.1635H947.101C947.29 41.2513 947.244 40.3061 946.968 39.4165C946.691 38.5268 946.193 37.722 945.52 37.0776V37.0776Z" fill="white"/>
<path d="M925.905 139.075C926.143 139.27 926.425 139.443 926.685 139.617C927.474 139.231 928.158 138.659 928.676 137.95V137.95C929.246 137.177 929.597 136.265 929.694 135.31L929.088 134.877L925.905 139.075Z" fill="white"/>
<path d="M942.922 145.027L943.658 142.668C941.991 142.084 940.367 141.413 938.744 140.655L937.921 143.577L942.922 145.027Z" fill="white"/>
<path d="M941.709 108.236C942.245 107.841 942.613 107.259 942.742 106.606C942.87 105.954 942.749 105.276 942.402 104.708C940.771 102.104 939.707 99.1851 939.281 96.1421C938.855 93.0991 939.077 90.0005 939.931 87.0489C940.785 84.0972 942.253 81.359 944.238 79.0132C946.223 76.6674 948.682 74.7668 951.452 73.4357C951.197 73.295 950.958 73.1282 950.737 72.938C950.142 72.4328 949.66 71.807 949.324 71.1019C948.988 70.3968 948.806 69.6284 948.789 68.8477C945.591 70.4444 942.74 72.6574 940.4 75.3593C938.06 78.0612 936.278 81.1988 935.155 84.5917C934.032 87.9846 933.592 91.5658 933.858 95.1295C934.125 98.6932 935.093 102.169 936.708 105.357L927.312 112.196C928.193 113.7 929.169 115.146 930.235 116.525L941.709 108.236Z" fill="white"/>
<path d="M950.738 72.938C950.958 73.1282 951.197 73.295 951.452 73.4357L952.794 72.8298L950.824 67.9387C950.131 68.2201 949.46 68.523 948.789 68.8477C948.806 69.6285 948.988 70.3968 949.324 71.1019C949.66 71.807 950.142 72.4328 950.738 72.938V72.938Z" fill="white"/>
<path d="M928.114 118.148L930.279 116.59C929.213 115.211 928.236 113.765 927.356 112.261L925.039 113.949L928.114 118.148Z" fill="white"/>
<path d="M991.764 68.2201C998.562 69.194 1008.87 76.7686 1006.77 95.4022C1004.8 109.738 997.255 122.719 985.767 131.522C980.918 134.79 969.66 139.4 962.58 134.184C960.165 132.438 958.247 130.092 957.017 127.379C955.787 124.665 955.286 121.677 955.565 118.71C955.837 115.685 956.75 112.752 958.243 110.106C959.736 107.461 961.775 105.163 964.225 103.366C974.509 95.3156 973.838 89.4507 973.86 87.0701C973.773 82.1791 977.042 66.1209 991.764 68.2201Z" fill="white"/>
<defs>
<radialGradient id="paint0_radial" cx="0" cy="0" r="1" gradientUnits="userSpaceOnUse" gradientTransform="translate(1114.05 11.8252) rotate(119.714) scale(1401.31 4144.67)">
<stop stop-color="#E4FAFF" stop-opacity="0.62"/>
<stop offset="0.877582" stop-color="#1B365D" stop-opacity="0.94"/>
</radialGradient>
<linearGradient id="paint1_linear" x1="975.935" y1="-62.5" x2="450.435" y2="1267" gradientUnits="userSpaceOnUse">
<stop offset="0.229167" stop-color="#234065" stop-opacity="0.87"/>
<stop offset="1" stop-color="#A1D6E4" stop-opacity="0.1"/>
</linearGradient>
<linearGradient id="paint2_linear" x1="951.996" y1="1628" x2="953.075" y2="2182" gradientUnits="userSpaceOnUse">
<stop stop-color="#386A3F"/>
<stop offset="1" stop-color="#334171"/>
</linearGradient>
<linearGradient id="paint3_linear" x1="803.545" y1="1.69088e-06" x2="804.624" y2="683.094" gradientUnits="userSpaceOnUse">
<stop stop-color="#386A3F"/>
<stop offset="1" stop-color="#334171"/>
</linearGradient>
<linearGradient id="paint4_linear" x1="443" y1="956" x2="443" y2="4763" gradientUnits="userSpaceOnUse">
<stop offset="0.169063" stop-color="#17331B"/>
<stop offset="1" stop-color="#1E8A50"/>
</linearGradient>
</defs>
</svg>
