<svg width="1445" height="259" viewBox="0 0 1445 259" fill="none" xmlns="http://www.w3.org/2000/svg">
<path d="M1447.62 41.0934L1460.05 273.389L473.138 273.389C245.852 328.93 267.426 133.338 593.053 114.774C631.265 112.596 666.749 115.833 704.438 82.8309C723.521 66.1207 755.834 62.8404 796.256 61.5354C853.736 59.6797 882.897 68.905 921.188 69.3054C1039.19 70.5394 957.313 41.0934 1058.58 10.2872C1159.84 -20.519 1447.62 41.0934 1447.62 41.0934Z" fill="#102037"/>
<path d="M328 100.5C172.8 4.49997 -40.3333 60.5 -127.5 100.5L-96 510L872 485.5C812 376 716.5 386.5 586 361.5C455.5 336.5 522 220.5 328 100.5Z" fill="#17331B"/>
<path d="M1447.62 41.0934L1460.05 273.389L473.137 273.389C245.851 328.93 267.425 133.338 593.052 114.774C631.264 112.596 666.748 115.833 704.437 82.8309C723.52 66.1207 755.833 62.8404 796.255 61.5354C853.736 59.6796 882.896 68.9049 921.187 69.3054C1039.19 70.5394 957.312 41.0934 1058.58 10.2872C1159.84 -20.519 1447.62 41.0934 1447.62 41.0934Z" fill="url(#paint0_linear)"/>
<defs>
<linearGradient id="paint0_linear" x1="999.055" y1="-8.01353" x2="1005.57" y2="100.634" gradientUnits="userSpaceOnUse">
<stop offset="0.0891301" stop-color="#386A3F" stop-opacity="0.1"/>
<stop offset="1" stop-color="#1B365D" stop-opacity="0.94"/>
</linearGradient>
</defs>
</svg>
