<svg width="1440" height="1603" viewBox="0 0 1440 1603" fill="none" xmlns="http://www.w3.org/2000/svg">
<mask id="mask0" mask-type="alpha" maskUnits="userSpaceOnUse" x="-251" y="768" width="836" height="705">
<rect x="584.477" y="1472.86" width="835.477" height="704.847" transform="rotate(180 584.477 1472.86)" fill="url(#paint0_linear)"/>
</mask>
<g mask="url(#mask0)">
<path d="M551.634 1500.53L382.468 1126.4L341.363 1197.58L255.99 1034.02L176.411 1179.52L59.9475 953.187L-0.129944 1091.76L-44.3975 1050.18L-289.45 1500.53L10.9477 1482.04L10.937 1482.06L20.4229 1481.45L218.046 1468.89L551.634 1500.53Z" fill="#1B365D"/>
<path d="M433.311 1225.02L389.423 1127.44C387.028 1122.11 379.547 1121.89 376.838 1127.07L330.471 1215.64C329.545 1217.41 329.418 1219.49 330.124 1221.36L336.766 1238.94C338.646 1243.92 345.173 1245.06 348.633 1241.02L366.021 1220.7C369.192 1216.99 375.086 1217.58 377.457 1221.84L388.118 1241.01C390.518 1245.33 396.511 1245.87 399.645 1242.05L408.192 1231.65C410.422 1228.93 414.318 1228.29 417.3 1230.15L423.228 1233.84C429.097 1237.49 436.147 1231.33 433.311 1225.02Z" fill="#EEEEEE"/>
<path d="M273.613 1133.12L297.442 1106.48C299.406 1104.29 299.785 1101.1 298.39 1098.5L261.14 1029.25C258.425 1024.2 251.123 1024.38 248.656 1029.55L206.316 1118.4C204.544 1122.12 209.377 1125.43 212.204 1122.43C214.006 1120.52 217.176 1121.11 218.174 1123.54L224.943 1140.02C227.137 1145.36 234.491 1145.9 237.438 1140.93L245.784 1126.86C248.247 1122.71 254.075 1122.24 257.173 1125.94L263.028 1132.94C265.766 1136.21 270.769 1136.3 273.613 1133.12Z" fill="#EEEEEE"/>
<path d="M91.9171 1144.91L122.065 1082.86C122.528 1081.9 122.769 1080.86 122.769 1079.8V1069.23C122.769 1068.13 122.507 1067.04 122.004 1066.05L64.5064 953.382C61.8493 948.175 54.3583 948.326 51.9131 953.635L2.76498 1060.36C1.00507 1064.18 -3.70435 1065.6 -7.28061 1063.38L-46.0778 1039.34C-49.6223 1037.14 -54.2893 1038.51 -56.0838 1042.27L-112.781 1161.2C-113.78 1163.29 -113.675 1165.75 -112.5 1167.75L-100.056 1188.96C-97.7172 1192.95 -92.2245 1193.61 -89.0015 1190.3L-59.7478 1160.23C-56.3443 1156.73 -50.4951 1157.7 -48.4047 1162.11L-29.225 1202.58C-26.9699 1207.34 -20.4661 1208 -17.3031 1203.79L42.4346 1124.28C44.8492 1121.07 49.4682 1120.54 52.542 1123.13L81.1098 1147.21C84.5988 1150.15 89.9232 1149.02 91.9171 1144.91Z" fill="#EEEEEE"/>
<path d="M433.311 1225.02L389.423 1127.44C387.028 1122.11 379.547 1121.89 376.838 1127.07L330.471 1215.64C329.545 1217.41 329.418 1219.49 330.124 1221.36L336.766 1238.94C338.646 1243.92 345.173 1245.06 348.633 1241.02L366.021 1220.7C369.192 1216.99 375.086 1217.58 377.457 1221.84L388.118 1241.01C390.518 1245.33 396.511 1245.87 399.645 1242.05L408.192 1231.65C410.422 1228.93 414.318 1228.29 417.3 1230.15L423.228 1233.84C429.097 1237.49 436.147 1231.33 433.311 1225.02Z" stroke="black"/>
<path d="M273.613 1133.12L297.442 1106.48C299.406 1104.29 299.785 1101.1 298.39 1098.5L261.14 1029.25C258.425 1024.2 251.123 1024.38 248.656 1029.55L206.316 1118.4C204.544 1122.12 209.377 1125.43 212.204 1122.43C214.006 1120.52 217.176 1121.11 218.174 1123.54L224.943 1140.02C227.137 1145.36 234.491 1145.9 237.438 1140.93L245.784 1126.86C248.247 1122.71 254.075 1122.24 257.173 1125.94L263.028 1132.94C265.766 1136.21 270.769 1136.3 273.613 1133.12Z" stroke="black"/>
<path d="M91.9171 1144.91L122.065 1082.86C122.528 1081.9 122.769 1080.86 122.769 1079.8V1069.23C122.769 1068.13 122.507 1067.04 122.004 1066.05L64.5064 953.382C61.8493 948.175 54.3583 948.326 51.9131 953.635L2.76498 1060.36C1.00507 1064.18 -3.70435 1065.6 -7.28061 1063.38L-46.0778 1039.34C-49.6223 1037.14 -54.2893 1038.51 -56.0838 1042.27L-112.781 1161.2C-113.78 1163.29 -113.675 1165.75 -112.5 1167.75L-100.056 1188.96C-97.7172 1192.95 -92.2245 1193.61 -89.0015 1190.3L-59.7478 1160.23C-56.3443 1156.73 -50.4951 1157.7 -48.4047 1162.11L-29.225 1202.58C-26.9699 1207.34 -20.4661 1208 -17.3031 1203.79L42.4346 1124.28C44.8492 1121.07 49.4682 1120.54 52.542 1123.13L81.1098 1147.21C84.5988 1150.15 89.9232 1149.02 91.9171 1144.91Z" stroke="black"/>
</g>
<path d="M161.977 1550.74L170.988 1564.19L169.598 1582.5M152.083 1553.32L154.307 1571.63L150.971 1581.64M160.456 1538.37L181.83 1518.98M161.977 1543.24L174.88 1536.15L186 1524.99" stroke="#AAEAC8" stroke-width="4" stroke-linecap="round" stroke-linejoin="round"/>
<path d="M153.659 1503.98C148.056 1503.64 138.288 1507.72 136.105 1522.15C134.15 1535.32 140.459 1547.8 145.331 1552.8C148.516 1556.06 156.519 1561.32 163.228 1558.53C165.51 1557.59 167.52 1556.12 169.06 1554.26C170.599 1552.4 171.614 1550.22 172.004 1547.93C172.422 1545.61 172.314 1543.25 171.688 1541.01C171.063 1538.78 169.933 1536.71 168.374 1534.96C161.876 1527.21 163.622 1522.89 164.099 1521.08C165.074 1517.4 165.796 1504.75 153.659 1503.98Z" fill="#AAEAC8"/>
<path d="M155.368 1524.2C156.166 1526.76 154.798 1529.5 152.313 1530.32C149.828 1531.14 147.166 1529.73 146.368 1527.17M155.368 1524.2C154.571 1521.64 151.909 1520.24 149.424 1521.06C146.939 1521.88 145.571 1524.62 146.368 1527.17M155.368 1524.2L159.604 1522.8M146.368 1527.17L136.519 1527.42L135.45 1528.68M168.604 1519.83C169.401 1522.39 168.033 1525.13 165.548 1525.95C163.063 1526.77 160.401 1525.36 159.604 1522.8M168.604 1519.83C167.806 1517.27 165.144 1515.86 162.659 1516.68C160.174 1517.51 158.806 1520.24 159.604 1522.8M168.604 1519.83L164.653 1519.33" stroke="black"/>
<path d="M246.172 1301.45L560.956 785.974L783.502 966.668L387.05 1415.83C387.05 1415.83 345.349 1443.1 287.671 1396.27C229.992 1349.43 246.172 1301.45 246.172 1301.45Z" fill="black"/>
<path d="M210.416 1420.11L271.656 1281.79L394.669 1381.67L288.287 1483.34C288.287 1483.34 274.175 1486.78 242.294 1460.9C210.412 1435.01 210.416 1420.11 210.416 1420.11Z" fill="black"/>
<path d="M187.932 1504.5L246.587 1409.24L286.4 1441.56L213.135 1524.96C213.135 1524.96 205.489 1530.08 195.171 1521.7C184.852 1513.32 187.932 1504.5 187.932 1504.5Z" fill="black"/>
<path d="M645.517 909.435C674.143 932.677 702.75 950.661 726.004 960.871C737.581 965.953 748.231 969.289 757.105 970.189C765.587 971.05 774.746 969.868 780.194 962.783C785.643 955.699 784.645 946.271 781.869 937.99C778.965 929.328 773.345 919.453 765.856 909.056C750.813 888.17 727.171 863.73 698.545 840.488C669.919 817.246 641.312 799.262 618.058 789.052C606.481 783.969 595.831 780.634 586.957 779.734C578.475 778.873 569.317 780.055 563.868 787.139C558.419 794.224 559.417 803.652 562.193 811.932C565.097 820.595 570.717 830.47 578.206 840.867C593.249 861.752 616.892 886.192 645.517 909.435Z" fill="#234065" stroke="black" stroke-width="15"/>
<path d="M436.5 435.626C600.9 574.128 595.334 733.38 568 794C568 794 550.5 812.5 644 896.5C737.5 980.5 773.5 958.5 773.5 958.5C946.167 875.447 1326.3 667.01 1431.5 511.658C1563 317.468 1427.5 279.452 1407 59.575C1390.6 -116.327 1493.17 -137.698 1546.5 -126.396L1690.5 -882.094L872.5 -916C867 -797.842 836.3 -547.963 757.5 -493.713C659 -425.901 54.5005 -476.76 66.5005 -126.396C78.5005 223.969 231 262.499 436.5 435.626Z" fill="url(#paint1_radial)"/>
<path d="M723.435 678.401C723.435 797.587 663.102 873.962 632.935 897.251C1183.44 697.409 958.435 640.899 1216.94 231.456C1423.74 -96.0992 1258.94 -461.91 1192.44 -590C1205.27 -519.448 1202.84 -340.635 1090.44 -189.804C949.935 -1.26447 686.935 -148.191 562.435 91.7208C437.935 331.633 723.435 529.419 723.435 678.401Z" fill="url(#paint2_linear)"/>
<g filter="url(#filter0_d)">
<circle cx="1192.5" cy="235.934" r="125.5" fill="#EEEEEE" fill-opacity="0.5"/>
</g>
<mask id="mask1" mask-type="alpha" maskUnits="userSpaceOnUse" x="775" y="542" width="898" height="759">
<rect width="897.693" height="757.336" transform="matrix(1 0 0 -1 775 1300.33)" fill="url(#paint3_linear)"/>
</mask>
<g mask="url(#mask1)">
<path d="M810.288 1330.07L992.051 928.073L1036.22 1004.56L1127.95 828.814L1213.45 985.146L1338.59 741.963L1403.14 890.851L1450.7 846.185L1714.01 1330.07L1391.24 1310.2L1391.25 1310.22L1381.06 1309.57L1168.72 1296.07L810.288 1330.07Z" fill="#17331B"/>
<path d="M936.72 1035.6L985.018 928.216C987.413 922.889 994.895 922.666 997.603 927.841L1048.03 1024.17C1048.96 1025.94 1049.08 1028.02 1048.38 1029.89L1040.85 1049.82C1038.97 1054.8 1032.44 1055.94 1028.98 1051.9L1009.24 1028.82C1006.07 1025.12 1000.17 1025.71 997.8 1029.97L985.608 1051.89C983.208 1056.21 977.215 1056.75 974.081 1052.93L964.121 1040.81C961.891 1038.09 957.995 1037.45 955.013 1039.31L946.803 1044.42C940.934 1048.07 933.885 1041.91 936.72 1035.6Z" fill="#EEEEEE"/>
<path d="M1109.41 935.741L1083.17 906.403C1081.2 904.207 1080.82 901.016 1082.22 898.42L1122.9 822.782C1125.62 817.733 1132.92 817.911 1135.38 823.087L1181.32 919.476C1183.23 923.472 1178.03 927.029 1174.99 923.811C1173.06 921.761 1169.65 922.392 1168.58 925.001L1160.91 943.675C1158.72 949.017 1151.36 949.554 1148.41 944.587L1138.54 927.94C1136.08 923.788 1130.25 923.317 1127.15 927.02L1120 935.566C1117.26 938.838 1112.26 938.921 1109.41 935.741Z" fill="#EEEEEE"/>
<path d="M1304.53 948.569L1271.79 881.182C1271.33 880.229 1271.09 879.183 1271.09 878.123V866.528C1271.09 865.422 1271.35 864.331 1271.85 863.346L1334.18 741.216C1336.84 736.009 1344.33 736.16 1346.77 741.469L1400.28 857.651C1402.04 861.472 1406.75 862.889 1410.32 860.673L1453 834.221C1456.55 832.025 1461.22 833.395 1463.01 837.159L1524.3 965.714C1525.3 967.811 1525.19 970.266 1524.02 972.269L1510.16 995.884C1507.82 999.87 1502.33 1000.54 1499.11 997.222L1466.67 963.883C1463.27 960.384 1457.42 961.355 1455.33 965.766L1434.03 1010.71C1431.78 1015.47 1425.27 1016.12 1422.11 1011.91L1357.08 925.355C1354.66 922.142 1350.04 921.617 1346.97 924.208L1315.34 950.863C1311.85 953.804 1306.53 952.674 1304.53 948.569Z" fill="#EEEEEE"/>
<path d="M936.72 1035.6L985.018 928.216C987.413 922.889 994.895 922.666 997.603 927.841L1048.03 1024.17C1048.96 1025.94 1049.08 1028.02 1048.38 1029.89L1040.85 1049.82C1038.97 1054.8 1032.44 1055.94 1028.98 1051.9L1009.24 1028.82C1006.07 1025.12 1000.17 1025.71 997.8 1029.97L985.608 1051.89C983.208 1056.21 977.215 1056.75 974.081 1052.93L964.121 1040.81C961.891 1038.09 957.995 1037.45 955.013 1039.31L946.803 1044.42C940.934 1048.07 933.885 1041.91 936.72 1035.6Z" stroke="black"/>
<path d="M1109.41 935.741L1083.17 906.403C1081.2 904.207 1080.82 901.016 1082.22 898.42L1122.9 822.782C1125.62 817.733 1132.92 817.911 1135.38 823.087L1181.32 919.476C1183.23 923.472 1178.03 927.029 1174.99 923.811C1173.06 921.761 1169.65 922.392 1168.58 925.001L1160.91 943.675C1158.72 949.017 1151.36 949.554 1148.41 944.587L1138.54 927.94C1136.08 923.788 1130.25 923.317 1127.15 927.02L1120 935.566C1117.26 938.838 1112.26 938.921 1109.41 935.741Z" stroke="black"/>
<path d="M1304.53 948.569L1271.79 881.182C1271.33 880.229 1271.09 879.183 1271.09 878.123V866.528C1271.09 865.422 1271.35 864.331 1271.85 863.346L1334.18 741.216C1336.84 736.009 1344.33 736.16 1346.77 741.469L1400.28 857.651C1402.04 861.472 1406.75 862.889 1410.32 860.673L1453 834.221C1456.55 832.025 1461.22 833.395 1463.01 837.159L1524.3 965.714C1525.3 967.811 1525.19 970.266 1524.02 972.269L1510.16 995.884C1507.82 999.87 1502.33 1000.54 1499.11 997.222L1466.67 963.883C1463.27 960.384 1457.42 961.355 1455.33 965.766L1434.03 1010.71C1431.78 1015.47 1425.27 1016.12 1422.11 1011.91L1357.08 925.355C1354.66 922.142 1350.04 921.617 1346.97 924.208L1315.34 950.863C1311.85 953.804 1306.53 952.674 1304.53 948.569Z" stroke="black"/>
</g>
<path d="M821.749 1177.61C821.749 1177.61 877.417 1269.29 896.452 1268.08" stroke="#B21C14" stroke-width="6" stroke-miterlimit="10"/>
<path d="M716.007 1285.16L785.37 1295.25L786.876 1252.35L717.088 1254.18L716.007 1285.16Z" fill="#953621"/>
<path d="M710.435 1249.38C710.435 1249.38 705.753 1256.21 716.503 1256.63C727.252 1257.05 774.874 1261.49 774.874 1261.49C774.874 1261.49 782.338 1257.17 776.482 1256.5C770.737 1255.73 710.435 1249.38 710.435 1249.38Z" fill="#C45233"/>
<path d="M786.868 1252.79L785.395 1293.8L868.099 1286.51L869.376 1250.52L831.86 1195.97L786.868 1252.79Z" fill="#E56138"/>
<path d="M763.475 1173.41L710.437 1249.38L776.485 1256.39L830.543 1177.99L763.475 1173.41Z" fill="#E56138"/>
<path d="M875.054 1255.19L830.543 1177.99L775.479 1257.93C775.479 1257.93 772.164 1267.35 781.164 1262.17C790.164 1256.98 823.181 1220.23 826.955 1209.37C830.73 1198.51 833.814 1208.6 836.142 1212.22C838.469 1215.83 855.882 1245.48 869.208 1253.97C869.208 1253.97 877.203 1262.82 875.054 1255.19Z" fill="#F5D340"/>
<path d="M829.045 1220.45C829.045 1220.45 823.886 1260.94 786.809 1293.72L865.38 1286.69C865.271 1286.68 831.152 1243.01 829.045 1220.45Z" fill="#953621"/>
<path d="M821.749 1177.61C821.749 1177.61 746.016 1302.78 714.214 1307.1" stroke="#B21C14" stroke-width="6" stroke-miterlimit="10"/>
<path d="M770.535 1173.5C770.535 1173.5 694.76 1298.7 662.956 1303.03" stroke="#B21C14" stroke-width="6" stroke-miterlimit="10"/>
<path d="M1134.15 179.065L1133.06 180.221C1133.92 180.524 1134.83 180.68 1135.74 180.683C1137.05 180.696 1138.35 180.404 1139.53 179.831C1140.71 179.258 1141.74 178.419 1142.54 177.381V177.381C1143.4 176.235 1143.95 174.892 1144.14 173.476C1144.34 172.06 1144.17 170.618 1143.66 169.284C1143.14 167.951 1142.3 166.769 1141.2 165.85C1140.11 164.931 1138.8 164.305 1137.39 164.029C1135.99 163.754 1134.54 163.838 1133.18 164.275C1131.82 164.711 1130.59 165.486 1129.61 166.526C1128.63 167.566 1127.93 168.838 1127.57 170.222C1127.22 171.606 1127.22 173.058 1127.58 174.442L1128.4 173.55L1134.15 179.065ZM1133.19 170.347C1133.49 169.956 1133.88 169.637 1134.32 169.414C1134.76 169.192 1135.24 169.07 1135.74 169.059C1136.42 169.054 1137.08 169.275 1137.62 169.686C1138.17 170.06 1138.59 170.59 1138.84 171.208C1139.08 171.827 1139.13 172.504 1138.99 173.153C1138.84 173.801 1138.5 174.389 1138.01 174.841C1137.52 175.293 1136.91 175.587 1136.25 175.685C1135.6 175.783 1134.92 175.681 1134.32 175.391C1133.73 175.101 1133.23 174.637 1132.9 174.061C1132.57 173.484 1132.42 172.821 1132.47 172.158C1132.52 171.496 1132.78 170.864 1133.19 170.347Z" fill="white"/>
<path d="M1167.62 150.236H1167.88C1167.62 150.005 1167.35 149.708 1167.05 149.477C1165.25 148.152 1162.99 147.594 1160.78 147.925C1159.68 148.081 1158.62 148.454 1157.67 149.021C1156.72 149.587 1155.89 150.337 1155.23 151.227C1154.3 152.469 1153.72 153.945 1153.58 155.49C1153.43 157.036 1153.72 158.592 1154.4 159.987C1155.09 161.381 1156.14 162.559 1157.45 163.391C1158.77 164.223 1160.28 164.676 1161.83 164.7H1163.12C1164.22 164.543 1165.27 164.17 1166.21 163.603C1167.16 163.036 1167.99 162.286 1168.64 161.398V161.398C1169.36 160.417 1169.86 159.289 1170.09 158.096H1169.6L1167.62 150.236ZM1164.58 158.096C1164.07 158.763 1163.32 159.212 1162.5 159.35C1161.89 159.385 1161.29 159.254 1160.76 158.971C1160.23 158.689 1159.78 158.267 1159.47 157.75C1159.16 157.233 1159 156.641 1159 156.038C1159.01 155.436 1159.17 154.845 1159.49 154.331C1160 153.664 1160.74 153.215 1161.57 153.076H1162.03C1162.71 153.087 1163.37 153.306 1163.92 153.704C1164.55 154.222 1164.97 154.96 1165.1 155.772C1165.22 156.584 1165.03 157.412 1164.58 158.096V158.096Z" fill="white"/>
<path d="M1130.35 305.871C1131.6 306.797 1133.09 307.358 1134.64 307.492C1136.19 307.626 1137.75 307.328 1139.14 306.63C1138.74 306.366 1138.31 306.102 1137.95 305.805L1142.81 299.398L1143.73 300.059C1143.85 299.315 1143.85 298.557 1143.73 297.813C1143.57 296.714 1143.19 295.659 1142.62 294.706C1142.05 293.754 1141.3 292.924 1140.4 292.264C1139.51 291.604 1138.49 291.127 1137.41 290.861C1136.34 290.595 1135.22 290.545 1134.12 290.713C1131.91 291.056 1129.92 292.257 1128.59 294.057C1127.26 295.857 1126.69 298.109 1127.02 300.323C1127.18 301.421 1127.56 302.477 1128.13 303.429C1128.7 304.381 1129.46 305.21 1130.35 305.871ZM1132.83 297.186C1133.34 296.518 1134.08 296.07 1134.91 295.931H1135.31C1135.98 295.942 1136.64 296.161 1137.19 296.558C1137.84 297.078 1138.26 297.822 1138.38 298.642C1138.51 299.462 1138.32 300.297 1137.85 300.983C1137.33 301.629 1136.59 302.055 1135.77 302.177C1134.95 302.299 1134.11 302.109 1133.42 301.644C1132.76 301.135 1132.31 300.391 1132.17 299.563C1132.07 298.715 1132.31 297.863 1132.83 297.186Z" fill="white"/>
<path d="M1178.98 204.723L1176.93 205.648C1178.24 206.455 1179.75 206.878 1181.29 206.87C1183.04 206.88 1184.74 206.351 1186.17 205.356C1187.6 204.36 1188.69 202.947 1189.29 201.309C1189.88 199.671 1189.96 197.889 1189.5 196.207C1189.05 194.524 1188.08 193.024 1186.74 191.91C1185.02 190.465 1182.8 189.753 1180.56 189.929C1178.43 190.106 1176.44 191.094 1175.01 192.691C1173.58 194.287 1172.81 196.372 1172.87 198.515C1173.89 198.02 1174.92 197.557 1175.97 197.128L1178.98 204.723ZM1178.98 196.401C1179.24 196.076 1179.57 195.808 1179.93 195.614C1180.3 195.421 1180.71 195.307 1181.13 195.279H1181.39C1182.12 195.29 1182.83 195.546 1183.41 196.005C1183.94 196.408 1184.33 196.962 1184.55 197.594C1184.76 198.226 1184.77 198.908 1184.59 199.548C1184.4 200.189 1184.03 200.759 1183.51 201.183C1183 201.608 1182.37 201.867 1181.71 201.926C1181.04 201.986 1180.37 201.843 1179.79 201.516C1179.21 201.19 1178.74 200.696 1178.45 200.098C1178.15 199.5 1178.05 198.827 1178.14 198.167C1178.24 197.508 1178.53 196.892 1178.98 196.401V196.401Z" fill="white"/>
<path d="M1169.83 294.28C1170.1 293.345 1170.03 292.343 1169.61 291.461C1169.2 290.579 1168.48 289.879 1167.58 289.492C1158.48 285.487 1150.53 279.265 1144.46 271.395L1141.15 273.773L1136.4 267.168L1139.93 264.593C1132.85 252.297 1130.43 237.869 1133.1 223.936C1135.77 210.003 1143.36 197.493 1154.48 188.685C1165.61 179.877 1179.53 175.357 1193.71 175.949C1207.89 176.541 1221.38 182.206 1231.74 191.91L1233.22 193.297C1235.19 193.208 1237.15 193.296 1239.1 193.562C1241.53 193.95 1243.89 194.684 1246.11 195.741C1243.43 192.14 1240.4 188.821 1237.05 185.834C1227.44 176.973 1215.45 171.106 1202.55 168.953C1189.65 166.799 1176.4 168.451 1164.42 173.707C1152.45 178.964 1142.27 187.596 1135.12 198.547C1127.98 209.499 1124.19 222.294 1124.21 235.368C1124.25 239.336 1124.65 243.293 1125.4 247.19L1128.7 246.1L1131.21 253.761L1127.21 255.049C1129.85 263.719 1134.22 271.766 1140.05 278.706C1145.88 285.647 1153.05 291.337 1161.14 295.436L1157.44 308.215C1159.92 309.371 1162.4 310.395 1164.94 311.286L1169.83 294.28Z" fill="white"/>
<path d="M1261.73 238.538C1258.69 260.56 1247.08 280.493 1229.42 294.016C1221.96 299.035 1204.68 306.102 1193.78 298.11C1190.09 295.434 1187.16 291.851 1185.27 287.708C1183.37 283.566 1182.59 279.004 1182.98 274.466C1183.39 269.827 1184.78 265.328 1187.06 261.264C1189.34 257.201 1192.45 253.665 1196.19 250.888C1211.98 238.472 1210.96 229.49 1210.99 225.824C1210.99 218.626 1215.75 195.609 1236.26 196.732C1235.07 195.378 1234.05 194.354 1233.26 193.595C1228.11 193.818 1223.18 195.773 1219.28 199.142C1210 206.936 1207.98 220.904 1207.98 225.626V226.353C1207.98 229.985 1207.98 237.547 1194.34 248.313C1190.28 251.356 1186.9 255.224 1184.43 259.663C1181.97 264.102 1180.47 269.012 1180.04 274.07C1179.57 279.139 1180.43 284.243 1182.54 288.877C1184.65 293.51 1187.93 297.513 1192.06 300.488C1196.15 303.345 1201.05 304.804 1206.03 304.649C1214.98 304.31 1223.65 301.51 1231.11 296.558C1249.47 282.492 1261.56 261.77 1264.77 238.868C1267.55 214.366 1256.78 200.926 1246.11 195.939C1247.64 197.971 1249.07 200.088 1250.37 202.279C1257.77 208.422 1263.85 219.748 1261.73 238.538Z" fill="white"/>
<path d="M1233.22 193.429C1234.02 194.189 1235.04 195.213 1236.23 196.567C1237.02 196.567 1237.81 196.567 1238.67 196.732C1242.99 197.473 1247.03 199.367 1250.37 202.213C1249.07 200.022 1247.64 197.905 1246.11 195.873C1243.89 194.817 1241.53 194.083 1239.1 193.694C1237.15 193.428 1235.19 193.34 1233.22 193.429V193.429Z" fill="white"/>
<path d="M1210.96 225.659C1210.96 229.325 1211.95 238.307 1196.16 250.723C1192.42 253.5 1189.3 257.036 1187.03 261.099C1184.75 265.163 1183.36 269.662 1182.94 274.301C1182.52 278.866 1183.3 283.461 1185.19 287.635C1187.09 291.81 1190.03 295.42 1193.75 298.11C1204.65 306.102 1221.92 299.035 1229.39 294.016C1247.04 280.493 1258.65 260.56 1261.7 238.538C1263.81 219.748 1257.73 208.323 1250.33 202.213C1252.61 206.034 1254.45 210.1 1255.82 214.333C1258.9 221.866 1259.9 230.091 1258.69 238.142C1255.78 259.277 1244.69 278.427 1227.81 291.473C1220.21 296.591 1204.68 302.271 1195.7 295.634C1192.42 293.291 1189.81 290.133 1188.13 286.472C1186.45 282.811 1185.75 278.775 1186.12 274.764V274.466C1186.48 270.266 1187.74 266.192 1189.8 262.514C1191.86 258.836 1194.68 255.638 1198.07 253.134C1214.16 240.486 1214.1 230.547 1214.06 226.287V225.659C1214.06 221.994 1215.81 210.04 1223.28 203.633C1226.48 200.889 1230.59 199.43 1234.81 199.539C1235.91 199.543 1237.02 199.62 1238.11 199.77L1238.87 199.935C1237.91 198.68 1236.96 197.557 1236.1 196.633C1215.71 195.444 1210.99 218.328 1210.96 225.659Z" fill="white"/>
<path d="M1255.85 214.333C1254.49 210.1 1252.65 206.034 1250.37 202.213C1247.03 199.367 1242.99 197.473 1238.67 196.732C1237.81 196.732 1237.02 196.732 1236.23 196.567C1237.09 197.557 1238.05 198.68 1239 199.869C1242.76 200.764 1246.25 202.543 1249.18 205.059C1252.11 207.575 1254.4 210.755 1255.85 214.333V214.333Z" fill="white"/>
<path d="M1112.65 251.351C1110.1 238.732 1110.62 225.686 1114.18 213.313C1117.73 200.939 1124.21 189.601 1133.06 180.254C1132.22 179.985 1131.43 179.584 1130.72 179.065C1129.15 177.904 1128.04 176.234 1127.58 174.343C1117.16 185.203 1109.69 198.546 1105.87 213.105C1102.06 227.664 1102.04 242.955 1105.81 257.526C1105.94 258.059 1106.18 258.56 1106.51 258.996C1106.85 259.432 1107.27 259.795 1107.75 260.061C1108.23 260.328 1108.76 260.492 1109.31 260.545C1109.85 260.597 1110.41 260.536 1110.93 260.366L1127.18 255.082C1126.41 252.493 1125.82 249.857 1125.4 247.19L1112.65 251.351Z" fill="white"/>
<path d="M1130.72 179.032C1131.43 179.551 1132.22 179.952 1133.06 180.221L1134.15 179.065L1128.4 173.418L1127.58 174.31C1128.04 176.201 1129.15 177.871 1130.72 179.032V179.032Z" fill="white"/>
<path d="M1128.7 246.1L1125.4 247.19C1125.85 249.848 1126.48 252.473 1127.28 255.049L1131.28 253.761L1128.7 246.1Z" fill="white"/>
<path d="M1142.18 304.187C1141.39 305.268 1140.34 306.141 1139.14 306.729C1154.27 317.967 1172.62 324.024 1191.47 324C1203.09 324 1214.61 321.711 1225.35 317.263C1236.09 312.816 1245.85 306.297 1254.07 298.079C1262.29 289.861 1268.81 280.105 1273.26 269.367C1277.71 258.63 1280 247.122 1280 235.5C1280 223.878 1277.71 212.37 1273.26 201.632C1268.81 190.895 1262.29 181.139 1254.07 172.921C1245.85 164.703 1236.09 158.184 1225.35 153.737C1214.61 149.289 1203.09 147 1191.47 147C1183.49 147.052 1175.56 148.162 1167.88 150.302C1168.9 151.282 1169.66 152.505 1170.08 153.856C1170.5 155.207 1170.57 156.643 1170.29 158.029C1182.45 154.677 1195.22 154.231 1207.58 156.728C1219.95 159.225 1231.55 164.594 1241.45 172.402C1251.35 180.21 1259.27 190.237 1264.58 201.673C1269.88 213.109 1272.42 225.632 1271.99 238.231C1271.56 250.83 1268.17 263.15 1262.09 274.196C1256.02 285.242 1247.42 294.703 1237.01 301.815C1226.6 308.928 1214.66 313.491 1202.16 315.136C1189.65 316.781 1176.94 315.463 1165.04 311.286L1164.01 314.886L1156.28 312.673L1157.54 308.215C1152.72 305.943 1148.13 303.212 1143.83 300.059C1143.67 301.561 1143.1 302.989 1142.18 304.187V304.187Z" fill="white"/>
<path d="M1167.88 150.17H1167.62L1169.8 157.93H1170.29C1170.58 156.539 1170.51 155.096 1170.09 153.739C1169.67 152.381 1168.91 151.153 1167.88 150.17V150.17Z" fill="white"/>
<path d="M1137.95 305.805C1138.31 306.102 1138.74 306.366 1139.14 306.63C1140.34 306.042 1141.39 305.169 1142.18 304.087V304.087C1143.05 302.908 1143.58 301.516 1143.73 300.059L1142.81 299.398L1137.95 305.805Z" fill="white"/>
<path d="M1163.92 314.886L1165.04 311.286C1162.49 310.395 1160.02 309.371 1157.54 308.215L1156.28 312.673L1163.92 314.886Z" fill="white"/>
<path d="M1162.07 258.748C1162.88 258.145 1163.44 257.258 1163.64 256.262C1163.84 255.265 1163.65 254.232 1163.12 253.365C1160.63 249.392 1159.01 244.938 1158.36 240.295C1157.71 235.651 1158.05 230.923 1159.35 226.42C1160.65 221.916 1162.89 217.738 1165.92 214.158C1168.95 210.579 1172.7 207.679 1176.93 205.648C1176.54 205.433 1176.18 205.178 1175.84 204.888C1174.93 204.117 1174.2 203.163 1173.68 202.087C1173.17 201.011 1172.89 199.838 1172.87 198.647C1167.99 201.083 1163.64 204.46 1160.07 208.583C1156.5 212.706 1153.78 217.493 1152.06 222.67C1150.35 227.847 1149.68 233.312 1150.09 238.749C1150.49 244.187 1151.97 249.491 1154.43 254.356L1140.1 264.791C1141.44 267.085 1142.93 269.291 1144.56 271.395L1162.07 258.748Z" fill="white"/>
<path d="M1175.84 204.888C1176.18 205.178 1176.54 205.433 1176.93 205.648L1178.98 204.723L1175.97 197.26C1174.92 197.689 1173.89 198.152 1172.87 198.647C1172.89 199.838 1173.17 201.011 1173.68 202.087C1174.2 203.163 1174.93 204.117 1175.84 204.888V204.888Z" fill="white"/>
<path d="M1141.32 273.872L1144.62 271.494C1143 269.39 1141.51 267.184 1140.16 264.89L1136.63 267.466L1141.32 273.872Z" fill="white"/>
<path d="M1238.44 197.689C1248.81 199.175 1264.54 210.733 1261.33 239.165C1258.34 261.04 1246.82 280.847 1229.29 294.28C1221.89 299.266 1204.71 306.3 1193.91 298.342C1190.23 295.677 1187.3 292.098 1185.42 287.957C1183.55 283.816 1182.78 279.257 1183.21 274.731C1183.62 270.114 1185.01 265.639 1187.29 261.602C1189.57 257.565 1192.68 254.059 1196.42 251.318C1212.11 239.033 1211.09 230.084 1211.12 226.452C1210.99 218.989 1215.98 194.486 1238.44 197.689Z" fill="white"/>
<defs>
<filter id="filter0_d" x="1017" y="60.4343" width="351" height="351" filterUnits="userSpaceOnUse" color-interpolation-filters="sRGB">
<feFlood flood-opacity="0" result="BackgroundImageFix"/>
<feColorMatrix in="SourceAlpha" type="matrix" values="0 0 0 0 0 0 0 0 0 0 0 0 0 0 0 0 0 0 127 0"/>
<feOffset/>
<feGaussianBlur stdDeviation="25"/>
<feColorMatrix type="matrix" values="0 0 0 0 0.933333 0 0 0 0 0.933333 0 0 0 0 0.933333 0 0 0 0.75 0"/>
<feBlend mode="normal" in2="BackgroundImageFix" result="effect1_dropShadow"/>
<feBlend mode="normal" in="SourceGraphic" in2="effect1_dropShadow" result="shape"/>
</filter>
<linearGradient id="paint0_linear" x1="1368.12" y1="1472.86" x2="1369.3" y2="2177.7" gradientUnits="userSpaceOnUse">
<stop stop-color="#386A3F"/>
<stop offset="1" stop-color="#334171"/>
</linearGradient>
<radialGradient id="paint1_radial" cx="0" cy="0" r="1" gradientUnits="userSpaceOnUse" gradientTransform="translate(1394.5 -485.493) rotate(119.734) scale(1260.16 3728.72)">
<stop stop-color="#E4FAFF" stop-opacity="0.62"/>
<stop offset="0.877582" stop-color="#1B365D" stop-opacity="0.94"/>
</radialGradient>
<linearGradient id="paint2_linear" x1="1230.94" y1="-499.07" x2="680.319" y2="856.741" gradientUnits="userSpaceOnUse">
<stop offset="0.229167" stop-color="#234065" stop-opacity="0.87"/>
<stop offset="1" stop-color="#A1D6E4" stop-opacity="0.1"/>
</linearGradient>
<linearGradient id="paint3_linear" x1="842.002" y1="1.87466e-06" x2="843.267" y2="757.336" gradientUnits="userSpaceOnUse">
<stop stop-color="#386A3F"/>
<stop offset="1" stop-color="#334171"/>
</linearGradient>
</defs>
</svg>
