<svg width="178" height="68" viewBox="0 0 178 68" fill="none" xmlns="http://www.w3.org/2000/svg">
<path d="M177.126 20.0456L36.219 3.98793L25.8299 10.1535L35.2727 13.9677L20.0762 13.5681L4.60112 22.7521L9.65288 28.0878L20.9743 31.5798L13.1016 31.7303L24.9257 44.2189L33.2043 44.6038L37.8747 48.9113L169.246 63.8823L170.587 56.4236L157.451 55.6091L171.019 54.0171L173.869 38.1615L158.128 29.5054L175.486 29.1697L177.126 20.0456Z" fill="#7C5939"/>
<path d="M123.877 36.6069L144.926 17.7602L159.145 40.2967L138.097 59.1434L123.877 36.6069Z" fill="#252525"/>
<mask id="mask0" mask-type="alpha" maskUnits="userSpaceOnUse" x="123" y="17" width="37" height="43">
<path d="M123.886 36.6119L144.934 17.7557L159.137 40.2921L138.089 59.1483L123.886 36.6119Z" fill="#252525"/>
</mask>
<g mask="url(#mask0)">
<path d="M122.829 36.8273L136.005 29.6021L135.275 43.4603L145.339 36.2894L148.317 44.982L164.803 38.2821" stroke="#545454" stroke-width="2"/>
</g>
<path d="M48.0812 36.9116L48.5364 34.3111C47.5012 34.1104 46.541 33.8058 45.6558 33.3973C44.7891 32.9749 44.0624 32.4482 43.4756 31.8172L44.8233 29.5375C45.4737 30.176 46.2177 30.6967 47.0553 31.0996C47.8929 31.5025 48.8441 31.7659 49.9089 31.8897C51.0691 32.0246 51.9552 31.9185 52.5673 31.5716C53.1794 31.2246 53.5392 30.7438 53.6468 30.1292C53.7434 29.5776 53.6379 29.115 53.3303 28.7416C53.0227 28.3681 52.418 28.0244 51.5161 27.7105L49.0843 26.873C47.7092 26.3915 46.7195 25.7458 46.1153 24.9358C45.5298 24.1119 45.3432 23.0932 45.5557 21.8796C45.7874 20.5558 46.4349 19.4973 47.498 18.7043C48.5798 17.8974 49.9081 17.489 51.4828 17.4791L51.9504 14.8077L54.3344 15.0848L53.8709 17.7326C54.6835 17.9075 55.4516 18.1978 56.1752 18.6035C56.8988 19.0093 57.4839 19.5115 57.9304 20.1101L56.6273 22.2743C55.6125 21.0307 54.1675 20.2998 52.2921 20.0818C51.3067 19.9672 50.4721 20.1034 49.7881 20.4902C49.1228 20.8631 48.7267 21.4121 48.5998 22.1371C48.506 22.6729 48.6129 23.1276 48.9205 23.501C49.2281 23.8745 49.772 24.195 50.5522 24.4626L52.984 25.3002C54.4518 25.8085 55.4878 26.4677 56.092 27.2776C56.7148 28.0737 56.9227 29.0627 56.7158 30.2448C56.4841 31.5686 55.8328 32.6025 54.7621 33.3464C53.71 34.0764 52.4335 34.4667 50.9327 34.5174L50.4651 37.1887L48.0812 36.9116ZM59.2517 35.4363L59.6903 32.9304L63.4808 33.371L65.3554 22.6619L62.1169 24.0704L61.314 21.7096L66.8417 19.3129L69.011 19.5651L66.5322 33.7258L70.0843 34.1388L69.6456 36.6446L59.2517 35.4363ZM73.546 37.0981L73.9847 34.5922L77.7751 35.0329L79.6498 24.3237L76.4113 25.7322L75.6083 23.3714L81.136 20.9747L83.3054 21.2269L80.8266 35.3876L84.3787 35.8006L83.94 38.3065L73.546 37.0981ZM87.149 38.6796L87.5421 36.4337L93.9831 31.321C94.8522 30.6179 95.498 29.9855 95.9207 29.4235C96.3462 28.8458 96.6141 28.2418 96.7244 27.6114C97.0058 26.0038 96.1691 25.0864 94.2143 24.8591C92.6885 24.6817 91.1827 25.0856 89.6967 26.0707L89.0689 23.682C89.8412 23.1607 90.7598 22.777 91.8245 22.5309C92.8892 22.2849 93.9619 22.2246 95.0426 22.3503C96.8385 22.5591 98.1429 23.1208 98.9558 24.0354C99.7846 24.9519 100.068 26.1588 99.8058 27.656C99.6293 28.6647 99.2132 29.6053 98.5578 30.4779C97.9182 31.3523 96.9881 32.2653 95.7675 33.2169L91.402 36.6171L98.7445 37.4707L98.3059 39.9766L87.149 38.6796ZM106.79 41.2042C105.693 41.0767 104.657 40.7874 103.682 40.3363C102.71 39.8695 101.949 39.3066 101.399 38.6478L102.806 36.4474C104.059 37.7188 105.52 38.4514 107.189 38.6455C108.19 38.7619 109.013 38.6002 109.658 38.1606C110.321 37.707 110.728 37.0468 110.88 36.18C111.035 35.2974 110.888 34.5568 110.442 33.9581C109.998 33.3437 109.307 32.9819 108.37 32.8729C107.035 32.7177 105.838 33.1173 104.779 34.0716L102.729 33.8332L104.504 23.6915L114.826 24.8915L114.388 27.3974L107.045 26.5438L106.255 31.0591C107.207 30.5266 108.296 30.3315 109.519 30.4738C110.584 30.5976 111.466 30.9333 112.165 31.4809C112.882 32.0146 113.385 32.7082 113.673 33.5619C113.981 34.4016 114.042 35.3495 113.857 36.4054C113.666 37.4929 113.252 38.4256 112.613 39.2037C111.977 39.9659 111.156 40.5299 110.152 40.8955C109.166 41.2473 108.045 41.3501 106.79 41.2042Z" fill="white"/>
</svg>
