<svg width="199" height="57" viewBox="0 0 199 57" fill="none" xmlns="http://www.w3.org/2000/svg">
<path d="M162.769 1.66184L0 10.1216L0.64114 17.9425L15.6191 16.4598L0.848001 20.4659L2.21093 37.0916L22.3691 43.125L2.98386 46.5202L3.76815 56.0874L166.537 47.6276L196.625 22.983L162.769 1.66184Z" fill="#7C5939"/>
<path d="M85.8709 40.0004L85.7095 37.3653C84.6494 37.3264 83.6384 37.1736 82.6766 36.9068C81.7297 36.6234 80.8954 36.2155 80.1737 35.6833L80.9609 33.2275C81.7465 33.7573 82.5963 34.1565 83.5102 34.4252C84.4241 34.6938 85.4167 34.8074 86.4879 34.7658C87.655 34.7205 88.4976 34.4797 89.0158 34.0433C89.5339 33.607 89.774 33.0774 89.7358 32.4546C89.7016 31.8957 89.4904 31.4556 89.1021 31.1345C88.7138 30.8134 88.0417 30.5674 87.0857 30.3964L84.5099 29.9441C83.0514 29.6806 81.9319 29.1958 81.1515 28.4897C80.3861 27.767 79.9657 26.7909 79.8904 25.5612C79.8083 24.2197 80.195 23.0761 81.0506 22.1304C81.9212 21.1682 83.126 20.5611 84.6651 20.3093L84.4993 17.6023L86.8975 17.5092L87.0618 20.1922C87.8981 20.2398 88.7177 20.4081 89.5207 20.697C90.3236 20.986 91.0135 21.3915 91.5904 21.9133L90.8199 24.2484C89.5364 23.1777 87.9513 22.6789 86.0647 22.7522C85.0735 22.7907 84.2882 23.0533 83.7091 23.54C83.1449 24.0101 82.8853 24.6125 82.9303 25.3471C82.9635 25.8901 83.1743 26.3221 83.5625 26.6432C83.9508 26.9643 84.558 27.1969 85.3841 27.3409L87.96 27.7932C89.5153 28.069 90.6833 28.5599 91.4637 29.266C92.2591 29.9554 92.6935 30.8991 92.7669 32.0968C92.849 33.4383 92.4528 34.5582 91.5783 35.4566C90.7189 36.3384 89.5605 36.9197 88.1033 37.2003L88.2691 39.9073L85.8709 40.0004ZM100.72 36.9026C99.569 36.9473 98.4556 36.8225 97.3799 36.528C96.3191 36.217 95.4269 35.7794 94.7033 35.2152L95.5668 32.8285C97.0741 33.8906 98.7071 34.3875 100.466 34.3192C102.624 34.2354 103.652 33.3471 103.548 31.6543C103.499 30.8558 103.191 30.2754 102.624 29.9132C102.072 29.5345 101.284 29.3649 100.261 29.4047L97.5511 29.5099L97.3956 26.9706L99.8178 26.8766C100.713 26.8418 101.411 26.5986 101.913 26.1469C102.413 25.6793 102.639 25.0542 102.591 24.2717C102.546 23.537 102.264 22.9877 101.745 22.6237C101.242 22.259 100.527 22.0947 99.5993 22.1307C97.9365 22.1952 96.5088 22.8269 95.3162 24.0258L94.1681 21.7652C94.8005 21.1004 95.6096 20.5727 96.5953 20.1823C97.581 19.7918 98.6175 19.5755 99.7046 19.5333C101.463 19.465 102.855 19.8112 103.879 20.5718C104.902 21.3165 105.457 22.3915 105.543 23.7969C105.599 24.7072 105.416 25.5147 104.994 26.2194C104.572 26.9241 103.971 27.4437 103.19 27.7782C104.182 28.0118 104.972 28.4854 105.561 29.1989C106.149 29.8965 106.474 30.7643 106.538 31.8023C106.63 33.3035 106.159 34.5144 105.126 35.4349C104.091 36.3395 102.623 36.8288 100.72 36.9026ZM110.289 36.291L117.038 21.6698L108.668 21.9947L108.511 19.4315L120.286 18.9744L120.427 21.2741L113.67 36.1597L110.289 36.291ZM129.959 35.7675C128.856 35.8103 127.775 35.6842 126.715 35.3892C125.654 35.0782 124.778 34.64 124.086 34.0745L124.95 31.6878C126.473 32.7492 128.074 33.2474 129.753 33.1822C130.76 33.1431 131.528 32.8572 132.056 32.3244C132.6 31.775 132.844 31.0612 132.791 30.1828C132.736 29.2885 132.42 28.5804 131.843 28.0585C131.265 27.5207 130.505 27.27 129.561 27.3067C128.219 27.3588 127.14 27.9369 126.326 29.0411L124.264 29.1211L123.635 18.8444L134.019 18.4413L134.174 20.9805L126.788 21.2673L127.068 25.8427C127.876 25.171 128.896 24.8112 130.127 24.7634C131.198 24.7219 132.14 24.9174 132.951 25.3501C133.778 25.7663 134.432 26.3732 134.914 27.1709C135.41 27.952 135.691 28.8776 135.757 29.9476C135.824 31.0495 135.636 32.0333 135.193 32.899C134.748 33.7487 134.076 34.4311 133.178 34.9462C132.295 35.4447 131.222 35.7184 129.959 35.7675Z" fill="white"/>
<path d="M60.4088 35.9217C57.8154 45.5186 47.9422 51.1617 38.3565 48.5259C28.7708 45.8901 23.1024 35.9736 25.6958 26.3767C28.2892 16.7798 38.1624 11.1367 47.7481 13.7725C57.3338 16.4083 63.0022 26.3248 60.4088 35.9217Z" fill="#1D8A4F"/>
<mask id="mask0" mask-type="alpha" maskUnits="userSpaceOnUse" x="25" y="12" width="37" height="37">
<path d="M60.4111 34.9296C57.8197 44.527 47.9489 50.169 38.3641 47.5313C28.7793 44.8936 23.11 34.9751 25.7014 25.3777C28.2928 15.7803 38.1636 10.1383 47.7484 12.7759C57.3332 15.4136 63.0025 25.3321 60.4111 34.9296Z" fill="#1D8A4F"/>
</mask>
<g mask="url(#mask0)">
<path d="M24.8323 37.8082C27.8512 33.888 37.1561 25.7728 42.2816 29.1954C47.4071 32.6179 58.6369 26.7093 63.0094 23.9999" stroke="#AAEAC8" stroke-width="4"/>
</g>
</svg>
