<svg width="187" height="58" viewBox="0 0 187 58" fill="none" xmlns="http://www.w3.org/2000/svg">
<path d="M184.276 33.8629L156.398 8.43987L64.3765 4.2114L66.2698 5.59142L82.7522 8.58664C74.618 8.9015 62.4738 5.73835 61.7508 5.76634C61.0278 5.79433 55.6251 4.29982 52.5374 3.14614L4.70392 0.708088L4.05071 8.84259L17.7643 12.5555L2.61376 16.7752L7.30401 19.5002L2.53494 22.5914L2.45137 28.7594L5.49953 33.3764L1.66389 38.5659L0.864827 48.5167L152.559 56.2485L184.276 33.8629Z" fill="#7C5939"/>
<rect width="36.1121" height="36.1121" transform="matrix(0.998616 0.0526035 -0.0953554 0.995443 25.835 7)" fill="#1B365D"/>
<mask id="mask0" mask-type="alpha" maskUnits="userSpaceOnUse" x="22" y="10" width="40" height="38">
<rect width="36.1121" height="36.1121" transform="matrix(0.998616 0.0526035 -0.0953554 0.995443 25.4434 10)" fill="#1B365D"/>
</mask>
<g mask="url(#mask0)">
<path d="M18.476 28.904C19.9927 25.0377 23.7463 18.0743 26.6267 21.1509C30.2273 24.9966 30.3393 39.2238 39.3239 31.5776C48.3086 23.9315 56.4201 26.3254 58.5805 28.6328C67.4732 38.1312 65.8699 37.4637 67.3357 37.2005" stroke="#6499C6" stroke-width="4"/>
</g>
<path d="M82.6482 41.1283L82.8372 38.4951C81.788 38.3673 80.8028 38.1303 79.8815 37.7842C78.9774 37.4228 78.2017 36.9472 77.5545 36.3574L78.663 33.9822C79.3742 34.5749 80.1664 35.0432 81.0397 35.3872C81.913 35.7311 82.8851 35.9275 83.956 35.9762C85.1228 36.0293 85.9928 35.8607 86.566 35.4705C87.1393 35.0803 87.4482 34.574 87.4929 33.9516C87.5329 33.393 87.3812 32.9378 87.0376 32.5859C86.6941 32.2341 86.0582 31.933 85.1301 31.6826L82.6282 31.0164C81.2126 30.6318 80.1635 30.0557 79.481 29.2881C78.8155 28.5053 78.5269 27.4995 78.6151 26.2707C78.7113 24.9301 79.2476 23.8257 80.2239 22.9575C81.2174 22.0741 82.4962 21.5719 84.0603 21.4509L84.2544 18.7458L86.6519 18.8549L86.4595 21.536C87.285 21.6536 88.0778 21.8898 88.8381 22.2447C89.5984 22.5995 90.2308 23.0605 90.7353 23.6279L89.6593 25.8845C88.5247 24.7121 87.0144 24.083 85.1284 23.9972C84.1374 23.9521 83.3216 24.1472 82.681 24.5823C82.0576 25.0023 81.7195 25.5793 81.6668 26.3134C81.6279 26.856 81.7802 27.3033 82.1238 27.6551C82.4673 28.007 83.0404 28.2892 83.843 28.5019L86.3448 29.1681C87.8552 29.573 88.9516 30.1593 89.6342 30.9269C90.3339 31.6792 90.6408 32.6538 90.5549 33.8507C90.4587 35.1913 89.9161 36.2714 88.9273 37.091C87.9555 37.8953 86.7264 38.3758 85.2399 38.5323L85.0457 41.2374L82.6482 41.1283ZM93.0498 38.8396L101.701 24.8713L93.3339 24.4906L93.5177 21.9292L105.29 22.4648L105.125 24.7629L96.4303 38.9934L93.0498 38.8396ZM112.683 39.973C111.58 39.9228 110.521 39.7066 109.506 39.3242C108.493 38.9258 107.679 38.4165 107.066 37.7962L108.242 35.496C109.616 36.6793 111.142 37.3091 112.821 37.3855C113.828 37.4313 114.629 37.2116 115.225 36.7264C115.838 36.2259 116.176 35.5368 116.239 34.659C116.303 33.7653 116.083 33.0348 115.579 32.4675C115.075 31.8842 114.352 31.5711 113.409 31.5282C112.067 31.4671 110.917 31.9512 109.962 32.9805L107.9 32.8867L108.637 22.6171L119.018 23.0894L118.836 25.6269L111.451 25.2909L111.123 29.8631C112.016 29.2633 113.078 28.9914 114.309 29.0474C115.38 29.0961 116.29 29.3697 117.04 29.8681C117.807 30.3514 118.377 31.0097 118.751 31.8433C119.141 32.6616 119.298 33.6054 119.221 34.6746C119.142 35.7758 118.824 36.738 118.268 37.5613C117.713 38.3686 116.955 38.9906 115.993 39.4272C115.049 39.8485 113.946 40.0305 112.683 39.973ZM126.915 40.6205C124.917 40.5296 123.444 39.7101 122.497 38.162C121.551 36.5979 121.178 34.4194 121.379 31.6266C121.581 28.8019 122.263 26.6794 123.423 25.2592C124.583 23.8389 126.162 23.1743 128.16 23.2652C130.174 23.3568 131.648 24.1603 132.582 25.6758C133.531 27.1921 133.905 29.3546 133.704 32.1633C133.502 34.9721 132.819 37.1105 131.656 38.5787C130.493 40.0308 128.913 40.7114 126.915 40.6205ZM127.095 38.107C128.182 38.1564 129.017 37.6981 129.599 36.7319C130.199 35.7505 130.576 34.1825 130.731 32.0281C130.884 29.8896 130.731 28.3296 130.273 27.348C129.831 26.3513 129.067 25.8281 127.98 25.7787C126.909 25.73 126.075 26.1804 125.478 27.1299C124.881 28.0634 124.507 29.5994 124.353 31.7379C124.199 33.8924 124.349 35.4843 124.804 36.5137C125.261 37.5272 126.024 38.0583 127.095 38.107Z" fill="white"/>
</svg>
