<svg width="182" height="72" viewBox="0 0 182 72" fill="none" xmlns="http://www.w3.org/2000/svg">
<path d="M181.532 20.2014L37.5826 3.79687L26.8713 10.6398L36.4816 14.7391L20.9391 14.4296L4.9842 24.6224L10.0817 30.4258L21.6183 34.1563L13.5616 34.3876L25.4928 47.9709L33.9576 48.3228L38.6787 53.0027L172.887 68.2971L174.358 60.1138L160.929 59.3322L174.833 57.4734L177.96 40.0773L161.969 30.7262L179.733 30.2119L181.532 20.2014Z" fill="#7C5939"/>
<path d="M123.569 38.6263L145.568 18.9283L160.429 42.4828L138.43 62.1809L123.569 38.6263Z" fill="#252525"/>
<mask id="mask0" mask-type="alpha" maskUnits="userSpaceOnUse" x="123" y="18" width="38" height="45">
<path d="M123.577 38.6318L145.577 18.9237L160.421 42.4783L138.422 62.1863L123.577 38.6318Z" fill="#252525"/>
</mask>
<g mask="url(#mask0)">
<path d="M122.829 40.8271L136.005 33.6019L135.275 47.4601L145.339 40.2891L148.317 48.9817L164.804 42.2818" stroke="#545454" stroke-width="4"/>
</g>
<path d="M48.0812 40.9113L48.5364 38.3109C47.5012 38.1101 46.541 37.8055 45.6558 37.3971C44.7891 36.9747 44.0624 36.448 43.4756 35.8169L44.8233 33.5373C45.4737 34.1758 46.2177 34.6964 47.0553 35.0994C47.8929 35.5023 48.8441 35.7656 49.9089 35.8894C51.0691 36.0243 51.9552 35.9183 52.5673 35.5713C53.1794 35.2244 53.5392 34.7436 53.6468 34.1289C53.7434 33.5773 53.6379 33.1148 53.3303 32.7413C53.0227 32.3678 52.418 32.0242 51.5161 31.7103L49.0843 30.8728C47.7092 30.3913 46.7195 29.7455 46.1153 28.9356C45.5298 28.1117 45.3432 27.093 45.5557 25.8794C45.7874 24.5555 46.4349 23.4971 47.498 22.7041C48.5798 21.8971 49.9081 21.4887 51.4828 21.4788L51.9504 18.8074L54.3344 19.0846L53.8709 21.7323C54.6835 21.9072 55.4516 22.1975 56.1752 22.6033C56.8988 23.009 57.4839 23.5112 57.9304 24.1099L56.6273 26.2741C55.6125 25.0304 54.1675 24.2996 52.2921 24.0816C51.3067 23.967 50.4721 24.1031 49.7881 24.49C49.1228 24.8629 48.7267 25.4119 48.5998 26.1368C48.506 26.6727 48.6129 27.1273 48.9205 27.5008C49.2281 27.8743 49.772 28.1948 50.5522 28.4624L52.984 29.2999C54.4518 29.8083 55.4878 30.4674 56.092 31.2774C56.7148 32.0734 56.9227 33.0625 56.7158 34.2445C56.4841 35.5684 55.8328 36.6023 54.7621 37.3462C53.71 38.0761 52.4335 38.4665 50.9327 38.5171L50.4651 41.1885L48.0812 40.9113ZM59.2517 39.436L59.6903 36.9301L63.4808 37.3708L65.3554 26.6616L62.1169 28.0701L61.314 25.7093L66.8417 23.3127L69.011 23.5649L66.5322 37.7255L70.0843 38.1385L69.6456 40.6444L59.2517 39.436ZM73.546 41.0979L73.9847 38.592L77.7751 39.0326L79.6498 28.3235L76.4113 29.732L75.6083 27.3712L81.136 24.9745L83.3054 25.2267L80.8266 39.3874L84.3787 39.8003L83.94 42.3062L73.546 41.0979ZM87.149 42.6793L87.5421 40.4335L93.9831 35.3207C94.8522 34.6177 95.498 33.9852 95.9207 33.4233C96.3462 32.8456 96.6141 32.2415 96.7244 31.6111C97.0058 30.0036 96.1691 29.0861 94.2143 28.8589C92.6885 28.6815 91.1827 29.0853 89.6967 30.0704L89.0689 27.6818C89.8412 27.1605 90.7598 26.7768 91.8245 26.5307C92.8892 26.2846 93.9619 26.2244 95.0426 26.35C96.8385 26.5588 98.1429 27.1205 98.9558 28.0352C99.7846 28.9517 100.068 30.1585 99.8058 31.6558C99.6293 32.6644 99.2132 33.6051 98.5578 34.4776C97.9182 35.3521 96.9881 36.2651 95.7675 37.2167L91.402 40.6169L98.7445 41.4705L98.3059 43.9764L87.149 42.6793ZM106.79 45.2039C105.693 45.0764 104.657 44.7872 103.682 44.3361C102.71 43.8693 101.949 43.3064 101.399 42.6475L102.806 40.4471C104.059 41.7185 105.52 42.4512 107.189 42.6452C108.19 42.7616 109.013 42.6 109.658 42.1603C110.321 41.7067 110.728 41.0465 110.88 40.1797C111.035 39.2971 110.888 38.5565 110.442 37.9578C109.998 37.3434 109.307 36.9817 108.37 36.8727C107.035 36.7175 105.838 37.117 104.779 38.0713L102.729 37.833L104.504 27.6912L114.826 28.8913L114.388 31.3972L107.045 30.5435L106.255 35.0589C107.207 34.5264 108.296 34.3313 109.519 34.4736C110.584 34.5974 111.466 34.9331 112.165 35.4806C112.882 36.0143 113.385 36.708 113.673 37.5617C113.981 38.4014 114.042 39.3493 113.857 40.4052C113.666 41.4927 113.252 42.4254 112.613 43.2034C111.977 43.9657 111.156 44.5296 110.152 44.8953C109.166 45.247 108.045 45.3499 106.79 45.2039Z" fill="white"/>
</svg>
