<svg width="200" height="57" viewBox="0 0 200 57" fill="none" xmlns="http://www.w3.org/2000/svg">
<path d="M163.592 1.66138L0.823242 10.1211L1.46438 17.942L16.4423 16.4593L1.67124 20.4654L3.03417 37.091L23.1923 43.1244L3.8071 46.5195L4.59139 56.0867L167.36 47.627L197.448 22.9825L163.592 1.66138Z" fill="#7C5939"/>
<path d="M94.8709 37.5795L94.7095 34.9444C93.6494 34.9055 92.6384 34.7527 91.6766 34.4859C90.7297 34.2025 89.8954 33.7946 89.1737 33.2624L89.9609 30.8066C90.7465 31.3364 91.5963 31.7356 92.5102 32.0043C93.4241 32.2729 94.4167 32.3865 95.4879 32.3449C96.655 32.2996 97.4976 32.0588 98.0158 31.6224C98.534 31.1861 98.774 30.6565 98.7358 30.0337C98.7016 29.4748 98.4904 29.0347 98.1021 28.7136C97.7138 28.3925 97.0417 28.1465 96.0857 27.9755L93.5099 27.5232C92.0514 27.2597 90.932 26.7749 90.1515 26.0688C89.3861 25.3461 88.9657 24.37 88.8904 23.1403C88.8083 21.7988 89.195 20.6552 90.0506 19.7095C90.9212 18.7473 92.126 18.1402 93.6651 17.8884L93.4993 15.1814L95.8975 15.0883L96.0618 17.7713C96.8981 17.8189 97.7177 17.9872 98.5207 18.2761C99.3236 18.5651 100.014 18.9706 100.59 19.4924L99.8199 21.8275C98.5364 20.7568 96.9513 20.258 95.0647 20.3313C94.0735 20.3698 93.2882 20.6324 92.7091 21.1191C92.1449 21.5892 91.8853 22.1916 91.9303 22.9262C91.9635 23.4692 92.1743 23.9012 92.5625 24.2223C92.9508 24.5434 93.558 24.776 94.3841 24.92L96.96 25.3723C98.5154 25.6481 99.6833 26.139 100.464 26.8451C101.259 27.5345 101.694 28.4782 101.767 29.6759C101.849 31.0174 101.453 32.1373 100.578 33.0357C99.7189 33.9175 98.5605 34.4988 97.1033 34.7794L97.2691 37.4864L94.8709 37.5795ZM109.72 34.4817C108.569 34.5264 107.456 34.4016 106.38 34.1072C105.319 33.7962 104.427 33.3586 103.703 32.7943L104.567 30.4076C106.074 31.4697 107.707 31.9666 109.466 31.8983C111.624 31.8145 112.652 30.9262 112.548 29.2334C112.499 28.4349 112.191 27.8545 111.624 27.4923C111.072 27.1136 110.284 26.944 109.261 26.9838L106.551 27.089L106.396 24.5497L108.818 24.4557C109.713 24.4209 110.411 24.1777 110.913 23.726C111.413 23.2584 111.639 22.6333 111.591 21.8508C111.546 21.1162 111.264 20.5668 110.745 20.2028C110.242 19.8381 109.527 19.6738 108.599 19.7098C106.937 19.7743 105.509 20.4061 104.316 21.6049L103.168 19.3443C103.801 18.6795 104.61 18.1518 105.595 17.7614C106.581 17.3709 107.617 17.1546 108.705 17.1124C110.463 17.0441 111.855 17.3903 112.879 18.1509C113.902 18.8956 114.457 19.9706 114.543 21.376C114.599 22.2863 114.416 23.0938 113.994 23.7985C113.572 24.5032 112.971 25.0228 112.19 25.3573C113.182 25.5909 113.972 26.0645 114.561 26.778C115.149 27.4756 115.474 28.3434 115.538 29.3814C115.63 30.8826 115.159 32.0935 114.126 33.014C113.091 33.9186 111.623 34.4079 109.72 34.4817ZM119.289 33.8701L126.038 19.2489L117.668 19.5738L117.511 17.0106L129.286 16.5535L129.427 18.8532L122.67 33.7389L119.289 33.8701ZM138.959 33.3466C137.856 33.3894 136.775 33.2633 135.715 32.9683C134.654 32.6573 133.778 32.2191 133.086 31.6536L133.95 29.2669C135.473 30.3283 137.074 30.8265 138.753 30.7613C139.76 30.7222 140.528 30.4363 141.056 29.9035C141.6 29.3541 141.844 28.6403 141.791 27.7619C141.736 26.8676 141.42 26.1595 140.843 25.6376C140.265 25.0998 139.505 24.8492 138.562 24.8858C137.219 24.9379 136.14 25.5161 135.326 26.6202L133.264 26.7003L132.635 16.4235L143.019 16.0204L143.174 18.5596L135.788 18.8464L136.068 23.4218C136.876 22.7501 137.896 22.3904 139.127 22.3426C140.198 22.301 141.14 22.4965 141.951 22.9293C142.778 23.3454 143.432 23.9523 143.914 24.75C144.41 25.5311 144.691 26.4567 144.757 27.5267C144.824 28.6286 144.636 29.6124 144.193 30.4781C143.748 31.3278 143.076 32.0102 142.178 32.5253C141.295 33.0238 140.222 33.2976 138.959 33.3466Z" fill="white"/>
<path d="M69.4418 35.1482C66.0443 45.0724 53.1861 50.9245 40.7223 48.2193C28.2584 45.5141 20.9087 35.2759 24.3062 25.3517C27.7038 15.4275 40.5619 9.57536 53.0258 12.2806C65.4896 14.9858 72.8393 25.224 69.4418 35.1482Z" fill="#1D8A4F"/>
<mask id="mask0" mask-type="alpha" maskUnits="userSpaceOnUse" x="24" y="12" width="47" height="37">
<path d="M69.8486 35.2484C66.5096 45.0081 53.8603 50.7598 41.5955 48.095C29.3307 45.4303 22.0948 35.3583 25.4338 25.5986C28.7727 15.8388 41.4221 10.0872 53.6869 12.7519C65.9517 15.4166 73.1876 25.4886 69.8486 35.2484Z" fill="#1D8A4F"/>
</mask>
<g mask="url(#mask0)">
<path d="M23.6903 36.7742C27.4323 32.9101 38.953 24.9031 45.2737 28.2569C51.5944 31.6108 65.486 25.7696 70.8961 23.0931" stroke="#AAEAC8" stroke-width="2"/>
</g>
</svg>
