<svg width="205" height="65" viewBox="0 0 205 65" fill="none" xmlns="http://www.w3.org/2000/svg">
<g filter="url(#filter0_d)">
<path d="M166.769 1.66184L4 10.1216L4.64114 17.9425L19.6191 16.4598L4.848 20.4659L6.21093 37.0916L26.3691 43.125L6.98386 46.5202L7.76815 56.0874L170.537 47.6276L200.625 22.983L166.769 1.66184Z" fill="#7C5939"/>
</g>
<path d="M99.7781 37.9613L99.6167 35.3262C98.5566 35.2874 97.5457 35.1345 96.5838 34.8677C95.6369 34.5843 94.8026 34.1765 94.0809 33.6442L94.8681 31.1884C95.6537 31.7182 96.5035 32.1174 97.4174 32.3861C98.3313 32.6548 99.3239 32.7683 100.395 32.7267C101.562 32.6814 102.405 32.4406 102.923 32.0043C103.441 31.568 103.681 31.0384 103.643 30.4155C103.609 29.8566 103.398 29.4166 103.009 29.0955C102.621 28.7744 101.949 28.5283 100.993 28.3573L98.4171 27.9051C96.9586 27.6415 95.8392 27.1567 95.0587 26.4506C94.2933 25.728 93.873 24.7518 93.7977 23.5221C93.7155 22.1806 94.1022 21.037 94.9578 20.0914C95.8284 19.1291 97.0332 18.522 98.5723 18.2702L98.4066 15.5633L100.805 15.4702L100.969 18.1531C101.805 18.2007 102.625 18.369 103.428 18.658C104.231 18.947 104.921 19.3524 105.498 19.8743L104.727 22.2093C103.444 21.1386 101.859 20.6399 99.9719 20.7131C98.9807 20.7516 98.1955 21.0142 97.6163 21.5009C97.0521 21.971 96.7925 22.5734 96.8375 23.308C96.8708 23.851 97.0815 24.2831 97.4698 24.6042C97.858 24.9253 98.4652 25.1578 99.2914 25.3018L101.867 25.7541C103.423 26.0299 104.59 26.5208 105.371 27.2269C106.166 27.9164 106.601 28.86 106.674 30.0578C106.756 31.3992 106.36 32.5192 105.486 33.4176C104.626 34.2994 103.468 34.8806 102.011 35.1613L102.176 37.8682L99.7781 37.9613ZM114.627 34.8636C113.476 34.9082 112.363 34.7834 111.287 34.489C110.226 34.178 109.334 33.7404 108.61 33.1762L109.474 30.7895C110.981 31.8515 112.614 32.3484 114.373 32.2801C116.531 32.1963 117.559 31.308 117.455 29.6152C117.406 28.8167 117.098 28.2363 116.531 27.8742C115.979 27.4954 115.191 27.3259 114.168 27.3656L111.458 27.4708L111.303 24.9316L113.725 24.8375C114.62 24.8028 115.319 24.5596 115.82 24.1079C116.32 23.6402 116.546 23.0151 116.498 22.2326C116.453 21.498 116.171 20.9487 115.652 20.5846C115.149 20.2199 114.434 20.0556 113.506 20.0916C111.844 20.1562 110.416 20.7879 109.223 21.9868L108.075 19.7262C108.708 19.0613 109.517 18.5336 110.503 18.1432C111.488 17.7528 112.525 17.5364 113.612 17.4942C115.371 17.4259 116.762 17.7721 117.786 18.5328C118.809 19.2774 119.364 20.3525 119.45 21.7578C119.506 22.6681 119.323 23.4756 118.901 24.1803C118.48 24.8851 117.878 25.4046 117.098 25.7391C118.089 25.9727 118.88 26.4463 119.468 27.1598C120.056 27.8574 120.381 28.7252 120.445 29.7633C120.537 31.2644 120.066 32.4753 119.033 33.3959C117.998 34.3005 116.53 34.7897 114.627 34.8636ZM124.196 34.252L130.945 19.6307L122.576 19.9556L122.419 17.3924L134.194 16.9353L134.334 19.235L127.578 34.1207L124.196 34.252ZM143.867 33.7284C142.763 33.7712 141.682 33.6451 140.622 33.3501C139.562 33.0391 138.685 32.6009 137.994 32.0355L138.857 29.6488C140.38 30.7102 141.981 31.2083 143.66 31.1431C144.667 31.104 145.435 30.8181 145.964 30.2853C146.507 29.736 146.752 29.0221 146.698 28.1438C146.643 27.2494 146.327 26.5413 145.75 26.0194C145.173 25.4816 144.412 25.231 143.469 25.2676C142.126 25.3197 141.047 25.8979 140.234 27.002L138.171 27.0821L137.542 16.8053L147.926 16.4022L148.081 18.9414L140.695 19.2282L140.975 23.8036C141.783 23.1319 142.803 22.7722 144.034 22.7244C145.105 22.6828 146.047 22.8784 146.859 23.3111C147.685 23.7272 148.34 24.3341 148.821 25.1318C149.318 25.913 149.599 26.8385 149.664 27.9085C149.732 29.0105 149.544 29.9943 149.1 30.8599C148.655 31.7096 147.984 32.392 147.086 32.9071C146.203 33.4056 145.13 33.6794 143.867 33.7284Z" fill="white"/>
<path d="M72.6186 35.1487C69.221 45.073 56.3629 50.9252 43.899 48.2199C31.4352 45.5146 24.0855 35.2764 27.483 25.3521C30.8805 15.4278 43.7387 9.57562 56.2025 12.2809C68.6664 14.9862 76.0161 25.2244 72.6186 35.1487Z" fill="#1D8A4F"/>
<mask id="mask0" mask-type="alpha" maskUnits="userSpaceOnUse" x="27" y="10" width="44" height="39">
<path d="M69.5857 33.6331C66.094 43.8393 54.1529 50.1336 42.9144 47.6919C31.676 45.2501 25.396 34.997 28.8877 24.7908C32.3794 14.5846 44.3205 8.29021 55.5589 10.732C66.7974 13.1737 73.0773 23.4269 69.5857 33.6331Z" fill="#1D8A4F"/>
</mask>
<g mask="url(#mask0)">
<path d="M26.8651 36.7745C30.6071 32.9103 42.1278 24.9033 48.4486 28.2572C54.7693 31.6111 68.6608 25.7698 74.071 23.0934" stroke="#AAEAC8" stroke-width="2"/>
</g>
<defs>
<filter id="filter0_d" x="0" y="1.66187" width="204.625" height="62.4255" filterUnits="userSpaceOnUse" color-interpolation-filters="sRGB">
<feFlood flood-opacity="0" result="BackgroundImageFix"/>
<feColorMatrix in="SourceAlpha" type="matrix" values="0 0 0 0 0 0 0 0 0 0 0 0 0 0 0 0 0 0 127 0"/>
<feOffset dy="4"/>
<feGaussianBlur stdDeviation="2"/>
<feColorMatrix type="matrix" values="0 0 0 0 0 0 0 0 0 0 0 0 0 0 0 0 0 0 0.25 0"/>
<feBlend mode="normal" in2="BackgroundImageFix" result="effect1_dropShadow"/>
<feBlend mode="normal" in="SourceGraphic" in2="effect1_dropShadow" result="shape"/>
</filter>
</defs>
</svg>
